NotoSansSinhala-CondensedBold.ufo
<glyph name="exclam.sinh" format="2">
  <advance width="328"/>
  <unicode hex="0021"/>
  <outline>
    <contour>
      <point x="230" y="253" type="line"/>
      <point x="253" y="714" type="line"/>
      <point x="65" y="714" type="line"/>
      <point x="89" y="253" type="line"/>
    </contour>
    <contour>
      <point x="66" y="81" type="curve" smooth="yes"/>
      <point x="66" y="22"/>
      <point x="102" y="-12"/>
      <point x="159" y="-12" type="curve" smooth="yes"/>
      <point x="215" y="-12"/>
      <point x="250" y="22"/>
      <point x="250" y="81" type="curve" smooth="yes"/>
      <point x="250" y="141"/>
      <point x="217" y="176"/>
      <point x="159" y="176" type="curve" smooth="yes"/>
      <point x="98" y="176"/>
      <point x="66" y="141"/>
    </contour>
  </outline>
</glyph>
<glyph name="quotedbl.sinh" format="2">
  <advance width="513"/>
  <unicode hex="0022"/>
  <outline>
    <contour>
      <point x="231" y="799" type="line"/>
      <point x="62" y="799" type="line"/>
      <point x="82" y="541" type="line"/>
      <point x="211" y="541" type="line"/>
    </contour>
    <contour>
      <point x="451" y="799" type="line"/>
      <point x="282" y="799" type="line"/>
      <point x="302" y="541" type="line"/>
      <point x="431" y="541" type="line"/>
    </contour>
  </outline>
</glyph>
<glyph name="numbersign.sinh" format="2">
  <advance width="552"/>
  <unicode hex="0023"/>
  <outline>
    <contour>
      <point x="440" y="409" type="line"/>
      <point x="531" y="409" type="line"/>
      <point x="531" y="522" type="line"/>
      <point x="461" y="522" type="line"/>
      <point x="498" y="714" type="line"/>
      <point x="381" y="714" type="line"/>
      <point x="344" y="522" type="line"/>
      <point x="270" y="522" type="line"/>
      <point x="307" y="714" type="line"/>
      <point x="190" y="714" type="line"/>
      <point x="153" y="522" type="line"/>
      <point x="44" y="522" type="line"/>
      <point x="44" y="409" type="line"/>
      <point x="132" y="409" type="line"/>
      <point x="112" y="305" type="line"/>
      <point x="21" y="305" type="line"/>
      <point x="21" y="192" type="line"/>
      <point x="90" y="192" type="line"/>
      <point x="54" y="0" type="line"/>
      <point x="171" y="0" type="line"/>
      <point x="207" y="192" type="line"/>
      <point x="281" y="192" type="line"/>
      <point x="245" y="0" type="line"/>
      <point x="362" y="0" type="line"/>
      <point x="398" y="192" type="line"/>
      <point x="508" y="192" type="line"/>
      <point x="508" y="305" type="line"/>
      <point x="420" y="305" type="line"/>
    </contour>
    <contour>
      <point x="229" y="305" type="line"/>
      <point x="249" y="409" type="line"/>
      <point x="323" y="409" type="line"/>
      <point x="303" y="305" type="line"/>
    </contour>
  </outline>
</glyph>
<glyph name="quotesingle.sinh" format="2">
  <advance width="293"/>
  <unicode hex="0027"/>
  <outline>
    <contour>
      <point x="231" y="799" type="line"/>
      <point x="62" y="799" type="line"/>
      <point x="82" y="541" type="line"/>
      <point x="211" y="541" type="line"/>
    </contour>
  </outline>
</glyph>
<glyph name="parenleft.sinh" format="2">
  <advance width="376"/>
  <unicode hex="0028"/>
  <outline>
    <contour>
      <point x="50" y="292" type="curve" smooth="yes"/>
      <point x="50" y="101"/>
      <point x="100" y="-73"/>
      <point x="197" y="-216" type="curve"/>
      <point x="350" y="-216" type="line"/>
      <point x="260" y="-57"/>
      <point x="212" y="105"/>
      <point x="212" y="292" type="curve" smooth="yes"/>
      <point x="212" y="478"/>
      <point x="260" y="640"/>
      <point x="350" y="799" type="curve"/>
      <point x="197" y="799" type="line"/>
      <point x="100" y="656"/>
      <point x="50" y="482"/>
    </contour>
  </outline>
</glyph>
<glyph name="parenright.sinh" format="2">
  <advance width="376"/>
  <unicode hex="0029"/>
  <outline>
    <contour>
      <point x="326" y="291" type="curve"/>
      <point x="326" y="482"/>
      <point x="276" y="656"/>
      <point x="179" y="799" type="curve"/>
      <point x="26" y="799" type="line"/>
      <point x="116" y="640"/>
      <point x="164" y="478"/>
      <point x="164" y="291" type="curve" smooth="yes"/>
      <point x="164" y="105"/>
      <point x="116" y="-57"/>
      <point x="26" y="-216" type="curve"/>
      <point x="179" y="-216" type="line"/>
      <point x="276" y="-73"/>
      <point x="326" y="101"/>
    </contour>
  </outline>
</glyph>
<glyph name="asterisk.sinh" format="2">
  <advance width="544"/>
  <unicode hex="002A"/>
  <outline>
    <contour>
      <point x="343" y="799" type="line"/>
      <point x="201" y="799" type="line"/>
      <point x="219" y="634" type="line"/>
      <point x="56" y="681" type="line"/>
      <point x="35" y="545" type="line"/>
      <point x="182" y="533" type="line"/>
      <point x="85" y="403" type="line"/>
      <point x="212" y="340" type="line"/>
      <point x="270" y="471" type="line"/>
      <point x="337" y="339" type="line"/>
      <point x="459" y="403" type="line"/>
      <point x="362" y="533" type="line"/>
      <point x="509" y="543" type="line"/>
      <point x="492" y="681" type="line"/>
      <point x="325" y="634" type="line"/>
    </contour>
  </outline>
</glyph>
<glyph name="plus.sinh" format="2">
  <advance width="496"/>
  <unicode hex="002B"/>
  <outline>
    <contour>
      <point x="181" y="288" type="line"/>
      <point x="181" y="111" type="line"/>
      <point x="314" y="111" type="line"/>
      <point x="314" y="288" type="line"/>
      <point x="462" y="288" type="line"/>
      <point x="462" y="417" type="line"/>
      <point x="314" y="417" type="line"/>
      <point x="314" y="597" type="line"/>
      <point x="181" y="597" type="line"/>
      <point x="181" y="417" type="line"/>
      <point x="34" y="417" type="line"/>
      <point x="34" y="288" type="line"/>
    </contour>
  </outline>
</glyph>
<glyph name="comma.sinh" format="2">
  <advance width="288"/>
  <unicode hex="002C"/>
  <outline>
    <contour>
      <point x="235" y="146" type="line"/>
      <point x="76" y="146" type="line"/>
      <point x="72" y="71"/>
      <point x="54" y="-62"/>
      <point x="40" y="-139" type="curve"/>
      <point x="175" y="-139" type="line"/>
      <point x="204" y="-66"/>
      <point x="225" y="25"/>
      <point x="240" y="135" type="curve"/>
    </contour>
  </outline>
</glyph>
<glyph name="hyphen.sinh" format="2">
  <advance width="342"/>
  <unicode hex="002D"/>
  <outline>
    <contour>
      <point x="38" y="244" type="line"/>
      <point x="304" y="244" type="line"/>
      <point x="304" y="389" type="line"/>
      <point x="38" y="389" type="line"/>
    </contour>
  </outline>
</glyph>
<glyph name="period.sinh" format="2">
  <advance width="288"/>
  <unicode hex="002E"/>
  <outline>
    <contour>
      <point x="52" y="81" type="curve" smooth="yes"/>
      <point x="52" y="22"/>
      <point x="88" y="-12"/>
      <point x="145" y="-12" type="curve" smooth="yes"/>
      <point x="202" y="-12"/>
      <point x="236" y="22"/>
      <point x="236" y="81" type="curve" smooth="yes"/>
      <point x="236" y="141"/>
      <point x="203" y="176"/>
      <point x="145" y="176" type="curve" smooth="yes"/>
      <point x="85" y="176"/>
      <point x="52" y="141"/>
    </contour>
  </outline>
</glyph>
<glyph name="slash.sinh" format="2">
  <advance width="474"/>
  <unicode hex="002F"/>
  <outline>
    <contour>
      <point x="445" y="800" type="line"/>
      <point x="292" y="800" type="line"/>
      <point x="29" y="-216" type="line"/>
      <point x="182" y="-216" type="line"/>
    </contour>
  </outline>
</glyph>
<glyph name="four.sinh" format="2">
  <advance width="496"/>
  <unicode hex="0034"/>
  <outline>
    <contour>
      <point x="481" y="138" type="line"/>
      <point x="481" y="275" type="line"/>
      <point x="414" y="275" type="line"/>
      <point x="414" y="714" type="line"/>
      <point x="253" y="714" type="line"/>
      <point x="17" y="272" type="line"/>
      <point x="17" y="138" type="line"/>
      <point x="249" y="138" type="line"/>
      <point x="249" y="0" type="line"/>
      <point x="414" y="0" type="line"/>
      <point x="414" y="138" type="line"/>
    </contour>
    <contour>
      <point x="249" y="275" type="line"/>
      <point x="151" y="275" type="line"/>
      <point x="212" y="392" type="line" smooth="yes"/>
      <point x="227" y="419"/>
      <point x="240" y="448"/>
      <point x="248" y="476" type="curve"/>
      <point x="252" y="476" type="line"/>
      <point x="251" y="462"/>
      <point x="249" y="437"/>
      <point x="249" y="404" type="curve" smooth="yes"/>
    </contour>
  </outline>
</glyph>
<glyph name="five.sinh" format="2">
  <advance width="496"/>
  <unicode hex="0035"/>
  <outline>
    <contour>
      <point x="265" y="466" type="curve" smooth="yes"/>
      <point x="245" y="466"/>
      <point x="230" y="465"/>
      <point x="210" y="462" type="curve"/>
      <point x="217" y="566" type="line"/>
      <point x="416" y="566" type="line"/>
      <point x="416" y="714" type="line"/>
      <point x="76" y="714" type="line"/>
      <point x="53" y="359" type="line"/>
      <point x="108" y="312" type="line"/>
      <point x="136" y="322"/>
      <point x="165" y="327"/>
      <point x="193" y="327" type="curve" smooth="yes"/>
      <point x="256" y="327"/>
      <point x="286" y="292"/>
      <point x="286" y="233" type="curve" smooth="yes"/>
      <point x="286" y="167"/>
      <point x="254" y="135"/>
      <point x="186" y="135" type="curve" smooth="yes"/>
      <point x="125" y="135"/>
      <point x="86" y="149"/>
      <point x="46" y="170" type="curve"/>
      <point x="46" y="20" type="line"/>
      <point x="86" y="2"/>
      <point x="151" y="-10"/>
      <point x="206" y="-10" type="curve" smooth="yes"/>
      <point x="373" y="-10"/>
      <point x="454" y="78"/>
      <point x="454" y="242" type="curve" smooth="yes"/>
      <point x="454" y="377"/>
      <point x="382" y="466"/>
    </contour>
  </outline>
</glyph>
<glyph name="seven.sinh" format="2">
  <advance width="496"/>
  <unicode hex="0037"/>
  <outline>
    <contour>
      <point x="85" y="0" type="line"/>
      <point x="263" y="0" type="line"/>
      <point x="463" y="599" type="line"/>
      <point x="463" y="714" type="line"/>
      <point x="28" y="714" type="line"/>
      <point x="28" y="566" type="line"/>
      <point x="292" y="566" type="line"/>
    </contour>
  </outline>
</glyph>
<glyph name="colon.sinh" format="2">
  <advance width="311"/>
  <unicode hex="003A"/>
  <outline>
    <contour>
      <point x="64" y="81" type="curve" smooth="yes"/>
      <point x="64" y="22"/>
      <point x="99" y="-12"/>
      <point x="157" y="-12" type="curve" smooth="yes"/>
      <point x="214" y="-12"/>
      <point x="247" y="22"/>
      <point x="247" y="81" type="curve" smooth="yes"/>
      <point x="247" y="141"/>
      <point x="216" y="176"/>
      <point x="157" y="176" type="curve" smooth="yes"/>
      <point x="96" y="176"/>
      <point x="64" y="141"/>
    </contour>
    <contour>
      <point x="64" y="440" type="curve" smooth="yes"/>
      <point x="64" y="381"/>
      <point x="99" y="347"/>
      <point x="157" y="347" type="curve" smooth="yes"/>
      <point x="214" y="347"/>
      <point x="247" y="381"/>
      <point x="247" y="440" type="curve" smooth="yes"/>
      <point x="247" y="500"/>
      <point x="216" y="534"/>
      <point x="157" y="534" type="curve" smooth="yes"/>
      <point x="96" y="534"/>
      <point x="64" y="500"/>
    </contour>
  </outline>
</glyph>
<glyph name="semicolon.sinh" format="2">
  <advance width="311"/>
  <unicode hex="003B"/>
  <outline>
    <contour>
      <point x="241" y="146" type="line"/>
      <point x="82" y="146" type="line"/>
      <point x="76" y="69"/>
      <point x="61" y="-60"/>
      <point x="45" y="-139" type="curve"/>
      <point x="181" y="-139" type="line"/>
      <point x="209" y="-66"/>
      <point x="231" y="25"/>
      <point x="246" y="135" type="curve"/>
    </contour>
    <contour>
      <point x="64" y="440" type="curve" smooth="yes"/>
      <point x="64" y="381"/>
      <point x="99" y="347"/>
      <point x="157" y="347" type="curve" smooth="yes"/>
      <point x="214" y="347"/>
      <point x="247" y="381"/>
      <point x="247" y="440" type="curve" smooth="yes"/>
      <point x="247" y="500"/>
      <point x="216" y="534"/>
      <point x="157" y="534" type="curve" smooth="yes"/>
      <point x="96" y="534"/>
      <point x="64" y="500"/>
    </contour>
  </outline>
</glyph>
<glyph name="equal.sinh" format="2">
  <advance width="496"/>
  <unicode hex="003D"/>
  <outline>
    <contour>
      <point x="34" y="399" type="line"/>
      <point x="462" y="399" type="line"/>
      <point x="462" y="528" type="line"/>
      <point x="34" y="528" type="line"/>
    </contour>
    <contour>
      <point x="34" y="177" type="line"/>
      <point x="462" y="177" type="line"/>
      <point x="462" y="306" type="line"/>
      <point x="34" y="306" type="line"/>
    </contour>
  </outline>
</glyph>
<glyph name="question.sinh" format="2">
  <advance width="422"/>
  <unicode hex="003F"/>
  <outline>
    <contour>
      <point x="114" y="253" type="line"/>
      <point x="251" y="253" type="line"/>
      <point x="251" y="263" type="line" smooth="yes"/>
      <point x="251" y="290"/>
      <point x="257" y="311"/>
      <point x="294" y="345" type="curve" smooth="yes"/>
      <point x="365" y="411"/>
      <point x="396" y="468"/>
      <point x="396" y="551" type="curve" smooth="yes"/>
      <point x="396" y="655"/>
      <point x="327" y="724"/>
      <point x="196" y="724" type="curve" smooth="yes"/>
      <point x="135" y="724"/>
      <point x="79" y="706"/>
      <point x="18" y="673" type="curve"/>
      <point x="78" y="550" type="line"/>
      <point x="105" y="565"/>
      <point x="143" y="579"/>
      <point x="173" y="579" type="curve" smooth="yes"/>
      <point x="213" y="579"/>
      <point x="237" y="561"/>
      <point x="237" y="526" type="curve" smooth="yes"/>
      <point x="237" y="488"/>
      <point x="215" y="463"/>
      <point x="178" y="428" type="curve" smooth="yes"/>
      <point x="132" y="384"/>
      <point x="114" y="348"/>
      <point x="114" y="276" type="curve" smooth="yes"/>
    </contour>
    <contour>
      <point x="90" y="81" type="curve" smooth="yes"/>
      <point x="90" y="22"/>
      <point x="126" y="-12"/>
      <point x="183" y="-12" type="curve" smooth="yes"/>
      <point x="241" y="-12"/>
      <point x="274" y="22"/>
      <point x="274" y="81" type="curve" smooth="yes"/>
      <point x="274" y="141"/>
      <point x="242" y="176"/>
      <point x="183" y="176" type="curve" smooth="yes"/>
      <point x="123" y="176"/>
      <point x="90" y="141"/>
    </contour>
  </outline>
</glyph>
<glyph name="bracketleft.sinh" format="2">
  <advance width="365"/>
  <unicode hex="005B"/>
  <outline>
    <contour>
      <point x="323" y="-216" type="line"/>
      <point x="323" y="-92" type="line"/>
      <point x="222" y="-92" type="line"/>
      <point x="222" y="675" type="line"/>
      <point x="323" y="675" type="line"/>
      <point x="323" y="799" type="line"/>
      <point x="72" y="799" type="line"/>
      <point x="72" y="-216" type="line"/>
    </contour>
  </outline>
</glyph>
<glyph name="backslash.sinh" format="2">
  <advance width="492"/>
  <unicode hex="005C"/>
  <outline>
    <contour>
      <point x="187" y="801" type="line"/>
      <point x="29" y="801" type="line"/>
      <point x="305" y="-216" type="line"/>
      <point x="463" y="-216" type="line"/>
    </contour>
  </outline>
</glyph>
<glyph name="bracketright.sinh" format="2">
  <advance width="365"/>
  <unicode hex="005D"/>
  <outline>
    <contour>
      <point x="42" y="-92" type="line"/>
      <point x="42" y="-216" type="line"/>
      <point x="293" y="-216" type="line"/>
      <point x="293" y="799" type="line"/>
      <point x="42" y="799" type="line"/>
      <point x="42" y="675" type="line"/>
      <point x="143" y="675" type="line"/>
      <point x="143" y="-92" type="line"/>
    </contour>
  </outline>
</glyph>
<glyph name="braceleft.sinh" format="2">
  <advance width="430"/>
  <unicode hex="007B"/>
  <outline>
    <contour>
      <point x="390" y="-216" type="curve"/>
      <point x="390" y="-82" type="line"/>
      <point x="319" y="-82"/>
      <point x="297" y="-68"/>
      <point x="297" y="-22" type="curve" smooth="yes"/>
      <point x="297" y="151" type="line" smooth="yes"/>
      <point x="297" y="227"/>
      <point x="256" y="263"/>
      <point x="180" y="275" type="curve"/>
      <point x="180" y="281" type="line"/>
      <point x="256" y="293"/>
      <point x="297" y="329"/>
      <point x="297" y="405" type="curve" smooth="yes"/>
      <point x="297" y="605" type="line" smooth="yes"/>
      <point x="297" y="651"/>
      <point x="319" y="665"/>
      <point x="390" y="665" type="curve"/>
      <point x="390" y="799" type="line"/>
      <point x="190" y="799"/>
      <point x="144" y="748"/>
      <point x="144" y="631" type="curve" smooth="yes"/>
      <point x="144" y="434" type="line" smooth="yes"/>
      <point x="144" y="374"/>
      <point x="112" y="355"/>
      <point x="24" y="351" type="curve"/>
      <point x="24" y="205" type="line"/>
      <point x="112" y="201"/>
      <point x="144" y="182"/>
      <point x="144" y="122" type="curve" smooth="yes"/>
      <point x="144" y="-48" type="line" smooth="yes"/>
      <point x="144" y="-165"/>
      <point x="190" y="-216"/>
    </contour>
  </outline>
</glyph>
<glyph name="braceright.sinh" format="2">
  <advance width="430"/>
  <unicode hex="007D"/>
  <outline>
    <contour>
      <point x="40" y="799" type="curve"/>
      <point x="40" y="665" type="line"/>
      <point x="111" y="665"/>
      <point x="133" y="651"/>
      <point x="133" y="605" type="curve" smooth="yes"/>
      <point x="133" y="432" type="line" smooth="yes"/>
      <point x="133" y="356"/>
      <point x="174" y="320"/>
      <point x="250" y="308" type="curve"/>
      <point x="250" y="302" type="line"/>
      <point x="174" y="290"/>
      <point x="133" y="254"/>
      <point x="133" y="178" type="curve" smooth="yes"/>
      <point x="133" y="-22" type="line" smooth="yes"/>
      <point x="133" y="-68"/>
      <point x="111" y="-82"/>
      <point x="40" y="-82" type="curve"/>
      <point x="40" y="-216" type="line"/>
      <point x="240" y="-216"/>
      <point x="286" y="-165"/>
      <point x="286" y="-48" type="curve" smooth="yes"/>
      <point x="286" y="149" type="line" smooth="yes"/>
      <point x="286" y="209"/>
      <point x="318" y="228"/>
      <point x="406" y="232" type="curve"/>
      <point x="406" y="378" type="line"/>
      <point x="318" y="382"/>
      <point x="286" y="401"/>
      <point x="286" y="461" type="curve" smooth="yes"/>
      <point x="286" y="631" type="line" smooth="yes"/>
      <point x="286" y="748"/>
      <point x="240" y="799"/>
    </contour>
  </outline>
</glyph>
<glyph name="multiply.sinh" format="2">
  <advance width="496"/>
  <unicode hex="00D7"/>
  <outline>
    <contour>
      <point x="29" y="225" type="line"/>
      <point x="120" y="134" type="line"/>
      <point x="247" y="263" type="line"/>
      <point x="375" y="134" type="line"/>
      <point x="466" y="225" type="line"/>
      <point x="336" y="352" type="line"/>
      <point x="466" y="479" type="line"/>
      <point x="375" y="570" type="line"/>
      <point x="247" y="441" type="line"/>
      <point x="120" y="570" type="line"/>
      <point x="29" y="479" type="line"/>
      <point x="158" y="352" type="line"/>
    </contour>
  </outline>
</glyph>
<glyph name="divide.sinh" format="2">
  <advance width="496"/>
  <unicode hex="00F7"/>
  <outline>
    <contour>
      <point x="34" y="288" type="line"/>
      <point x="462" y="288" type="line"/>
      <point x="462" y="417" type="line"/>
      <point x="34" y="417" type="line"/>
    </contour>
    <contour>
      <point x="168" y="155" type="curve" smooth="yes"/>
      <point x="168" y="100"/>
      <point x="199" y="69"/>
      <point x="248" y="69" type="curve" smooth="yes"/>
      <point x="298" y="69"/>
      <point x="327" y="101"/>
      <point x="327" y="155" type="curve" smooth="yes"/>
      <point x="327" y="210"/>
      <point x="300" y="241"/>
      <point x="248" y="241" type="curve" smooth="yes"/>
      <point x="196" y="241"/>
      <point x="168" y="210"/>
    </contour>
    <contour>
      <point x="168" y="550" type="curve" smooth="yes"/>
      <point x="168" y="495"/>
      <point x="199" y="464"/>
      <point x="248" y="464" type="curve" smooth="yes"/>
      <point x="298" y="464"/>
      <point x="327" y="496"/>
      <point x="327" y="550" type="curve" smooth="yes"/>
      <point x="327" y="605"/>
      <point x="300" y="636"/>
      <point x="248" y="636" type="curve" smooth="yes"/>
      <point x="196" y="636"/>
      <point x="168" y="605"/>
    </contour>
  </outline>
</glyph>
<glyph name="danda.sinh" format="2">
  <advance width="389"/>
  <unicode hex="0964"/>
  <outline>
    <contour>
      <point x="150" y="662" type="line"/>
      <point x="150" y="-50" type="line"/>
      <point x="289" y="-50" type="line"/>
      <point x="289" y="662" type="line"/>
    </contour>
  </outline>
</glyph>
<glyph name="dbldanda.sinh" format="2">
  <advance width="592"/>
  <unicode hex="0965"/>
  <outline>
    <contour>
      <point x="150" y="662" type="line"/>
      <point x="150" y="-50" type="line"/>
      <point x="289" y="-50" type="line"/>
      <point x="289" y="662" type="line"/>
    </contour>
    <contour>
      <point x="353" y="662" type="line"/>
      <point x="353" y="-50" type="line"/>
      <point x="492" y="-50" type="line"/>
      <point x="492" y="662" type="line"/>
    </contour>
  </outline>
</glyph>
<glyph name="anusvarasinh" format="2">
  <advance width="431"/>
  <unicode hex="0D82"/>
  <outline>
    <contour>
      <point x="20" y="266" type="curve" smooth="yes"/>
      <point x="20" y="130"/>
      <point x="86" y="43"/>
      <point x="215" y="43" type="curve" smooth="yes"/>
      <point x="344" y="43"/>
      <point x="411" y="130"/>
      <point x="411" y="266" type="curve" smooth="yes"/>
      <point x="411" y="399"/>
      <point x="344" y="489"/>
      <point x="216" y="489" type="curve" smooth="yes"/>
      <point x="88" y="489"/>
      <point x="20" y="399"/>
    </contour>
    <contour>
      <point x="153" y="277" type="curve" smooth="yes"/>
      <point x="153" y="336"/>
      <point x="172" y="371"/>
      <point x="215" y="371" type="curve" smooth="yes"/>
      <point x="258" y="371"/>
      <point x="278" y="336"/>
      <point x="278" y="277" type="curve" smooth="yes"/>
      <point x="278" y="219"/>
      <point x="258" y="184"/>
      <point x="215" y="184" type="curve" smooth="yes"/>
      <point x="172" y="184"/>
      <point x="153" y="218"/>
    </contour>
  </outline>
</glyph>
<glyph name="visargasinh" format="2">
  <advance width="267"/>
  <unicode hex="0D83"/>
  <outline>
    <contour>
      <point x="249" y="424" type="curve" smooth="yes"/>
      <point x="249" y="508"/>
      <point x="204" y="556"/>
      <point x="133" y="556" type="curve" smooth="yes"/>
      <point x="64" y="556"/>
      <point x="18" y="509"/>
      <point x="18" y="423" type="curve" smooth="yes"/>
      <point x="18" y="341"/>
      <point x="59" y="289"/>
      <point x="133" y="289" type="curve" smooth="yes"/>
      <point x="203" y="289"/>
      <point x="249" y="336"/>
    </contour>
    <contour>
      <point x="160" y="423" type="curve" smooth="yes"/>
      <point x="160" y="396"/>
      <point x="151" y="382"/>
      <point x="133" y="382" type="curve" smooth="yes"/>
      <point x="112" y="382"/>
      <point x="107" y="402"/>
      <point x="107" y="423" type="curve" smooth="yes"/>
      <point x="107" y="447"/>
      <point x="115" y="463"/>
      <point x="133" y="463" type="curve" smooth="yes"/>
      <point x="153" y="463"/>
      <point x="160" y="445"/>
    </contour>
    <contour>
      <point x="249" y="135" type="curve" smooth="yes"/>
      <point x="249" y="219"/>
      <point x="204" y="267"/>
      <point x="133" y="267" type="curve" smooth="yes"/>
      <point x="64" y="267"/>
      <point x="18" y="220"/>
      <point x="18" y="134" type="curve" smooth="yes"/>
      <point x="18" y="52"/>
      <point x="59" y="0"/>
      <point x="133" y="0" type="curve" smooth="yes"/>
      <point x="203" y="0"/>
      <point x="249" y="47"/>
    </contour>
    <contour>
      <point x="160" y="134" type="curve" smooth="yes"/>
      <point x="160" y="107"/>
      <point x="151" y="93"/>
      <point x="133" y="93" type="curve" smooth="yes"/>
      <point x="112" y="93"/>
      <point x="107" y="113"/>
      <point x="107" y="134" type="curve" smooth="yes"/>
      <point x="107" y="158"/>
      <point x="115" y="174"/>
      <point x="133" y="174" type="curve" smooth="yes"/>
      <point x="153" y="174"/>
      <point x="160" y="156"/>
    </contour>
  </outline>
</glyph>
<glyph name="asinh" format="2">
  <advance width="628"/>
  <unicode hex="0D85"/>
  <outline>
    <contour>
      <point x="301" y="-11" type="curve" smooth="yes"/>
      <point x="443" y="-11"/>
      <point x="502" y="11"/>
      <point x="565" y="41" type="curve"/>
      <point x="525" y="158" type="line"/>
      <point x="492" y="140"/>
      <point x="462" y="130"/>
      <point x="427" y="124" type="curve"/>
      <point x="391" y="122" type="line"/>
      <point x="370" y="120"/>
      <point x="348" y="119"/>
      <point x="324" y="119" type="curve" smooth="yes"/>
      <point x="242" y="119"/>
      <point x="189" y="149"/>
      <point x="189" y="230" type="curve" smooth="yes"/>
      <point x="189" y="269"/>
      <point x="207" y="296"/>
      <point x="232" y="312" type="curve" smooth="yes"/>
      <point x="262" y="331"/>
      <point x="308" y="338"/>
      <point x="372" y="338" type="curve" smooth="yes"/>
      <point x="447" y="338" type="line"/>
      <point x="447" y="402" type="line" smooth="yes"/>
      <point x="447" y="533"/>
      <point x="412" y="622"/>
      <point x="304" y="622" type="curve" smooth="yes"/>
      <point x="204" y="622"/>
      <point x="160" y="575"/>
      <point x="160" y="493" type="curve" smooth="yes"/>
      <point x="160" y="481"/>
      <point x="161" y="466"/>
      <point x="162" y="458" type="curve"/>
      <point x="284" y="466" type="line"/>
      <point x="284" y="469"/>
      <point x="284" y="473"/>
      <point x="284" y="476" type="curve" smooth="yes"/>
      <point x="284" y="498"/>
      <point x="293" y="508"/>
      <point x="307" y="508" type="curve" smooth="yes"/>
      <point x="325" y="508"/>
      <point x="331" y="494"/>
      <point x="334" y="455" type="curve"/>
      <point x="343" y="455" type="line" smooth="yes"/>
      <point x="233" y="455"/>
      <point x="162" y="438"/>
      <point x="107" y="401" type="curve" smooth="yes"/>
      <point x="52" y="364"/>
      <point x="19" y="304"/>
      <point x="19" y="226" type="curve" smooth="yes"/>
      <point x="19" y="79"/>
      <point x="105" y="-11"/>
    </contour>
    <contour>
      <point x="334" y="-202" type="line"/>
      <point x="466" y="-202" type="line"/>
      <point x="466" y="412" type="line" smooth="yes"/>
      <point x="466" y="455"/>
      <point x="473" y="473"/>
      <point x="489" y="498" type="curve" smooth="yes"/>
      <point x="496" y="509"/>
      <point x="522" y="532"/>
      <point x="551" y="553" type="curve"/>
      <point x="446" y="623" type="line"/>
      <point x="387" y="547"/>
      <point x="344" y="489"/>
      <point x="334" y="387" type="curve"/>
    </contour>
    <contour>
      <point x="483" y="232" type="curve" smooth="yes"/>
      <point x="560" y="232"/>
      <point x="617" y="265"/>
      <point x="617" y="351" type="curve" smooth="yes"/>
      <point x="617" y="398"/>
      <point x="605" y="425"/>
      <point x="570" y="474" type="curve" smooth="yes"/>
      <point x="554" y="496"/>
      <point x="547" y="517"/>
      <point x="547" y="533" type="curve" smooth="yes"/>
      <point x="547" y="540"/>
      <point x="548" y="547"/>
      <point x="551" y="553" type="curve"/>
      <point x="455" y="518" type="line"/>
      <point x="455" y="479"/>
      <point x="463" y="452"/>
      <point x="485" y="423" type="curve"/>
      <point x="500" y="402"/>
      <point x="505" y="388"/>
      <point x="505" y="371" type="curve" smooth="yes"/>
      <point x="505" y="347"/>
      <point x="489" y="341"/>
      <point x="472" y="341" type="curve" smooth="yes"/>
      <point x="452" y="341"/>
      <point x="430" y="348"/>
      <point x="404" y="364" type="curve"/>
      <point x="375" y="261" type="line"/>
      <point x="405" y="243"/>
      <point x="443" y="232"/>
    </contour>
  </outline>
</glyph>
<glyph name="isinh" format="2">
  <advance width="680"/>
  <unicode hex="0D89"/>
  <outline>
    <contour>
      <point x="265" y="58" type="curve" smooth="yes"/>
      <point x="401" y="58"/>
      <point x="472" y="149"/>
      <point x="472" y="276" type="curve" smooth="yes"/>
      <point x="472" y="396"/>
      <point x="418" y="452"/>
      <point x="328" y="452" type="curve" smooth="yes"/>
      <point x="242" y="452"/>
      <point x="196" y="394"/>
      <point x="196" y="325" type="curve" smooth="yes"/>
      <point x="196" y="249"/>
      <point x="243" y="201"/>
      <point x="320" y="201" type="curve" smooth="yes"/>
      <point x="351" y="201"/>
      <point x="383" y="222"/>
      <point x="396" y="238" type="curve"/>
      <point x="362" y="305" type="line"/>
      <point x="346" y="295"/>
      <point x="341" y="293"/>
      <point x="325" y="293" type="curve" smooth="yes"/>
      <point x="311" y="293"/>
      <point x="301" y="303"/>
      <point x="301" y="325" type="curve" smooth="yes"/>
      <point x="301" y="345"/>
      <point x="313" y="357"/>
      <point x="327" y="357" type="curve" smooth="yes"/>
      <point x="345" y="357"/>
      <point x="354" y="343"/>
      <point x="354" y="292" type="curve"/>
      <point x="362" y="257" type="line"/>
      <point x="356" y="198"/>
      <point x="326" y="178"/>
      <point x="270" y="178" type="curve" smooth="yes"/>
      <point x="205" y="178"/>
      <point x="156" y="222"/>
      <point x="156" y="320" type="curve" smooth="yes"/>
      <point x="156" y="419"/>
      <point x="215" y="492"/>
      <point x="335" y="492" type="curve" smooth="yes"/>
      <point x="472" y="492"/>
      <point x="520" y="396"/>
      <point x="520" y="298" type="curve" smooth="yes"/>
      <point x="520" y="179"/>
      <point x="463" y="129"/>
      <point x="369" y="115" type="curve"/>
      <point x="370" y="-11" type="line"/>
      <point x="539" y="-11"/>
      <point x="658" y="92"/>
      <point x="658" y="299" type="curve" smooth="yes"/>
      <point x="658" y="494"/>
      <point x="539" y="622"/>
      <point x="342" y="622" type="curve" smooth="yes"/>
      <point x="168" y="622"/>
      <point x="21" y="522"/>
      <point x="21" y="323" type="curve" smooth="yes"/>
      <point x="21" y="154"/>
      <point x="116" y="58"/>
    </contour>
    <contour>
      <point x="344" y="-232" type="curve" smooth="yes"/>
      <point x="481" y="-232"/>
      <point x="543" y="-162"/>
      <point x="543" y="-52" type="curve" smooth="yes"/>
      <point x="543" y="2"/>
      <point x="532" y="37"/>
      <point x="519" y="67" type="curve"/>
      <point x="397" y="64" type="line"/>
      <point x="389" y="30" type="line"/>
      <point x="399" y="6"/>
      <point x="405" y="-9"/>
      <point x="405" y="-39" type="curve" smooth="yes"/>
      <point x="405" y="-79"/>
      <point x="386" y="-104"/>
      <point x="344" y="-104" type="curve" smooth="yes"/>
      <point x="295" y="-104"/>
      <point x="282" y="-74"/>
      <point x="282" y="-28" type="curve" smooth="yes"/>
      <point x="282" y="-19"/>
      <point x="282" y="-12"/>
      <point x="283" y="-4" type="curve"/>
      <point x="148" y="2" type="line"/>
      <point x="147" y="-10"/>
      <point x="146" y="-24"/>
      <point x="146" y="-32" type="curve" smooth="yes"/>
      <point x="146" y="-143"/>
      <point x="197" y="-232"/>
    </contour>
  </outline>
</glyph>
<glyph name="iisinh" format="2">
  <advance width="572"/>
  <unicode hex="0D8A"/>
  <outline>
    <contour>
      <point x="283" y="-11" type="curve" smooth="yes"/>
      <point x="464" y="-11"/>
      <point x="550" y="99"/>
      <point x="550" y="302" type="curve" smooth="yes"/>
      <point x="550" y="466"/>
      <point x="453" y="564"/>
      <point x="332" y="564" type="curve" smooth="yes"/>
      <point x="313" y="564"/>
      <point x="274" y="563"/>
      <point x="247" y="555" type="curve"/>
      <point x="149" y="434" type="line"/>
      <point x="188" y="451"/>
      <point x="236" y="461"/>
      <point x="280" y="461" type="curve" smooth="yes"/>
      <point x="368" y="461"/>
      <point x="413" y="416"/>
      <point x="413" y="318" type="curve" smooth="yes"/>
      <point x="413" y="218"/>
      <point x="371" y="164"/>
      <point x="284" y="164" type="curve" smooth="yes"/>
      <point x="193" y="164"/>
      <point x="159" y="221"/>
      <point x="159" y="306" type="curve" smooth="yes"/>
      <point x="159" y="392"/>
      <point x="212" y="453"/>
      <point x="297" y="501" type="curve"/>
      <point x="324" y="551" type="line"/>
      <point x="382" y="593"/>
      <point x="427" y="672"/>
      <point x="470" y="759" type="curve"/>
      <point x="348" y="811" type="line"/>
      <point x="309" y="719"/>
      <point x="266" y="644"/>
      <point x="216" y="592" type="curve"/>
      <point x="70" y="504"/>
      <point x="22" y="415"/>
      <point x="22" y="278" type="curve" smooth="yes"/>
      <point x="22" y="88"/>
      <point x="132" y="-11"/>
    </contour>
    <contour>
      <point x="266" y="705" type="curve" smooth="yes"/>
      <point x="266" y="771"/>
      <point x="231" y="810"/>
      <point x="174" y="810" type="curve" smooth="yes"/>
      <point x="119" y="810"/>
      <point x="83" y="772"/>
      <point x="83" y="704" type="curve" smooth="yes"/>
      <point x="83" y="639"/>
      <point x="115" y="597"/>
      <point x="174" y="597" type="curve" smooth="yes"/>
      <point x="230" y="597"/>
      <point x="266" y="635"/>
    </contour>
    <contour>
      <point x="196" y="704" type="curve" smooth="yes"/>
      <point x="196" y="682"/>
      <point x="188" y="671"/>
      <point x="174" y="671" type="curve" smooth="yes"/>
      <point x="157" y="671"/>
      <point x="153" y="687"/>
      <point x="153" y="704" type="curve" smooth="yes"/>
      <point x="153" y="723"/>
      <point x="160" y="736"/>
      <point x="174" y="736" type="curve" smooth="yes"/>
      <point x="190" y="736"/>
      <point x="196" y="721"/>
    </contour>
    <contour>
      <point x="602" y="620" type="curve" smooth="yes"/>
      <point x="602" y="686"/>
      <point x="567" y="725"/>
      <point x="510" y="725" type="curve" smooth="yes"/>
      <point x="455" y="725"/>
      <point x="419" y="687"/>
      <point x="419" y="619" type="curve" smooth="yes"/>
      <point x="419" y="554"/>
      <point x="451" y="512"/>
      <point x="510" y="512" type="curve" smooth="yes"/>
      <point x="566" y="512"/>
      <point x="602" y="550"/>
    </contour>
    <contour>
      <point x="532" y="621" type="curve" smooth="yes"/>
      <point x="532" y="599"/>
      <point x="524" y="588"/>
      <point x="510" y="588" type="curve" smooth="yes"/>
      <point x="493" y="588"/>
      <point x="489" y="604"/>
      <point x="489" y="621" type="curve" smooth="yes"/>
      <point x="489" y="640"/>
      <point x="496" y="653"/>
      <point x="510" y="653" type="curve" smooth="yes"/>
      <point x="526" y="653"/>
      <point x="532" y="638"/>
    </contour>
  </outline>
</glyph>
<glyph name="usinh" format="2">
  <advance width="605"/>
  <unicode hex="0D8B"/>
  <outline>
    <contour>
      <point x="324" y="-243" type="curve" smooth="yes"/>
      <point x="510" y="-243"/>
      <point x="607" y="-149"/>
      <point x="607" y="42" type="curve" smooth="yes"/>
      <point x="607" y="54"/>
      <point x="607" y="67"/>
      <point x="604" y="82" type="curve"/>
      <point x="469" y="77" type="line"/>
      <point x="470" y="68"/>
      <point x="470" y="63"/>
      <point x="470" y="57" type="curve" smooth="yes"/>
      <point x="470" y="-56"/>
      <point x="422" y="-104"/>
      <point x="331" y="-104" type="curve" smooth="yes"/>
      <point x="244" y="-104"/>
      <point x="190" y="-55"/>
      <point x="190" y="90" type="curve" smooth="yes"/>
      <point x="190" y="171"/>
      <point x="211" y="226"/>
      <point x="246" y="266" type="curve" smooth="yes"/>
      <point x="290" y="316"/>
      <point x="360" y="337"/>
      <point x="487" y="337" type="curve" smooth="yes"/>
      <point x="577" y="337" type="line"/>
      <point x="577" y="402" type="line" smooth="yes"/>
      <point x="577" y="533"/>
      <point x="531" y="622"/>
      <point x="408" y="622" type="curve" smooth="yes"/>
      <point x="301" y="622"/>
      <point x="256" y="575"/>
      <point x="256" y="493" type="curve" smooth="yes"/>
      <point x="256" y="481"/>
      <point x="257" y="464"/>
      <point x="258" y="456" type="curve"/>
      <point x="380" y="465" type="line"/>
      <point x="380" y="468"/>
      <point x="380" y="472"/>
      <point x="380" y="474" type="curve" smooth="yes"/>
      <point x="380" y="497"/>
      <point x="391" y="508"/>
      <point x="410" y="508" type="curve" smooth="yes"/>
      <point x="432" y="508"/>
      <point x="441" y="492"/>
      <point x="444" y="455" type="curve"/>
      <point x="441" y="455" type="line" smooth="yes"/>
      <point x="295" y="455"/>
      <point x="176" y="419"/>
      <point x="104" y="341" type="curve" smooth="yes"/>
      <point x="50" y="283"/>
      <point x="17" y="202"/>
      <point x="17" y="84" type="curve" smooth="yes"/>
      <point x="17" y="-110"/>
      <point x="111" y="-243"/>
    </contour>
  </outline>
</glyph>
<glyph name="lvocalicsinh" format="2">
  <advance width="1016"/>
  <unicode hex="0D8F"/>
  <outline>
    <contour>
      <point x="508" y="-11" type="curve" smooth="yes"/>
      <point x="726" y="-11"/>
      <point x="815" y="92"/>
      <point x="815" y="243" type="curve" smooth="yes"/>
      <point x="815" y="388"/>
      <point x="728" y="455"/>
      <point x="608" y="455" type="curve" smooth="yes"/>
      <point x="572" y="455" type="line"/>
      <point x="641" y="447" type="line"/>
      <point x="644" y="494"/>
      <point x="651" y="508"/>
      <point x="666" y="508" type="curve" smooth="yes"/>
      <point x="676" y="508"/>
      <point x="684" y="498"/>
      <point x="684" y="476" type="curve" smooth="yes"/>
      <point x="684" y="470"/>
      <point x="684" y="464"/>
      <point x="683" y="458" type="curve"/>
      <point x="800" y="446" type="line"/>
      <point x="802" y="462"/>
      <point x="803" y="483"/>
      <point x="803" y="493" type="curve" smooth="yes"/>
      <point x="803" y="575"/>
      <point x="756" y="622"/>
      <point x="672" y="622" type="curve" smooth="yes"/>
      <point x="559" y="622"/>
      <point x="520" y="528"/>
      <point x="520" y="394" type="curve" smooth="yes"/>
      <point x="520" y="338" type="line"/>
      <point x="550" y="338" type="line" smooth="yes"/>
      <point x="599" y="338"/>
      <point x="632" y="334"/>
      <point x="653" y="320" type="curve" smooth="yes"/>
      <point x="670" y="309"/>
      <point x="680" y="291"/>
      <point x="680" y="263" type="curve" smooth="yes"/>
      <point x="680" y="200"/>
      <point x="637" y="164"/>
      <point x="507" y="164" type="curve" smooth="yes"/>
      <point x="379" y="164"/>
      <point x="336" y="200"/>
      <point x="336" y="263" type="curve" smooth="yes"/>
      <point x="336" y="290"/>
      <point x="346" y="309"/>
      <point x="363" y="320" type="curve" smooth="yes"/>
      <point x="384" y="334"/>
      <point x="417" y="338"/>
      <point x="466" y="338" type="curve" smooth="yes"/>
      <point x="496" y="338" type="line"/>
      <point x="496" y="395" type="line" smooth="yes"/>
      <point x="496" y="528"/>
      <point x="457" y="622"/>
      <point x="345" y="622" type="curve" smooth="yes"/>
      <point x="258" y="622"/>
      <point x="213" y="575"/>
      <point x="213" y="493" type="curve" smooth="yes"/>
      <point x="213" y="482"/>
      <point x="214" y="462"/>
      <point x="216" y="446" type="curve"/>
      <point x="333" y="458" type="line"/>
      <point x="332" y="464"/>
      <point x="332" y="470"/>
      <point x="332" y="476" type="curve" smooth="yes"/>
      <point x="332" y="498"/>
      <point x="340" y="508"/>
      <point x="352" y="508" type="curve" smooth="yes"/>
      <point x="365" y="508"/>
      <point x="372" y="494"/>
      <point x="375" y="447" type="curve"/>
      <point x="444" y="455" type="line"/>
      <point x="408" y="455" type="line" smooth="yes"/>
      <point x="288" y="455"/>
      <point x="201" y="388"/>
      <point x="201" y="244" type="curve" smooth="yes"/>
      <point x="201" y="92"/>
      <point x="290" y="-11"/>
    </contour>
    <contour>
      <point x="23" y="342" type="curve" smooth="yes"/>
      <point x="23" y="240"/>
      <point x="47" y="146"/>
      <point x="72" y="79" type="curve"/>
      <point x="196" y="119" type="line"/>
      <point x="173" y="172"/>
      <point x="155" y="252"/>
      <point x="155" y="322" type="curve" smooth="yes"/>
      <point x="155" y="418"/>
      <point x="188" y="480"/>
      <point x="243" y="503" type="curve" smooth="yes"/>
      <point x="274" y="515"/>
      <point x="302" y="517"/>
      <point x="319" y="517" type="curve" smooth="yes"/>
      <point x="335" y="517"/>
      <point x="361" y="511"/>
      <point x="379" y="506" type="curve"/>
      <point x="403" y="592" type="line"/>
      <point x="354" y="613"/>
      <point x="322" y="622"/>
      <point x="279" y="622" type="curve" smooth="yes"/>
      <point x="130" y="622"/>
      <point x="23" y="528"/>
    </contour>
    <contour>
      <point x="993" y="342" type="curve" smooth="yes"/>
      <point x="993" y="528"/>
      <point x="886" y="622"/>
      <point x="737" y="622" type="curve" smooth="yes"/>
      <point x="693" y="622"/>
      <point x="658" y="612"/>
      <point x="613" y="592" type="curve"/>
      <point x="637" y="506" type="line"/>
      <point x="655" y="511"/>
      <point x="681" y="517"/>
      <point x="697" y="517" type="curve" smooth="yes"/>
      <point x="714" y="517"/>
      <point x="742" y="515"/>
      <point x="773" y="503" type="curve" smooth="yes"/>
      <point x="828" y="480"/>
      <point x="861" y="418"/>
      <point x="861" y="322" type="curve" smooth="yes"/>
      <point x="861" y="252"/>
      <point x="843" y="172"/>
      <point x="820" y="119" type="curve"/>
      <point x="944" y="79" type="line"/>
      <point x="969" y="146"/>
      <point x="993" y="240"/>
    </contour>
  </outline>
</glyph>
<glyph name="esinh" format="2">
  <advance width="702"/>
  <unicode hex="0D91"/>
  <outline>
    <contour>
      <point x="328" y="-11" type="curve" smooth="yes"/>
      <point x="574" y="-11"/>
      <point x="680" y="170"/>
      <point x="680" y="405" type="curve" smooth="yes"/>
      <point x="680" y="658"/>
      <point x="538" y="799"/>
      <point x="402" y="867" type="curve"/>
      <point x="314" y="758" type="line"/>
      <point x="334" y="755"/>
      <point x="352" y="749"/>
      <point x="368" y="741" type="curve" smooth="yes"/>
      <point x="449" y="698"/>
      <point x="540" y="593"/>
      <point x="540" y="404" type="curve" smooth="yes"/>
      <point x="540" y="257"/>
      <point x="465" y="164"/>
      <point x="319" y="164" type="curve" smooth="yes"/>
      <point x="223" y="164"/>
      <point x="192" y="204"/>
      <point x="192" y="257" type="curve" smooth="yes"/>
      <point x="192" y="279"/>
      <point x="197" y="297"/>
      <point x="210" y="310" type="curve" smooth="yes"/>
      <point x="227" y="328"/>
      <point x="248" y="338"/>
      <point x="314" y="338" type="curve" smooth="yes"/>
      <point x="383" y="338" type="line"/>
      <point x="383" y="403" type="line" smooth="yes"/>
      <point x="383" y="533"/>
      <point x="337" y="622"/>
      <point x="224" y="622" type="curve" smooth="yes"/>
      <point x="128" y="622"/>
      <point x="84" y="575"/>
      <point x="84" y="493" type="curve" smooth="yes"/>
      <point x="84" y="488"/>
      <point x="84" y="479"/>
      <point x="85" y="469" type="curve"/>
      <point x="208" y="473" type="line"/>
      <point x="208" y="474"/>
      <point x="208" y="475"/>
      <point x="208" y="476" type="curve" smooth="yes"/>
      <point x="208" y="498"/>
      <point x="217" y="508"/>
      <point x="228" y="508" type="curve" smooth="yes"/>
      <point x="241" y="508"/>
      <point x="248" y="494"/>
      <point x="250" y="455" type="curve"/>
      <point x="20" y="455" type="line"/>
      <point x="20" y="338" type="line"/>
      <point x="49" y="338" type="line" smooth="yes"/>
      <point x="86" y="338"/>
      <point x="125" y="342"/>
      <point x="158" y="349" type="curve"/>
      <point x="150" y="383" type="line"/>
      <point x="102" y="354"/>
      <point x="56" y="307"/>
      <point x="56" y="219" type="curve" smooth="yes"/>
      <point x="56" y="95"/>
      <point x="134" y="-11"/>
    </contour>
    <contour>
      <point x="451" y="503" type="curve" smooth="yes"/>
      <point x="503" y="503"/>
      <point x="543" y="527"/>
      <point x="582" y="589" type="curve"/>
      <point x="518" y="662" type="line"/>
      <point x="500" y="628"/>
      <point x="481" y="611"/>
      <point x="461" y="611" type="curve" smooth="yes"/>
      <point x="446" y="611"/>
      <point x="434" y="620"/>
      <point x="433" y="652" type="curve" smooth="yes"/>
      <point x="432" y="696"/>
      <point x="416" y="731"/>
      <point x="399" y="750" type="curve"/>
      <point x="314" y="758" type="line"/>
      <point x="325" y="751"/>
      <point x="327" y="742"/>
      <point x="327" y="649" type="curve" smooth="yes"/>
      <point x="327" y="570"/>
      <point x="367" y="503"/>
    </contour>
  </outline>
</glyph>
<glyph name="eesinh" format="2">
  <advance width="702"/>
  <unicode hex="0D92"/>
  <outline>
    <contour>
      <point x="581" y="677" type="line"/>
      <point x="581" y="840" type="line"/>
      <point x="543" y="886" type="line"/>
      <point x="543" y="939"/>
      <point x="516" y="967"/>
      <point x="472" y="978" type="curve"/>
      <point x="426" y="882" type="line"/>
      <point x="444" y="874"/>
      <point x="457" y="866"/>
      <point x="464" y="856" type="curve" smooth="yes"/>
      <point x="475" y="841"/>
      <point x="476" y="828"/>
      <point x="476" y="808" type="curve" smooth="yes"/>
      <point x="476" y="792" type="line" smooth="yes"/>
      <point x="476" y="765"/>
      <point x="477" y="736"/>
      <point x="479" y="711" type="curve"/>
    </contour>
    <contour>
      <point x="599" y="757" type="curve" smooth="yes"/>
      <point x="656" y="757"/>
      <point x="702" y="787"/>
      <point x="702" y="869" type="curve" smooth="yes"/>
      <point x="702" y="935"/>
      <point x="672" y="979"/>
      <point x="612" y="979" type="curve" smooth="yes"/>
      <point x="562" y="979"/>
      <point x="530" y="944"/>
      <point x="520" y="880" type="curve"/>
      <point x="581" y="825" type="line"/>
      <point x="581" y="862" type="line" smooth="yes"/>
      <point x="581" y="885"/>
      <point x="591" y="890"/>
      <point x="600" y="890" type="curve" smooth="yes"/>
      <point x="612" y="890"/>
      <point x="617" y="882"/>
      <point x="617" y="868" type="curve" smooth="yes"/>
      <point x="617" y="853"/>
      <point x="609" y="844"/>
      <point x="592" y="844" type="curve" smooth="yes"/>
      <point x="576" y="844"/>
      <point x="561" y="848"/>
      <point x="543" y="856" type="curve"/>
      <point x="522" y="773" type="line"/>
      <point x="548" y="764"/>
      <point x="571" y="757"/>
    </contour>
    <component base="esinh"/>
  </outline>
</glyph>
<glyph name="osinh" format="2">
  <advance width="759"/>
  <unicode hex="0D94"/>
  <outline>
    <contour>
      <point x="511" y="-11" type="curve" smooth="yes"/>
      <point x="638" y="-11"/>
      <point x="733" y="60"/>
      <point x="733" y="359" type="curve" smooth="yes"/>
      <point x="733" y="696"/>
      <point x="596" y="836"/>
      <point x="349" y="836" type="curve" smooth="yes"/>
      <point x="232" y="836"/>
      <point x="147" y="808"/>
      <point x="55" y="766" type="curve"/>
      <point x="105" y="649" type="line"/>
      <point x="178" y="683"/>
      <point x="245" y="706"/>
      <point x="344" y="706" type="curve" smooth="yes"/>
      <point x="534" y="706"/>
      <point x="593" y="572"/>
      <point x="593" y="363" type="curve" smooth="yes"/>
      <point x="593" y="228"/>
      <point x="569" y="156"/>
      <point x="497" y="156" type="curve" smooth="yes"/>
      <point x="468" y="156"/>
      <point x="443" y="174"/>
      <point x="436" y="217" type="curve"/>
      <point x="301" y="217" type="line"/>
      <point x="292" y="176"/>
      <point x="272" y="156"/>
      <point x="234" y="156" type="curve" smooth="yes"/>
      <point x="190" y="156"/>
      <point x="160" y="187"/>
      <point x="160" y="305" type="curve" smooth="yes"/>
      <point x="160" y="402"/>
      <point x="185" y="459"/>
      <point x="199" y="459" type="curve" smooth="yes"/>
      <point x="207" y="459"/>
      <point x="210" y="454"/>
      <point x="210" y="442" type="curve" smooth="yes"/>
      <point x="210" y="414"/>
      <point x="202" y="396"/>
      <point x="202" y="360" type="curve" smooth="yes"/>
      <point x="202" y="278"/>
      <point x="245" y="194"/>
      <point x="379" y="194" type="curve" smooth="yes"/>
      <point x="488" y="194"/>
      <point x="557" y="265"/>
      <point x="557" y="412" type="curve" smooth="yes"/>
      <point x="557" y="516"/>
      <point x="508" y="584"/>
      <point x="422" y="584" type="curve" smooth="yes"/>
      <point x="355" y="584"/>
      <point x="300" y="542"/>
      <point x="300" y="454" type="curve" smooth="yes"/>
      <point x="300" y="373"/>
      <point x="337" y="330"/>
      <point x="406" y="330" type="curve" smooth="yes"/>
      <point x="423" y="330"/>
      <point x="451" y="336"/>
      <point x="476" y="362" type="curve"/>
      <point x="448" y="434" type="line"/>
      <point x="432" y="424"/>
      <point x="425" y="422"/>
      <point x="411" y="422" type="curve" smooth="yes"/>
      <point x="397" y="422"/>
      <point x="387" y="432"/>
      <point x="387" y="454" type="curve" smooth="yes"/>
      <point x="387" y="474"/>
      <point x="399" y="486"/>
      <point x="413" y="486" type="curve" smooth="yes"/>
      <point x="431" y="486"/>
      <point x="440" y="472"/>
      <point x="440" y="419" type="curve" smooth="yes"/>
      <point x="440" y="330"/>
      <point x="422" y="299"/>
      <point x="372" y="299" type="curve" smooth="yes"/>
      <point x="337" y="299"/>
      <point x="315" y="317"/>
      <point x="315" y="363" type="curve" smooth="yes"/>
      <point x="315" y="397"/>
      <point x="323" y="435"/>
      <point x="323" y="473" type="curve" smooth="yes"/>
      <point x="323" y="517"/>
      <point x="308" y="584"/>
      <point x="209" y="584" type="curve" smooth="yes"/>
      <point x="94" y="584"/>
      <point x="28" y="464"/>
      <point x="28" y="279" type="curve" smooth="yes"/>
      <point x="28" y="95"/>
      <point x="75" y="-11"/>
      <point x="216" y="-11" type="curve" smooth="yes"/>
      <point x="289" y="-11"/>
      <point x="329" y="13"/>
      <point x="367" y="68" type="curve"/>
      <point x="397" y="23"/>
      <point x="438" y="-11"/>
    </contour>
  </outline>
</glyph>
<glyph name="oosinh" format="2">
  <advance width="759"/>
  <unicode hex="0D95"/>
  <outline>
    <contour>
      <point x="511" y="-11" type="curve" smooth="yes"/>
      <point x="638" y="-11"/>
      <point x="733" y="57"/>
      <point x="733" y="343" type="curve" smooth="yes"/>
      <point x="733" y="643"/>
      <point x="596" y="774"/>
      <point x="345" y="774" type="curve" smooth="yes"/>
      <point x="217" y="774"/>
      <point x="132" y="755"/>
      <point x="54" y="729" type="curve"/>
      <point x="86" y="612" type="line"/>
      <point x="163" y="636"/>
      <point x="232" y="644"/>
      <point x="337" y="644" type="curve" smooth="yes"/>
      <point x="535" y="644"/>
      <point x="593" y="525"/>
      <point x="593" y="346" type="curve" smooth="yes"/>
      <point x="593" y="220"/>
      <point x="569" y="156"/>
      <point x="497" y="156" type="curve" smooth="yes"/>
      <point x="468" y="156"/>
      <point x="443" y="174"/>
      <point x="436" y="217" type="curve"/>
      <point x="301" y="217" type="line"/>
      <point x="292" y="176"/>
      <point x="272" y="156"/>
      <point x="234" y="156" type="curve" smooth="yes"/>
      <point x="190" y="156"/>
      <point x="160" y="187"/>
      <point x="160" y="305" type="curve" smooth="yes"/>
      <point x="160" y="402"/>
      <point x="185" y="459"/>
      <point x="199" y="459" type="curve" smooth="yes"/>
      <point x="207" y="459"/>
      <point x="210" y="454"/>
      <point x="210" y="442" type="curve" smooth="yes"/>
      <point x="210" y="414"/>
      <point x="202" y="396"/>
      <point x="202" y="360" type="curve" smooth="yes"/>
      <point x="202" y="278"/>
      <point x="245" y="194"/>
      <point x="379" y="194" type="curve" smooth="yes"/>
      <point x="488" y="194"/>
      <point x="557" y="265"/>
      <point x="557" y="412" type="curve" smooth="yes"/>
      <point x="557" y="516"/>
      <point x="508" y="584"/>
      <point x="422" y="584" type="curve" smooth="yes"/>
      <point x="355" y="584"/>
      <point x="300" y="542"/>
      <point x="300" y="454" type="curve" smooth="yes"/>
      <point x="300" y="373"/>
      <point x="337" y="330"/>
      <point x="406" y="330" type="curve" smooth="yes"/>
      <point x="423" y="330"/>
      <point x="451" y="336"/>
      <point x="476" y="362" type="curve"/>
      <point x="448" y="434" type="line"/>
      <point x="432" y="424"/>
      <point x="425" y="422"/>
      <point x="411" y="422" type="curve" smooth="yes"/>
      <point x="397" y="422"/>
      <point x="387" y="432"/>
      <point x="387" y="454" type="curve" smooth="yes"/>
      <point x="387" y="474"/>
      <point x="399" y="486"/>
      <point x="413" y="486" type="curve" smooth="yes"/>
      <point x="431" y="486"/>
      <point x="440" y="472"/>
      <point x="440" y="419" type="curve" smooth="yes"/>
      <point x="440" y="330"/>
      <point x="422" y="299"/>
      <point x="372" y="299" type="curve" smooth="yes"/>
      <point x="337" y="299"/>
      <point x="315" y="317"/>
      <point x="315" y="363" type="curve" smooth="yes"/>
      <point x="315" y="397"/>
      <point x="323" y="435"/>
      <point x="323" y="473" type="curve" smooth="yes"/>
      <point x="323" y="517"/>
      <point x="308" y="584"/>
      <point x="209" y="584" type="curve" smooth="yes"/>
      <point x="94" y="584"/>
      <point x="28" y="464"/>
      <point x="28" y="279" type="curve" smooth="yes"/>
      <point x="28" y="95"/>
      <point x="75" y="-11"/>
      <point x="216" y="-11" type="curve" smooth="yes"/>
      <point x="289" y="-11"/>
      <point x="329" y="13"/>
      <point x="367" y="68" type="curve"/>
      <point x="397" y="23"/>
      <point x="438" y="-11"/>
    </contour>
    <contour>
      <point x="383" y="979" type="curve" smooth="yes"/>
      <point x="163" y="979"/>
      <point x="99" y="894"/>
      <point x="99" y="794" type="curve" smooth="yes"/>
      <point x="99" y="762"/>
      <point x="106" y="733"/>
      <point x="113" y="706" type="curve"/>
      <point x="239" y="727" type="line"/>
      <point x="235" y="739"/>
      <point x="233" y="758"/>
      <point x="233" y="773" type="curve" smooth="yes"/>
      <point x="233" y="814"/>
      <point x="257" y="842"/>
      <point x="380" y="842" type="curve" smooth="yes"/>
      <point x="505" y="842"/>
      <point x="544" y="821"/>
      <point x="544" y="760" type="curve" smooth="yes"/>
      <point x="544" y="756"/>
      <point x="543" y="751"/>
      <point x="542" y="744" type="curve"/>
      <point x="671" y="723" type="line"/>
      <point x="675" y="743"/>
      <point x="678" y="766"/>
      <point x="678" y="788" type="curve" smooth="yes"/>
      <point x="678" y="890"/>
      <point x="627" y="979"/>
    </contour>
  </outline>
</glyph>
<glyph name="khasinh" format="2">
  <advance width="796"/>
  <unicode hex="0D9B"/>
  <outline>
    <contour>
      <point x="210" y="-11" type="curve" smooth="yes"/>
      <point x="319" y="-11"/>
      <point x="365" y="50"/>
      <point x="365" y="141" type="curve" smooth="yes"/>
      <point x="365" y="210"/>
      <point x="330" y="278"/>
      <point x="240" y="278" type="curve" smooth="yes"/>
      <point x="183" y="278"/>
      <point x="141" y="245"/>
      <point x="109" y="209" type="curve"/>
      <point x="143" y="130" type="line"/>
      <point x="164" y="155"/>
      <point x="191" y="170"/>
      <point x="216" y="170" type="curve" smooth="yes"/>
      <point x="239" y="170"/>
      <point x="251" y="158"/>
      <point x="251" y="136" type="curve" smooth="yes"/>
      <point x="251" y="112"/>
      <point x="238" y="102"/>
      <point x="215" y="102" type="curve" smooth="yes"/>
      <point x="197" y="102"/>
      <point x="172" y="117"/>
      <point x="166" y="168" type="curve"/>
      <point x="162" y="185"/>
      <point x="160" y="213"/>
      <point x="160" y="232" type="curve" smooth="yes"/>
      <point x="160" y="356"/>
      <point x="212" y="432"/>
      <point x="299" y="432" type="curve" smooth="yes"/>
      <point x="367" y="432"/>
      <point x="395" y="381"/>
      <point x="395" y="293" type="curve" smooth="yes"/>
      <point x="395" y="196"/>
      <point x="370" y="122"/>
      <point x="338" y="45" type="curve"/>
      <point x="461" y="-11" type="line"/>
      <point x="502" y="77"/>
      <point x="545" y="192"/>
      <point x="545" y="318" type="curve" smooth="yes"/>
      <point x="545" y="504"/>
      <point x="440" y="586"/>
      <point x="312" y="586" type="curve" smooth="yes"/>
      <point x="116" y="586"/>
      <point x="25" y="426"/>
      <point x="25" y="251" type="curve" smooth="yes"/>
      <point x="25" y="68"/>
      <point x="102" y="-11"/>
    </contour>
    <contour>
      <point x="597" y="-11" type="curve" smooth="yes"/>
      <point x="711" y="-11"/>
      <point x="766" y="84"/>
      <point x="766" y="351" type="curve" smooth="yes"/>
      <point x="766" y="686"/>
      <point x="625" y="836"/>
      <point x="365" y="836" type="curve" smooth="yes"/>
      <point x="241" y="836"/>
      <point x="146" y="807"/>
      <point x="53" y="766" type="curve"/>
      <point x="102" y="649" type="line"/>
      <point x="175" y="683"/>
      <point x="253" y="706"/>
      <point x="360" y="706" type="curve" smooth="yes"/>
      <point x="559" y="706"/>
      <point x="626" y="571"/>
      <point x="626" y="329" type="curve" smooth="yes"/>
      <point x="626" y="186"/>
      <point x="610" y="154"/>
      <point x="587" y="154" type="curve" smooth="yes"/>
      <point x="570" y="154"/>
      <point x="564" y="167"/>
      <point x="564" y="216" type="curve"/>
      <point x="472" y="215" type="line"/>
      <point x="465" y="178" type="line"/>
      <point x="470" y="70"/>
      <point x="490" y="-11"/>
    </contour>
  </outline>
</glyph>
<glyph name="ghasinh" format="2">
  <advance width="711"/>
  <unicode hex="0D9D"/>
  <outline>
    <contour>
      <point x="251" y="-11" type="curve" smooth="yes"/>
      <point x="282" y="-11"/>
      <point x="303" y="-8"/>
      <point x="333" y="-1" type="curve"/>
      <point x="272" y="157" type="line"/>
      <point x="262" y="154"/>
      <point x="253" y="152"/>
      <point x="239" y="152" type="curve" smooth="yes"/>
      <point x="197" y="152"/>
      <point x="180" y="185"/>
      <point x="180" y="232" type="curve" smooth="yes"/>
      <point x="180" y="271"/>
      <point x="192" y="298"/>
      <point x="211" y="314" type="curve" smooth="yes"/>
      <point x="231" y="331"/>
      <point x="256" y="338"/>
      <point x="303" y="338" type="curve" smooth="yes"/>
      <point x="356" y="338" type="line"/>
      <point x="356" y="395" type="line" smooth="yes"/>
      <point x="356" y="528"/>
      <point x="317" y="622"/>
      <point x="205" y="622" type="curve" smooth="yes"/>
      <point x="112" y="622"/>
      <point x="68" y="575"/>
      <point x="68" y="493" type="curve" smooth="yes"/>
      <point x="68" y="488"/>
      <point x="68" y="479"/>
      <point x="69" y="469" type="curve"/>
      <point x="192" y="473" type="line"/>
      <point x="192" y="474"/>
      <point x="192" y="475"/>
      <point x="192" y="476" type="curve" smooth="yes"/>
      <point x="192" y="498"/>
      <point x="200" y="508"/>
      <point x="212" y="508" type="curve" smooth="yes"/>
      <point x="225" y="508"/>
      <point x="232" y="494"/>
      <point x="234" y="455" type="curve"/>
      <point x="20" y="455" type="line"/>
      <point x="20" y="338" type="line"/>
      <point x="46" y="338" type="line" smooth="yes"/>
      <point x="83" y="338"/>
      <point x="122" y="342"/>
      <point x="155" y="349" type="curve"/>
      <point x="123" y="364" type="line"/>
      <point x="73" y="325"/>
      <point x="41" y="276"/>
      <point x="41" y="190" type="curve" smooth="yes"/>
      <point x="41" y="78"/>
      <point x="103" y="-11"/>
    </contour>
    <contour>
      <point x="497" y="-11" type="curve" smooth="yes"/>
      <point x="613" y="-11"/>
      <point x="689" y="55"/>
      <point x="689" y="217" type="curve" smooth="yes"/>
      <point x="689" y="391"/>
      <point x="579" y="455"/>
      <point x="467" y="455" type="curve" smooth="yes"/>
      <point x="426" y="455" type="line"/>
      <point x="501" y="447" type="line"/>
      <point x="504" y="494"/>
      <point x="511" y="508"/>
      <point x="526" y="508" type="curve" smooth="yes"/>
      <point x="536" y="508"/>
      <point x="544" y="498"/>
      <point x="544" y="476" type="curve" smooth="yes"/>
      <point x="544" y="470"/>
      <point x="544" y="464"/>
      <point x="543" y="458" type="curve"/>
      <point x="665" y="446" type="line"/>
      <point x="667" y="462"/>
      <point x="668" y="482"/>
      <point x="668" y="493" type="curve" smooth="yes"/>
      <point x="668" y="575"/>
      <point x="624" y="622"/>
      <point x="532" y="622" type="curve" smooth="yes"/>
      <point x="420" y="622"/>
      <point x="380" y="529"/>
      <point x="380" y="394" type="curve" smooth="yes"/>
      <point x="380" y="338" type="line"/>
      <point x="431" y="338" type="line" smooth="yes"/>
      <point x="478" y="338"/>
      <point x="503" y="331"/>
      <point x="523" y="314" type="curve" smooth="yes"/>
      <point x="542" y="298"/>
      <point x="554" y="271"/>
      <point x="554" y="232" type="curve" smooth="yes"/>
      <point x="554" y="184"/>
      <point x="537" y="152"/>
      <point x="495" y="152" type="curve" smooth="yes"/>
      <point x="487" y="152"/>
      <point x="470" y="153"/>
      <point x="457" y="157" type="curve"/>
      <point x="397" y="-1" type="line"/>
      <point x="427" y="-8"/>
      <point x="466" y="-11"/>
    </contour>
    <contour>
      <point x="366" y="183" type="curve" smooth="yes"/>
      <point x="394" y="183"/>
      <point x="405" y="175"/>
      <point x="405" y="159" type="curve" smooth="yes"/>
      <point x="405" y="145"/>
      <point x="398" y="139"/>
      <point x="386" y="135" type="curve"/>
      <point x="397" y="-1" type="line"/>
      <point x="459" y="105" type="line"/>
      <point x="493" y="122"/>
      <point x="512" y="159"/>
      <point x="512" y="199" type="curve" smooth="yes"/>
      <point x="512" y="266"/>
      <point x="464" y="305"/>
      <point x="369" y="305" type="curve" smooth="yes"/>
      <point x="363" y="305" type="line" smooth="yes"/>
      <point x="265" y="305"/>
      <point x="221" y="266"/>
      <point x="221" y="199" type="curve" smooth="yes"/>
      <point x="221" y="165"/>
      <point x="232" y="134"/>
      <point x="269" y="104" type="curve"/>
      <point x="333" y="-1" type="line"/>
      <point x="346" y="135" type="line"/>
      <point x="334" y="139"/>
      <point x="327" y="145"/>
      <point x="327" y="159" type="curve" smooth="yes"/>
      <point x="327" y="174"/>
      <point x="338" y="183"/>
    </contour>
  </outline>
</glyph>
<glyph name="nngasinh" format="2">
  <advance width="927"/>
  <unicode hex="0D9F"/>
  <outline>
    <contour>
      <point x="693" y="-3" type="curve" smooth="yes"/>
      <point x="823" y="-3"/>
      <point x="901" y="85"/>
      <point x="901" y="299" type="curve" smooth="yes"/>
      <point x="901" y="495"/>
      <point x="823" y="622"/>
      <point x="679" y="622" type="curve" smooth="yes"/>
      <point x="542" y="622"/>
      <point x="465" y="488"/>
      <point x="418" y="289" type="curve"/>
      <point x="515" y="257" type="line"/>
      <point x="518" y="264"/>
      <point x="522" y="269"/>
      <point x="529" y="269" type="curve" smooth="yes"/>
      <point x="538" y="269"/>
      <point x="541" y="263"/>
      <point x="541" y="246" type="curve" smooth="yes"/>
      <point x="541" y="198"/>
      <point x="506" y="164"/>
      <point x="455" y="164" type="curve" smooth="yes"/>
      <point x="388" y="164"/>
      <point x="350" y="209"/>
      <point x="350" y="297" type="curve" smooth="yes"/>
      <point x="350" y="386"/>
      <point x="394" y="429"/>
      <point x="444" y="446" type="curve"/>
      <point x="493" y="579" type="line"/>
      <point x="365" y="541" type="line"/>
      <point x="274" y="492"/>
      <point x="215" y="408"/>
      <point x="215" y="271" type="curve" smooth="yes"/>
      <point x="215" y="117"/>
      <point x="287" y="-11"/>
      <point x="449" y="-11" type="curve" smooth="yes"/>
      <point x="600" y="-11"/>
      <point x="673" y="100"/>
      <point x="673" y="235" type="curve" smooth="yes"/>
      <point x="673" y="346"/>
      <point x="618" y="385"/>
      <point x="563" y="385" type="curve" smooth="yes"/>
      <point x="543" y="385"/>
      <point x="523" y="379"/>
      <point x="515" y="376" type="curve"/>
      <point x="568" y="362" type="line"/>
      <point x="592" y="418"/>
      <point x="622" y="464"/>
      <point x="674" y="464" type="curve" smooth="yes"/>
      <point x="726" y="464"/>
      <point x="764" y="414"/>
      <point x="764" y="288" type="curve" smooth="yes"/>
      <point x="764" y="169"/>
      <point x="731" y="127"/>
      <point x="665" y="127" type="curve" smooth="yes"/>
      <point x="658" y="127"/>
      <point x="651" y="127"/>
      <point x="648" y="128" type="curve"/>
      <point x="643" y="0" type="line"/>
      <point x="658" y="-2"/>
      <point x="678" y="-3"/>
    </contour>
    <contour>
      <point x="23" y="330" type="curve" smooth="yes"/>
      <point x="23" y="246"/>
      <point x="42" y="161"/>
      <point x="68" y="79" type="curve"/>
      <point x="192" y="119" type="line"/>
      <point x="172" y="178"/>
      <point x="155" y="244"/>
      <point x="155" y="323" type="curve" smooth="yes"/>
      <point x="155" y="430"/>
      <point x="204" y="510"/>
      <point x="323" y="510" type="curve" smooth="yes"/>
      <point x="370" y="510"/>
      <point x="409" y="497"/>
      <point x="446" y="483" type="curve"/>
      <point x="493" y="579" type="line"/>
      <point x="436" y="605"/>
      <point x="373" y="622"/>
      <point x="303" y="622" type="curve" smooth="yes"/>
      <point x="143" y="622"/>
      <point x="23" y="528"/>
    </contour>
  </outline>
</glyph>
<glyph name="casinh" format="2">
  <advance width="702"/>
  <unicode hex="0DA0"/>
  <outline>
    <contour>
      <point x="324" y="-11" type="curve" smooth="yes"/>
      <point x="573" y="-11"/>
      <point x="680" y="172"/>
      <point x="680" y="420" type="curve" smooth="yes"/>
      <point x="680" y="689"/>
      <point x="553" y="836"/>
      <point x="332" y="836" type="curve" smooth="yes"/>
      <point x="231" y="836"/>
      <point x="147" y="811"/>
      <point x="64" y="773" type="curve"/>
      <point x="113" y="656" type="line"/>
      <point x="181" y="688"/>
      <point x="244" y="706"/>
      <point x="326" y="706" type="curve" smooth="yes"/>
      <point x="470" y="706"/>
      <point x="540" y="609"/>
      <point x="540" y="429" type="curve" smooth="yes"/>
      <point x="540" y="258"/>
      <point x="463" y="164"/>
      <point x="315" y="164" type="curve" smooth="yes"/>
      <point x="223" y="164"/>
      <point x="192" y="204"/>
      <point x="192" y="257" type="curve" smooth="yes"/>
      <point x="192" y="279"/>
      <point x="197" y="297"/>
      <point x="210" y="310" type="curve" smooth="yes"/>
      <point x="227" y="328"/>
      <point x="248" y="338"/>
      <point x="314" y="338" type="curve" smooth="yes"/>
      <point x="393" y="338" type="line"/>
      <point x="393" y="403" type="line" smooth="yes"/>
      <point x="393" y="533"/>
      <point x="347" y="622"/>
      <point x="234" y="622" type="curve" smooth="yes"/>
      <point x="138" y="622"/>
      <point x="94" y="575"/>
      <point x="94" y="493" type="curve" smooth="yes"/>
      <point x="94" y="488"/>
      <point x="94" y="479"/>
      <point x="95" y="469" type="curve"/>
      <point x="218" y="473" type="line"/>
      <point x="218" y="474"/>
      <point x="218" y="475"/>
      <point x="218" y="476" type="curve" smooth="yes"/>
      <point x="218" y="498"/>
      <point x="227" y="508"/>
      <point x="238" y="508" type="curve" smooth="yes"/>
      <point x="251" y="508"/>
      <point x="258" y="494"/>
      <point x="260" y="455" type="curve"/>
      <point x="20" y="455" type="line"/>
      <point x="20" y="338" type="line"/>
      <point x="49" y="338" type="line" smooth="yes"/>
      <point x="86" y="338"/>
      <point x="125" y="342"/>
      <point x="158" y="349" type="curve"/>
      <point x="150" y="383" type="line"/>
      <point x="102" y="354"/>
      <point x="56" y="307"/>
      <point x="56" y="219" type="curve" smooth="yes"/>
      <point x="56" y="95"/>
      <point x="134" y="-11"/>
    </contour>
  </outline>
</glyph>
<glyph name="chasinh" format="2">
  <advance width="667"/>
  <unicode hex="0DA1"/>
  <outline>
    <contour>
      <point x="330" y="-11" type="curve" smooth="yes"/>
      <point x="555" y="-11"/>
      <point x="644" y="92"/>
      <point x="644" y="241" type="curve" smooth="yes"/>
      <point x="644" y="375"/>
      <point x="550" y="455"/>
      <point x="433" y="455" type="curve" smooth="yes"/>
      <point x="429" y="455" type="line"/>
      <point x="457" y="447" type="line"/>
      <point x="460" y="488"/>
      <point x="471" y="508"/>
      <point x="490" y="508" type="curve" smooth="yes"/>
      <point x="509" y="508"/>
      <point x="516" y="492"/>
      <point x="516" y="430" type="curve" smooth="yes"/>
      <point x="516" y="318"/>
      <point x="496" y="304"/>
      <point x="476" y="304" type="curve" smooth="yes"/>
      <point x="453" y="304"/>
      <point x="446" y="322"/>
      <point x="446" y="386" type="curve"/>
      <point x="421" y="440" type="line"/>
      <point x="490" y="576" type="line"/>
      <point x="519" y="629"/>
      <point x="585" y="674"/>
      <point x="654" y="707" type="curve"/>
      <point x="599" y="812" type="line"/>
      <point x="479" y="750"/>
      <point x="342" y="622"/>
      <point x="342" y="400" type="curve" smooth="yes"/>
      <point x="342" y="273"/>
      <point x="370" y="204"/>
      <point x="469" y="204" type="curve" smooth="yes"/>
      <point x="495" y="204"/>
      <point x="530" y="223"/>
      <point x="555" y="270" type="curve"/>
      <point x="586" y="294" type="line"/>
      <point x="608" y="322"/>
      <point x="631" y="377"/>
      <point x="631" y="455" type="curve" smooth="yes"/>
      <point x="631" y="571"/>
      <point x="578" y="620"/>
      <point x="513" y="620" type="curve" smooth="yes"/>
      <point x="375" y="620"/>
      <point x="365" y="466"/>
      <point x="365" y="368" type="curve" smooth="yes"/>
      <point x="365" y="347" type="line"/>
      <point x="419" y="347" type="line" smooth="yes"/>
      <point x="460" y="347"/>
      <point x="491" y="337"/>
      <point x="506" y="324" type="curve"/>
      <point x="511" y="310" type="line"/>
      <point x="516" y="297"/>
      <point x="519" y="280"/>
      <point x="519" y="257" type="curve" smooth="yes"/>
      <point x="519" y="203"/>
      <point x="466" y="164"/>
      <point x="329" y="164" type="curve" smooth="yes"/>
      <point x="201" y="164"/>
      <point x="158" y="200"/>
      <point x="158" y="263" type="curve" smooth="yes"/>
      <point x="158" y="290"/>
      <point x="168" y="309"/>
      <point x="185" y="320" type="curve" smooth="yes"/>
      <point x="206" y="334"/>
      <point x="239" y="338"/>
      <point x="288" y="338" type="curve" smooth="yes"/>
      <point x="318" y="338" type="line"/>
      <point x="318" y="395" type="line" smooth="yes"/>
      <point x="318" y="528"/>
      <point x="279" y="622"/>
      <point x="167" y="622" type="curve" smooth="yes"/>
      <point x="74" y="622"/>
      <point x="30" y="575"/>
      <point x="30" y="493" type="curve" smooth="yes"/>
      <point x="30" y="482"/>
      <point x="31" y="462"/>
      <point x="33" y="446" type="curve"/>
      <point x="155" y="458" type="line"/>
      <point x="154" y="464"/>
      <point x="154" y="470"/>
      <point x="154" y="476" type="curve" smooth="yes"/>
      <point x="154" y="498"/>
      <point x="162" y="508"/>
      <point x="174" y="508" type="curve" smooth="yes"/>
      <point x="187" y="508"/>
      <point x="194" y="494"/>
      <point x="197" y="447" type="curve"/>
      <point x="266" y="455" type="line"/>
      <point x="230" y="455" type="line" smooth="yes"/>
      <point x="110" y="455"/>
      <point x="23" y="388"/>
      <point x="23" y="244" type="curve" smooth="yes"/>
      <point x="23" y="92"/>
      <point x="112" y="-11"/>
    </contour>
  </outline>
</glyph>
<glyph name="jasinh" format="2">
  <advance width="660"/>
  <unicode hex="0DA2"/>
  <outline>
    <contour>
      <point x="330" y="-11" type="curve" smooth="yes"/>
      <point x="548" y="-11"/>
      <point x="637" y="92"/>
      <point x="637" y="243" type="curve" smooth="yes"/>
      <point x="637" y="388"/>
      <point x="550" y="455"/>
      <point x="430" y="455" type="curve" smooth="yes"/>
      <point x="395" y="455" type="line"/>
      <point x="439" y="448" type="line"/>
      <point x="443" y="499"/>
      <point x="461" y="517"/>
      <point x="484" y="517" type="curve" smooth="yes"/>
      <point x="503" y="517"/>
      <point x="512" y="506"/>
      <point x="512" y="485" type="curve" smooth="yes"/>
      <point x="512" y="462"/>
      <point x="501" y="454"/>
      <point x="487" y="454" type="curve" smooth="yes"/>
      <point x="466" y="454"/>
      <point x="459" y="470"/>
      <point x="459" y="491" type="curve" smooth="yes"/>
      <point x="459" y="519"/>
      <point x="467" y="546"/>
      <point x="480" y="566" type="curve"/>
      <point x="488" y="591" type="line"/>
      <point x="517" y="639"/>
      <point x="574" y="677"/>
      <point x="637" y="707" type="curve"/>
      <point x="582" y="812" type="line"/>
      <point x="447" y="760"/>
      <point x="364" y="652"/>
      <point x="364" y="527" type="curve" smooth="yes"/>
      <point x="364" y="525" type="line" smooth="yes"/>
      <point x="364" y="427"/>
      <point x="428" y="391"/>
      <point x="493" y="391" type="curve" smooth="yes"/>
      <point x="590" y="391"/>
      <point x="631" y="432"/>
      <point x="631" y="501" type="curve" smooth="yes"/>
      <point x="631" y="579"/>
      <point x="580" y="621"/>
      <point x="509" y="621" type="curve" smooth="yes"/>
      <point x="465" y="621"/>
      <point x="440" y="610"/>
      <point x="419" y="598" type="curve"/>
      <point x="369" y="549" type="line"/>
      <point x="351" y="510"/>
      <point x="342" y="473"/>
      <point x="342" y="390" type="curve" smooth="yes"/>
      <point x="342" y="338" type="line"/>
      <point x="372" y="338" type="line" smooth="yes"/>
      <point x="421" y="338"/>
      <point x="454" y="334"/>
      <point x="475" y="320" type="curve" smooth="yes"/>
      <point x="492" y="309"/>
      <point x="502" y="291"/>
      <point x="502" y="263" type="curve" smooth="yes"/>
      <point x="502" y="200"/>
      <point x="459" y="164"/>
      <point x="329" y="164" type="curve" smooth="yes"/>
      <point x="201" y="164"/>
      <point x="158" y="200"/>
      <point x="158" y="263" type="curve" smooth="yes"/>
      <point x="158" y="290"/>
      <point x="168" y="309"/>
      <point x="185" y="320" type="curve" smooth="yes"/>
      <point x="206" y="334"/>
      <point x="239" y="338"/>
      <point x="288" y="338" type="curve" smooth="yes"/>
      <point x="318" y="338" type="line"/>
      <point x="318" y="395" type="line" smooth="yes"/>
      <point x="318" y="528"/>
      <point x="279" y="622"/>
      <point x="167" y="622" type="curve" smooth="yes"/>
      <point x="74" y="622"/>
      <point x="30" y="575"/>
      <point x="30" y="493" type="curve" smooth="yes"/>
      <point x="30" y="482"/>
      <point x="31" y="462"/>
      <point x="33" y="446" type="curve"/>
      <point x="155" y="458" type="line"/>
      <point x="154" y="464"/>
      <point x="154" y="470"/>
      <point x="154" y="476" type="curve" smooth="yes"/>
      <point x="154" y="498"/>
      <point x="162" y="508"/>
      <point x="174" y="508" type="curve" smooth="yes"/>
      <point x="187" y="508"/>
      <point x="194" y="494"/>
      <point x="197" y="447" type="curve"/>
      <point x="266" y="455" type="line"/>
      <point x="230" y="455" type="line" smooth="yes"/>
      <point x="110" y="455"/>
      <point x="23" y="388"/>
      <point x="23" y="244" type="curve" smooth="yes"/>
      <point x="23" y="92"/>
      <point x="112" y="-11"/>
    </contour>
  </outline>
</glyph>
<glyph name="jhasinh" format="2">
  <advance width="1184"/>
  <unicode hex="0DA3"/>
  <outline>
    <contour>
      <point x="485" y="-11" type="curve" smooth="yes"/>
      <point x="585" y="-11"/>
      <point x="615" y="113"/>
      <point x="615" y="213" type="curve" smooth="yes"/>
      <point x="615" y="325"/>
      <point x="563" y="446"/>
      <point x="416" y="446" type="curve" smooth="yes"/>
      <point x="344" y="446"/>
      <point x="275" y="422"/>
      <point x="224" y="396" type="curve"/>
      <point x="205" y="312" type="line"/>
      <point x="271" y="332"/>
      <point x="329" y="335"/>
      <point x="377" y="335" type="curve" smooth="yes"/>
      <point x="477" y="335"/>
      <point x="511" y="286"/>
      <point x="511" y="222" type="curve" smooth="yes"/>
      <point x="511" y="170"/>
      <point x="495" y="158"/>
      <point x="474" y="158" type="curve" smooth="yes"/>
      <point x="450" y="158"/>
      <point x="437" y="171"/>
      <point x="437" y="217" type="curve" smooth="yes"/>
      <point x="437" y="257" type="line"/>
      <point x="328" y="257" type="line"/>
      <point x="328" y="217" type="line" smooth="yes"/>
      <point x="328" y="171"/>
      <point x="312" y="158"/>
      <point x="293" y="158" type="curve" smooth="yes"/>
      <point x="273" y="158"/>
      <point x="260" y="171"/>
      <point x="260" y="218" type="curve" smooth="yes"/>
      <point x="260" y="239"/>
      <point x="261" y="252"/>
      <point x="262" y="259" type="curve"/>
      <point x="166" y="259" type="line"/>
      <point x="158" y="231"/>
      <point x="154" y="186"/>
      <point x="154" y="168" type="curve" smooth="yes"/>
      <point x="154" y="74"/>
      <point x="173" y="-11"/>
      <point x="272" y="-11" type="curve" smooth="yes"/>
      <point x="324" y="-11"/>
      <point x="353" y="10"/>
      <point x="381" y="56" type="curve"/>
      <point x="407" y="10"/>
      <point x="442" y="-11"/>
    </contour>
    <contour>
      <point x="507" y="494" type="curve" smooth="yes"/>
      <point x="586" y="494"/>
      <point x="639" y="453"/>
      <point x="683" y="409" type="curve"/>
      <point x="814" y="488" type="line"/>
      <point x="735" y="556"/>
      <point x="645" y="622"/>
      <point x="530" y="622" type="curve" smooth="yes"/>
      <point x="414" y="622"/>
      <point x="331" y="573"/>
      <point x="242" y="488" type="curve"/>
      <point x="217" y="468" type="line"/>
      <point x="164" y="403"/>
      <point x="76" y="282"/>
      <point x="11" y="176" type="curve"/>
      <point x="137" y="113" type="line"/>
      <point x="161" y="164" type="line"/>
      <point x="173" y="182" type="line"/>
      <point x="206" y="248"/>
      <point x="273" y="339"/>
      <point x="314" y="392" type="curve"/>
      <point x="324" y="414" type="line"/>
      <point x="366" y="455"/>
      <point x="428" y="494"/>
    </contour>
    <contour>
      <point x="155" y="599" type="curve" smooth="yes"/>
      <point x="52" y="599"/>
      <point x="15" y="536"/>
      <point x="15" y="465" type="curve" smooth="yes"/>
      <point x="15" y="433"/>
      <point x="19" y="406"/>
      <point x="24" y="380" type="curve"/>
      <point x="146" y="401" type="line"/>
      <point x="143" y="417"/>
      <point x="140" y="435"/>
      <point x="140" y="453" type="curve" smooth="yes"/>
      <point x="140" y="475"/>
      <point x="148" y="485"/>
      <point x="159" y="485" type="curve" smooth="yes"/>
      <point x="173" y="485"/>
      <point x="182" y="462"/>
      <point x="187" y="417" type="curve"/>
      <point x="314" y="446" type="line"/>
      <point x="294" y="545"/>
      <point x="245" y="599"/>
    </contour>
    <contour>
      <point x="955" y="-11" type="curve" smooth="yes"/>
      <point x="1090" y="-11"/>
      <point x="1157" y="88"/>
      <point x="1157" y="359" type="curve" smooth="yes"/>
      <point x="1157" y="694"/>
      <point x="1027" y="836"/>
      <point x="797" y="836" type="curve" smooth="yes"/>
      <point x="685" y="836"/>
      <point x="603" y="806"/>
      <point x="522" y="769" type="curve"/>
      <point x="571" y="652" type="line"/>
      <point x="633" y="682"/>
      <point x="702" y="706"/>
      <point x="791" y="706" type="curve" smooth="yes"/>
      <point x="960" y="706"/>
      <point x="1017" y="576"/>
      <point x="1017" y="363" type="curve" smooth="yes"/>
      <point x="1017" y="220"/>
      <point x="998" y="159"/>
      <point x="942" y="159" type="curve" smooth="yes"/>
      <point x="905" y="159"/>
      <point x="885" y="194"/>
      <point x="885" y="247" type="curve" smooth="yes"/>
      <point x="885" y="257" type="line"/>
      <point x="755" y="257" type="line"/>
      <point x="755" y="246" type="line" smooth="yes"/>
      <point x="755" y="185"/>
      <point x="738" y="159"/>
      <point x="699" y="159" type="curve" smooth="yes"/>
      <point x="661" y="159"/>
      <point x="644" y="191"/>
      <point x="644" y="246" type="curve" smooth="yes"/>
      <point x="644" y="317"/>
      <point x="689" y="358"/>
      <point x="764" y="361" type="curve"/>
      <point x="814" y="488" type="line"/>
      <point x="743" y="483" type="line"/>
      <point x="593" y="480"/>
      <point x="538" y="375"/>
      <point x="538" y="222" type="curve" smooth="yes"/>
      <point x="538" y="104"/>
      <point x="570" y="-11"/>
      <point x="694" y="-11" type="curve" smooth="yes"/>
      <point x="751" y="-11"/>
      <point x="790" y="17"/>
      <point x="819" y="68" type="curve"/>
      <point x="848" y="23"/>
      <point x="888" y="-11"/>
    </contour>
  </outline>
</glyph>
<glyph name="jnyasinh" format="2">
  <advance width="1001"/>
  <unicode hex="0DA5"/>
  <outline>
    <contour>
      <point x="449" y="-11" type="curve" smooth="yes"/>
      <point x="600" y="-11"/>
      <point x="653" y="100"/>
      <point x="653" y="235" type="curve" smooth="yes"/>
      <point x="653" y="322"/>
      <point x="618" y="385"/>
      <point x="563" y="385" type="curve" smooth="yes"/>
      <point x="543" y="385"/>
      <point x="523" y="379"/>
      <point x="515" y="376" type="curve"/>
      <point x="568" y="362" type="line"/>
      <point x="609" y="465"/>
      <point x="646" y="497"/>
      <point x="683" y="497" type="curve" smooth="yes"/>
      <point x="700" y="497"/>
      <point x="716" y="491"/>
      <point x="733" y="480" type="curve"/>
      <point x="845" y="579" type="line"/>
      <point x="796" y="610"/>
      <point x="761" y="622"/>
      <point x="692" y="622" type="curve" smooth="yes"/>
      <point x="542" y="622"/>
      <point x="465" y="488"/>
      <point x="418" y="289" type="curve"/>
      <point x="515" y="257" type="line"/>
      <point x="518" y="264"/>
      <point x="522" y="269"/>
      <point x="529" y="269" type="curve" smooth="yes"/>
      <point x="538" y="269"/>
      <point x="541" y="263"/>
      <point x="541" y="246" type="curve" smooth="yes"/>
      <point x="541" y="198"/>
      <point x="506" y="164"/>
      <point x="455" y="164" type="curve" smooth="yes"/>
      <point x="388" y="164"/>
      <point x="350" y="209"/>
      <point x="350" y="297" type="curve" smooth="yes"/>
      <point x="350" y="386"/>
      <point x="394" y="429"/>
      <point x="444" y="446" type="curve"/>
      <point x="493" y="579" type="line"/>
      <point x="365" y="541" type="line"/>
      <point x="274" y="492"/>
      <point x="215" y="408"/>
      <point x="215" y="271" type="curve" smooth="yes"/>
      <point x="215" y="117"/>
      <point x="287" y="-11"/>
    </contour>
    <contour>
      <point x="23" y="330" type="curve" smooth="yes"/>
      <point x="23" y="246"/>
      <point x="42" y="161"/>
      <point x="68" y="79" type="curve"/>
      <point x="192" y="119" type="line"/>
      <point x="172" y="178"/>
      <point x="155" y="244"/>
      <point x="155" y="323" type="curve" smooth="yes"/>
      <point x="155" y="430"/>
      <point x="204" y="510"/>
      <point x="323" y="510" type="curve" smooth="yes"/>
      <point x="370" y="510"/>
      <point x="409" y="497"/>
      <point x="446" y="483" type="curve"/>
      <point x="493" y="579" type="line"/>
      <point x="436" y="605"/>
      <point x="373" y="622"/>
      <point x="303" y="622" type="curve" smooth="yes"/>
      <point x="143" y="622"/>
      <point x="23" y="528"/>
    </contour>
    <contour>
      <point x="797" y="-11" type="curve" smooth="yes"/>
      <point x="889" y="-11"/>
      <point x="939" y="1"/>
      <point x="1000" y="31" type="curve"/>
      <point x="960" y="148" type="line"/>
      <point x="923" y="132"/>
      <point x="878" y="119"/>
      <point x="823" y="119" type="curve" smooth="yes"/>
      <point x="756" y="119"/>
      <point x="703" y="149"/>
      <point x="703" y="230" type="curve" smooth="yes"/>
      <point x="703" y="270"/>
      <point x="720" y="296"/>
      <point x="744" y="312" type="curve" smooth="yes"/>
      <point x="772" y="331"/>
      <point x="812" y="338"/>
      <point x="880" y="338" type="curve" smooth="yes"/>
      <point x="980" y="338" type="line"/>
      <point x="980" y="402" type="line" smooth="yes"/>
      <point x="980" y="533"/>
      <point x="934" y="622"/>
      <point x="817" y="622" type="curve" smooth="yes"/>
      <point x="725" y="622"/>
      <point x="679" y="575"/>
      <point x="679" y="493" type="curve" smooth="yes"/>
      <point x="679" y="481"/>
      <point x="680" y="466"/>
      <point x="681" y="458" type="curve"/>
      <point x="797" y="466" type="line"/>
      <point x="797" y="469"/>
      <point x="797" y="473"/>
      <point x="797" y="476" type="curve" smooth="yes"/>
      <point x="797" y="498"/>
      <point x="806" y="508"/>
      <point x="820" y="508" type="curve" smooth="yes"/>
      <point x="838" y="508"/>
      <point x="844" y="494"/>
      <point x="847" y="455" type="curve"/>
      <point x="842" y="455" type="line" smooth="yes"/>
      <point x="738" y="455"/>
      <point x="679" y="438"/>
      <point x="628" y="401" type="curve" smooth="yes"/>
      <point x="579" y="364"/>
      <point x="549" y="304"/>
      <point x="549" y="226" type="curve" smooth="yes"/>
      <point x="549" y="79"/>
      <point x="631" y="-11"/>
    </contour>
    <contour>
      <point x="911" y="-271" type="curve" smooth="yes"/>
      <point x="948" y="-271"/>
      <point x="977" y="-266"/>
      <point x="1015" y="-252" type="curve"/>
      <point x="982" y="-140" type="line"/>
      <point x="966" y="-146"/>
      <point x="952" y="-148"/>
      <point x="938" y="-148" type="curve" smooth="yes"/>
      <point x="913" y="-148"/>
      <point x="893" y="-135"/>
      <point x="893" y="-98" type="curve" smooth="yes"/>
      <point x="893" y="-54"/>
      <point x="914" y="-19"/>
      <point x="977" y="36" type="curve"/>
      <point x="953" y="95" type="line"/>
      <point x="914" y="89" type="line"/>
      <point x="803" y="24"/>
      <point x="750" y="-43"/>
      <point x="750" y="-127" type="curve" smooth="yes"/>
      <point x="750" y="-218"/>
      <point x="808" y="-271"/>
    </contour>
  </outline>
</glyph>
<glyph name="ttasinh" format="2">
  <advance width="656"/>
  <unicode hex="0DA7"/>
  <outline>
    <contour>
      <point x="288" y="-11" type="curve" smooth="yes"/>
      <point x="531" y="-11"/>
      <point x="634" y="172"/>
      <point x="634" y="420" type="curve" smooth="yes"/>
      <point x="634" y="689"/>
      <point x="516" y="836"/>
      <point x="295" y="836" type="curve" smooth="yes"/>
      <point x="200" y="836"/>
      <point x="117" y="813"/>
      <point x="34" y="775" type="curve"/>
      <point x="83" y="658" type="line"/>
      <point x="151" y="690"/>
      <point x="214" y="706"/>
      <point x="289" y="706" type="curve" smooth="yes"/>
      <point x="432" y="706"/>
      <point x="494" y="609"/>
      <point x="494" y="429" type="curve" smooth="yes"/>
      <point x="494" y="259"/>
      <point x="419" y="164"/>
      <point x="280" y="164" type="curve" smooth="yes"/>
      <point x="196" y="164"/>
      <point x="155" y="203"/>
      <point x="155" y="266" type="curve" smooth="yes"/>
      <point x="155" y="330"/>
      <point x="204" y="361"/>
      <point x="281" y="361" type="curve" smooth="yes"/>
      <point x="305" y="361"/>
      <point x="330" y="359"/>
      <point x="341" y="357" type="curve"/>
      <point x="351" y="485" type="line"/>
      <point x="331" y="489"/>
      <point x="306" y="491"/>
      <point x="283" y="491" type="curve" smooth="yes"/>
      <point x="119" y="491"/>
      <point x="20" y="406"/>
      <point x="20" y="248" type="curve" smooth="yes"/>
      <point x="20" y="82"/>
      <point x="128" y="-11"/>
    </contour>
  </outline>
</glyph>
<glyph name="tthasinh" format="2">
  <advance width="712"/>
  <unicode hex="0DA8"/>
  <outline>
    <contour>
      <point x="478" y="-11" type="curve" smooth="yes"/>
      <point x="616" y="-11"/>
      <point x="684" y="93"/>
      <point x="684" y="334" type="curve" smooth="yes"/>
      <point x="684" y="639"/>
      <point x="501" y="806"/>
      <point x="374" y="867" type="curve"/>
      <point x="284" y="756" type="line"/>
      <point x="304" y="753"/>
      <point x="320" y="749"/>
      <point x="342" y="741" type="curve"/>
      <point x="435" y="684"/>
      <point x="544" y="549"/>
      <point x="544" y="332" type="curve" smooth="yes"/>
      <point x="544" y="223"/>
      <point x="524" y="159"/>
      <point x="465" y="159" type="curve" smooth="yes"/>
      <point x="426" y="159"/>
      <point x="405" y="194"/>
      <point x="405" y="249" type="curve" smooth="yes"/>
      <point x="405" y="257" type="line"/>
      <point x="275" y="257" type="line"/>
      <point x="275" y="248" type="line" smooth="yes"/>
      <point x="275" y="187"/>
      <point x="257" y="159"/>
      <point x="216" y="159" type="curve" smooth="yes"/>
      <point x="175" y="159"/>
      <point x="157" y="193"/>
      <point x="157" y="246" type="curve" smooth="yes"/>
      <point x="157" y="323"/>
      <point x="206" y="361"/>
      <point x="286" y="361" type="curve" smooth="yes"/>
      <point x="300" y="361"/>
      <point x="326" y="360"/>
      <point x="344" y="357" type="curve"/>
      <point x="354" y="485" type="line"/>
      <point x="333" y="489"/>
      <point x="307" y="491"/>
      <point x="289" y="491" type="curve" smooth="yes"/>
      <point x="104" y="491"/>
      <point x="22" y="376"/>
      <point x="22" y="222" type="curve" smooth="yes"/>
      <point x="22" y="81"/>
      <point x="83" y="-11"/>
      <point x="208" y="-11" type="curve" smooth="yes"/>
      <point x="269" y="-11"/>
      <point x="309" y="17"/>
      <point x="339" y="68" type="curve"/>
      <point x="369" y="23"/>
      <point x="408" y="-11"/>
    </contour>
    <contour>
      <point x="422" y="503" type="curve" smooth="yes"/>
      <point x="482" y="503"/>
      <point x="518" y="527"/>
      <point x="557" y="589" type="curve"/>
      <point x="489" y="662" type="line"/>
      <point x="471" y="628"/>
      <point x="452" y="611"/>
      <point x="432" y="611" type="curve" smooth="yes"/>
      <point x="417" y="611"/>
      <point x="405" y="620"/>
      <point x="404" y="652" type="curve" smooth="yes"/>
      <point x="403" y="696"/>
      <point x="387" y="731"/>
      <point x="370" y="750" type="curve"/>
      <point x="284" y="756" type="line"/>
      <point x="295" y="749"/>
      <point x="298" y="735"/>
      <point x="298" y="649" type="curve" smooth="yes"/>
      <point x="298" y="556"/>
      <point x="333" y="503"/>
    </contour>
  </outline>
</glyph>
<glyph name="ddasinh" format="2">
  <advance width="738"/>
  <unicode hex="0DA9"/>
  <outline>
    <contour>
      <point x="505" y="-11" type="curve" smooth="yes"/>
      <point x="643" y="-11"/>
      <point x="711" y="90"/>
      <point x="711" y="359" type="curve" smooth="yes"/>
      <point x="711" y="692"/>
      <point x="575" y="836"/>
      <point x="337" y="836" type="curve" smooth="yes"/>
      <point x="227" y="836"/>
      <point x="143" y="808"/>
      <point x="52" y="766" type="curve"/>
      <point x="101" y="649" type="line"/>
      <point x="173" y="683"/>
      <point x="240" y="706"/>
      <point x="332" y="706" type="curve" smooth="yes"/>
      <point x="509" y="706"/>
      <point x="571" y="573"/>
      <point x="571" y="363" type="curve" smooth="yes"/>
      <point x="571" y="223"/>
      <point x="551" y="159"/>
      <point x="492" y="159" type="curve" smooth="yes"/>
      <point x="453" y="159"/>
      <point x="432" y="196"/>
      <point x="432" y="249" type="curve" smooth="yes"/>
      <point x="432" y="257" type="line"/>
      <point x="302" y="257" type="line"/>
      <point x="302" y="245" type="line" smooth="yes"/>
      <point x="302" y="176"/>
      <point x="269" y="159"/>
      <point x="239" y="159" type="curve" smooth="yes"/>
      <point x="199" y="159"/>
      <point x="180" y="183"/>
      <point x="180" y="234" type="curve" smooth="yes"/>
      <point x="180" y="271"/>
      <point x="192" y="298"/>
      <point x="211" y="314" type="curve" smooth="yes"/>
      <point x="231" y="331"/>
      <point x="256" y="338"/>
      <point x="303" y="338" type="curve" smooth="yes"/>
      <point x="375" y="338" type="line"/>
      <point x="375" y="402" type="line" smooth="yes"/>
      <point x="375" y="533"/>
      <point x="331" y="622"/>
      <point x="218" y="622" type="curve" smooth="yes"/>
      <point x="123" y="622"/>
      <point x="78" y="575"/>
      <point x="78" y="493" type="curve" smooth="yes"/>
      <point x="78" y="488"/>
      <point x="78" y="479"/>
      <point x="79" y="469" type="curve"/>
      <point x="202" y="473" type="line"/>
      <point x="202" y="474"/>
      <point x="202" y="475"/>
      <point x="202" y="476" type="curve"/>
      <point x="202" y="498"/>
      <point x="210" y="508"/>
      <point x="222" y="508" type="curve" smooth="yes"/>
      <point x="235" y="508"/>
      <point x="242" y="494"/>
      <point x="244" y="455" type="curve"/>
      <point x="20" y="455" type="line"/>
      <point x="20" y="338" type="line"/>
      <point x="46" y="338" type="line" smooth="yes"/>
      <point x="83" y="338"/>
      <point x="122" y="342"/>
      <point x="155" y="349" type="curve"/>
      <point x="123" y="364" type="line"/>
      <point x="73" y="325"/>
      <point x="41" y="276"/>
      <point x="41" y="186" type="curve" smooth="yes"/>
      <point x="41" y="78"/>
      <point x="98" y="-11"/>
      <point x="220" y="-11" type="curve" smooth="yes"/>
      <point x="297" y="-11"/>
      <point x="338" y="20"/>
      <point x="366" y="68" type="curve"/>
      <point x="396" y="23"/>
      <point x="435" y="-11"/>
    </contour>
  </outline>
</glyph>
<glyph name="nnddasinh" format="2">
  <advance width="908"/>
  <unicode hex="0DAC"/>
  <outline>
    <contour>
      <point x="675" y="-11" type="curve" smooth="yes"/>
      <point x="813" y="-11"/>
      <point x="881" y="90"/>
      <point x="881" y="359" type="curve" smooth="yes"/>
      <point x="881" y="692"/>
      <point x="745" y="836"/>
      <point x="507" y="836" type="curve" smooth="yes"/>
      <point x="397" y="836"/>
      <point x="313" y="808"/>
      <point x="222" y="766" type="curve"/>
      <point x="271" y="649" type="line"/>
      <point x="343" y="683"/>
      <point x="410" y="706"/>
      <point x="502" y="706" type="curve" smooth="yes"/>
      <point x="679" y="706"/>
      <point x="741" y="573"/>
      <point x="741" y="363" type="curve" smooth="yes"/>
      <point x="741" y="223"/>
      <point x="721" y="159"/>
      <point x="662" y="159" type="curve" smooth="yes"/>
      <point x="623" y="159"/>
      <point x="602" y="196"/>
      <point x="602" y="249" type="curve" smooth="yes"/>
      <point x="602" y="257" type="line"/>
      <point x="472" y="257" type="line"/>
      <point x="472" y="245" type="line" smooth="yes"/>
      <point x="472" y="176"/>
      <point x="439" y="159"/>
      <point x="409" y="159" type="curve" smooth="yes"/>
      <point x="369" y="159"/>
      <point x="350" y="183"/>
      <point x="350" y="234" type="curve" smooth="yes"/>
      <point x="350" y="271"/>
      <point x="362" y="298"/>
      <point x="381" y="314" type="curve" smooth="yes"/>
      <point x="401" y="331"/>
      <point x="426" y="338"/>
      <point x="473" y="338" type="curve" smooth="yes"/>
      <point x="553" y="338" type="line"/>
      <point x="553" y="402" type="line" smooth="yes"/>
      <point x="553" y="533"/>
      <point x="509" y="622"/>
      <point x="396" y="622" type="curve" smooth="yes"/>
      <point x="301" y="622"/>
      <point x="256" y="575"/>
      <point x="256" y="493" type="curve" smooth="yes"/>
      <point x="256" y="488"/>
      <point x="256" y="479"/>
      <point x="257" y="469" type="curve"/>
      <point x="380" y="473" type="line"/>
      <point x="380" y="474"/>
      <point x="380" y="475"/>
      <point x="380" y="476" type="curve" smooth="yes"/>
      <point x="380" y="498"/>
      <point x="388" y="508"/>
      <point x="400" y="508" type="curve" smooth="yes"/>
      <point x="413" y="508"/>
      <point x="420" y="494"/>
      <point x="422" y="455" type="curve"/>
      <point x="192" y="455" type="line"/>
      <point x="192" y="338" type="line"/>
      <point x="216" y="338" type="line" smooth="yes"/>
      <point x="253" y="338"/>
      <point x="292" y="342"/>
      <point x="325" y="349" type="curve"/>
      <point x="293" y="364" type="line"/>
      <point x="243" y="325"/>
      <point x="211" y="276"/>
      <point x="211" y="186" type="curve" smooth="yes"/>
      <point x="211" y="78"/>
      <point x="268" y="-11"/>
      <point x="390" y="-11" type="curve" smooth="yes"/>
      <point x="467" y="-11"/>
      <point x="508" y="20"/>
      <point x="536" y="68" type="curve"/>
      <point x="566" y="23"/>
      <point x="605" y="-11"/>
    </contour>
    <contour>
      <point x="23" y="338" type="curve" smooth="yes"/>
      <point x="23" y="240"/>
      <point x="48" y="146"/>
      <point x="72" y="79" type="curve"/>
      <point x="196" y="119" type="line"/>
      <point x="174" y="172"/>
      <point x="155" y="252"/>
      <point x="155" y="329" type="curve" smooth="yes"/>
      <point x="155" y="454"/>
      <point x="218" y="512"/>
      <point x="305" y="512" type="curve" smooth="yes"/>
      <point x="338" y="512"/>
      <point x="347" y="511"/>
      <point x="358" y="510" type="curve"/>
      <point x="434" y="600" type="line"/>
      <point x="401" y="615"/>
      <point x="362" y="622"/>
      <point x="314" y="622" type="curve" smooth="yes"/>
      <point x="135" y="622"/>
      <point x="23" y="528"/>
    </contour>
  </outline>
</glyph>
<glyph name="tasinh" format="2">
  <advance width="806"/>
  <unicode hex="0DAD"/>
  <outline>
    <contour>
      <point x="346" y="-11" type="curve" smooth="yes"/>
      <point x="506" y="-11"/>
      <point x="549" y="122"/>
      <point x="549" y="234" type="curve" smooth="yes"/>
      <point x="549" y="346"/>
      <point x="503" y="446"/>
      <point x="370" y="446" type="curve" smooth="yes"/>
      <point x="342" y="446"/>
      <point x="308" y="438"/>
      <point x="278" y="425" type="curve"/>
      <point x="221" y="319" type="line"/>
      <point x="256" y="331"/>
      <point x="286" y="335"/>
      <point x="326" y="335" type="curve" smooth="yes"/>
      <point x="396" y="335"/>
      <point x="418" y="298"/>
      <point x="418" y="240" type="curve" smooth="yes"/>
      <point x="418" y="185"/>
      <point x="388" y="159"/>
      <point x="339" y="159" type="curve" smooth="yes"/>
      <point x="286" y="159"/>
      <point x="262" y="186"/>
      <point x="262" y="236" type="curve" smooth="yes"/>
      <point x="262" y="242"/>
      <point x="262" y="253"/>
      <point x="264" y="263" type="curve"/>
      <point x="161" y="270" type="line"/>
      <point x="157" y="251"/>
      <point x="153" y="221"/>
      <point x="153" y="177" type="curve" smooth="yes"/>
      <point x="153" y="85"/>
      <point x="190" y="-11"/>
    </contour>
    <contour>
      <point x="561" y="-2" type="curve" smooth="yes"/>
      <point x="691" y="-2"/>
      <point x="780" y="80"/>
      <point x="780" y="285" type="curve" smooth="yes"/>
      <point x="780" y="493"/>
      <point x="677" y="622"/>
      <point x="501" y="622" type="curve" smooth="yes"/>
      <point x="388" y="622"/>
      <point x="309" y="573"/>
      <point x="229" y="488" type="curve"/>
      <point x="205" y="464" type="line"/>
      <point x="157" y="404"/>
      <point x="84" y="299"/>
      <point x="11" y="176" type="curve"/>
      <point x="137" y="113" type="line"/>
      <point x="162" y="173" type="line"/>
      <point x="181" y="201" type="line"/>
      <point x="219" y="272"/>
      <point x="270" y="346"/>
      <point x="302" y="387" type="curve"/>
      <point x="323" y="428" type="line"/>
      <point x="367" y="463"/>
      <point x="413" y="484"/>
      <point x="481" y="484" type="curve" smooth="yes"/>
      <point x="595" y="484"/>
      <point x="642" y="381"/>
      <point x="642" y="274" type="curve" smooth="yes"/>
      <point x="642" y="190"/>
      <point x="621" y="127"/>
      <point x="544" y="127" type="curve" smooth="yes"/>
      <point x="540" y="127"/>
      <point x="537" y="127"/>
      <point x="534" y="128" type="curve"/>
      <point x="529" y="0" type="line"/>
      <point x="533" y="-1"/>
      <point x="550" y="-2"/>
    </contour>
    <contour>
      <point x="156" y="599" type="curve" smooth="yes"/>
      <point x="52" y="599"/>
      <point x="15" y="536"/>
      <point x="15" y="465" type="curve" smooth="yes"/>
      <point x="15" y="433"/>
      <point x="19" y="406"/>
      <point x="24" y="380" type="curve"/>
      <point x="146" y="401" type="line"/>
      <point x="143" y="417"/>
      <point x="140" y="435"/>
      <point x="140" y="453" type="curve" smooth="yes"/>
      <point x="140" y="475"/>
      <point x="148" y="485"/>
      <point x="159" y="485" type="curve" smooth="yes"/>
      <point x="173" y="485"/>
      <point x="182" y="462"/>
      <point x="187" y="417" type="curve"/>
      <point x="314" y="446" type="line"/>
      <point x="294" y="545"/>
      <point x="245" y="599"/>
    </contour>
  </outline>
</glyph>
<glyph name="thasinh" format="2">
  <advance width="656"/>
  <unicode hex="0DAE"/>
  <outline>
    <contour>
      <point x="288" y="-11" type="curve" smooth="yes"/>
      <point x="533" y="-11"/>
      <point x="634" y="170"/>
      <point x="634" y="407" type="curve" smooth="yes"/>
      <point x="634" y="658"/>
      <point x="492" y="799"/>
      <point x="356" y="867" type="curve"/>
      <point x="268" y="758" type="line"/>
      <point x="288" y="755"/>
      <point x="306" y="749"/>
      <point x="322" y="741" type="curve"/>
      <point x="403" y="698"/>
      <point x="494" y="593"/>
      <point x="494" y="404" type="curve" smooth="yes"/>
      <point x="494" y="257"/>
      <point x="419" y="164"/>
      <point x="280" y="164" type="curve" smooth="yes"/>
      <point x="196" y="164"/>
      <point x="155" y="203"/>
      <point x="155" y="266" type="curve" smooth="yes"/>
      <point x="155" y="330"/>
      <point x="204" y="361"/>
      <point x="281" y="361" type="curve" smooth="yes"/>
      <point x="305" y="361"/>
      <point x="330" y="359"/>
      <point x="341" y="357" type="curve"/>
      <point x="351" y="485" type="line"/>
      <point x="331" y="489"/>
      <point x="306" y="491"/>
      <point x="283" y="491" type="curve" smooth="yes"/>
      <point x="119" y="491"/>
      <point x="20" y="406"/>
      <point x="20" y="248" type="curve" smooth="yes"/>
      <point x="20" y="82"/>
      <point x="128" y="-11"/>
    </contour>
    <contour>
      <point x="405" y="503" type="curve" smooth="yes"/>
      <point x="457" y="503"/>
      <point x="497" y="527"/>
      <point x="536" y="589" type="curve"/>
      <point x="472" y="662" type="line"/>
      <point x="454" y="628"/>
      <point x="435" y="611"/>
      <point x="415" y="611" type="curve" smooth="yes"/>
      <point x="400" y="611"/>
      <point x="388" y="620"/>
      <point x="387" y="652" type="curve" smooth="yes"/>
      <point x="386" y="696"/>
      <point x="370" y="731"/>
      <point x="353" y="750" type="curve"/>
      <point x="268" y="758" type="line"/>
      <point x="279" y="751"/>
      <point x="281" y="742"/>
      <point x="281" y="649" type="curve" smooth="yes"/>
      <point x="281" y="556"/>
      <point x="316" y="503"/>
    </contour>
  </outline>
</glyph>
<glyph name="dasinh" format="2">
  <advance width="502"/>
  <unicode hex="0DAF"/>
  <outline>
    <contour>
      <point x="292" y="-11" type="curve" smooth="yes"/>
      <point x="386" y="-11"/>
      <point x="438" y="1"/>
      <point x="501" y="31" type="curve"/>
      <point x="461" y="148" type="line"/>
      <point x="422" y="132"/>
      <point x="374" y="119"/>
      <point x="316" y="119" type="curve" smooth="yes"/>
      <point x="245" y="119"/>
      <point x="189" y="149"/>
      <point x="189" y="230" type="curve" smooth="yes"/>
      <point x="189" y="269"/>
      <point x="207" y="296"/>
      <point x="232" y="312" type="curve" smooth="yes"/>
      <point x="262" y="331"/>
      <point x="308" y="338"/>
      <point x="372" y="338" type="curve" smooth="yes"/>
      <point x="481" y="338" type="line"/>
      <point x="481" y="402" type="line" smooth="yes"/>
      <point x="481" y="533"/>
      <point x="435" y="622"/>
      <point x="318" y="622" type="curve" smooth="yes"/>
      <point x="218" y="622"/>
      <point x="174" y="575"/>
      <point x="174" y="493" type="curve" smooth="yes"/>
      <point x="174" y="481"/>
      <point x="175" y="466"/>
      <point x="176" y="458" type="curve"/>
      <point x="298" y="466" type="line"/>
      <point x="298" y="469"/>
      <point x="298" y="473"/>
      <point x="298" y="476" type="curve" smooth="yes"/>
      <point x="298" y="498"/>
      <point x="307" y="508"/>
      <point x="321" y="508" type="curve" smooth="yes"/>
      <point x="339" y="508"/>
      <point x="345" y="494"/>
      <point x="348" y="455" type="curve"/>
      <point x="343" y="455" type="line" smooth="yes"/>
      <point x="233" y="455"/>
      <point x="162" y="438"/>
      <point x="107" y="401" type="curve" smooth="yes"/>
      <point x="52" y="364"/>
      <point x="19" y="304"/>
      <point x="19" y="226" type="curve" smooth="yes"/>
      <point x="19" y="79"/>
      <point x="109" y="-11"/>
    </contour>
    <contour>
      <point x="412" y="-271" type="curve" smooth="yes"/>
      <point x="449" y="-271"/>
      <point x="478" y="-266"/>
      <point x="516" y="-252" type="curve"/>
      <point x="483" y="-140" type="line"/>
      <point x="467" y="-146"/>
      <point x="453" y="-148"/>
      <point x="439" y="-148" type="curve" smooth="yes"/>
      <point x="414" y="-148"/>
      <point x="394" y="-135"/>
      <point x="394" y="-98" type="curve" smooth="yes"/>
      <point x="394" y="-54"/>
      <point x="415" y="-19"/>
      <point x="478" y="36" type="curve"/>
      <point x="454" y="95" type="line"/>
      <point x="415" y="89" type="line"/>
      <point x="304" y="24"/>
      <point x="251" y="-43"/>
      <point x="251" y="-127" type="curve" smooth="yes"/>
      <point x="251" y="-218"/>
      <point x="309" y="-271"/>
    </contour>
  </outline>
</glyph>
<glyph name="dhasinh" format="2">
  <advance width="711"/>
  <unicode hex="0DB0"/>
  <outline>
    <contour>
      <point x="478" y="-11" type="curve" smooth="yes"/>
      <point x="616" y="-11"/>
      <point x="684" y="90"/>
      <point x="684" y="359" type="curve" smooth="yes"/>
      <point x="684" y="692"/>
      <point x="548" y="836"/>
      <point x="316" y="836" type="curve" smooth="yes"/>
      <point x="203" y="836"/>
      <point x="118" y="805"/>
      <point x="35" y="768" type="curve"/>
      <point x="84" y="651" type="line"/>
      <point x="148" y="681"/>
      <point x="215" y="706"/>
      <point x="311" y="706" type="curve" smooth="yes"/>
      <point x="482" y="706"/>
      <point x="544" y="573"/>
      <point x="544" y="363" type="curve" smooth="yes"/>
      <point x="544" y="223"/>
      <point x="524" y="159"/>
      <point x="465" y="159" type="curve" smooth="yes"/>
      <point x="426" y="159"/>
      <point x="405" y="196"/>
      <point x="405" y="249" type="curve" smooth="yes"/>
      <point x="405" y="257" type="line"/>
      <point x="275" y="257" type="line"/>
      <point x="275" y="248" type="line" smooth="yes"/>
      <point x="275" y="187"/>
      <point x="257" y="159"/>
      <point x="216" y="159" type="curve" smooth="yes"/>
      <point x="175" y="159"/>
      <point x="157" y="193"/>
      <point x="157" y="246" type="curve" smooth="yes"/>
      <point x="157" y="323"/>
      <point x="206" y="361"/>
      <point x="286" y="361" type="curve" smooth="yes"/>
      <point x="300" y="361"/>
      <point x="326" y="360"/>
      <point x="344" y="357" type="curve"/>
      <point x="354" y="485" type="line"/>
      <point x="333" y="489"/>
      <point x="307" y="491"/>
      <point x="289" y="491" type="curve" smooth="yes"/>
      <point x="104" y="491"/>
      <point x="22" y="376"/>
      <point x="22" y="222" type="curve" smooth="yes"/>
      <point x="22" y="81"/>
      <point x="83" y="-11"/>
      <point x="208" y="-11" type="curve" smooth="yes"/>
      <point x="269" y="-11"/>
      <point x="309" y="17"/>
      <point x="339" y="68" type="curve"/>
      <point x="369" y="23"/>
      <point x="409" y="-11"/>
    </contour>
  </outline>
</glyph>
<glyph name="nasinh" format="2">
  <advance width="799"/>
  <unicode hex="0DB1"/>
  <outline>
    <contour>
      <point x="304" y="-11" type="curve" smooth="yes"/>
      <point x="502" y="-11"/>
      <point x="542" y="118"/>
      <point x="542" y="235" type="curve" smooth="yes"/>
      <point x="542" y="346"/>
      <point x="488" y="446"/>
      <point x="342" y="446" type="curve" smooth="yes"/>
      <point x="313" y="446"/>
      <point x="285" y="441"/>
      <point x="261" y="435" type="curve"/>
      <point x="204" y="313" type="line"/>
      <point x="251" y="331"/>
      <point x="288" y="335"/>
      <point x="315" y="335" type="curve" smooth="yes"/>
      <point x="384" y="335"/>
      <point x="411" y="296"/>
      <point x="411" y="246" type="curve" smooth="yes"/>
      <point x="411" y="193"/>
      <point x="378" y="159"/>
      <point x="307" y="159" type="curve" smooth="yes"/>
      <point x="207" y="159"/>
      <point x="159" y="222"/>
      <point x="133" y="318" type="curve"/>
      <point x="14" y="301" type="line"/>
      <point x="38" y="99"/>
      <point x="139" y="-11"/>
    </contour>
    <contour>
      <point x="564" y="-3" type="curve" smooth="yes"/>
      <point x="700" y="-3"/>
      <point x="773" y="73"/>
      <point x="773" y="285" type="curve" smooth="yes"/>
      <point x="773" y="496"/>
      <point x="662" y="622"/>
      <point x="499" y="622" type="curve" smooth="yes"/>
      <point x="375" y="622"/>
      <point x="304" y="549"/>
      <point x="259" y="456" type="curve"/>
      <point x="235" y="431" type="line"/>
      <point x="215" y="325"/>
      <point x="174" y="297"/>
      <point x="147" y="297" type="curve" smooth="yes"/>
      <point x="131" y="297"/>
      <point x="115" y="300"/>
      <point x="97" y="304" type="curve"/>
      <point x="75" y="206" type="line"/>
      <point x="97" y="199"/>
      <point x="130" y="195"/>
      <point x="162" y="195" type="curve" smooth="yes"/>
      <point x="254" y="195"/>
      <point x="323" y="249"/>
      <point x="335" y="363" type="curve"/>
      <point x="344" y="391" type="line"/>
      <point x="379" y="455"/>
      <point x="421" y="484"/>
      <point x="479" y="484" type="curve" smooth="yes"/>
      <point x="582" y="484"/>
      <point x="635" y="390"/>
      <point x="635" y="266" type="curve" smooth="yes"/>
      <point x="635" y="181"/>
      <point x="617" y="126"/>
      <point x="549" y="126" type="curve" smooth="yes"/>
      <point x="540" y="126"/>
      <point x="532" y="126"/>
      <point x="527" y="127" type="curve"/>
      <point x="519" y="-1" type="line"/>
      <point x="529" y="-2"/>
      <point x="551" y="-3"/>
    </contour>
    <contour>
      <point x="192" y="599" type="curve" smooth="yes"/>
      <point x="88" y="599"/>
      <point x="51" y="536"/>
      <point x="51" y="465" type="curve" smooth="yes"/>
      <point x="51" y="433"/>
      <point x="55" y="406"/>
      <point x="60" y="380" type="curve"/>
      <point x="182" y="401" type="line"/>
      <point x="179" y="417"/>
      <point x="176" y="435"/>
      <point x="176" y="453" type="curve" smooth="yes"/>
      <point x="176" y="475"/>
      <point x="184" y="485"/>
      <point x="195" y="485" type="curve" smooth="yes"/>
      <point x="211" y="485"/>
      <point x="224" y="455"/>
      <point x="233" y="374" type="curve"/>
      <point x="345" y="431" type="line"/>
      <point x="321" y="537"/>
      <point x="281" y="599"/>
    </contour>
  </outline>
</glyph>
<glyph name="ndasinh" format="2">
  <advance width="667"/>
  <unicode hex="0DB3"/>
  <outline>
    <contour>
      <point x="463" y="-11" type="curve" smooth="yes"/>
      <point x="555" y="-11"/>
      <point x="605" y="1"/>
      <point x="666" y="31" type="curve"/>
      <point x="626" y="148" type="line"/>
      <point x="589" y="132"/>
      <point x="544" y="119"/>
      <point x="489" y="119" type="curve" smooth="yes"/>
      <point x="422" y="119"/>
      <point x="369" y="149"/>
      <point x="369" y="230" type="curve" smooth="yes"/>
      <point x="369" y="270"/>
      <point x="386" y="296"/>
      <point x="410" y="312" type="curve" smooth="yes"/>
      <point x="438" y="331"/>
      <point x="478" y="338"/>
      <point x="546" y="338" type="curve" smooth="yes"/>
      <point x="646" y="338" type="line"/>
      <point x="646" y="402" type="line" smooth="yes"/>
      <point x="646" y="533"/>
      <point x="600" y="622"/>
      <point x="483" y="622" type="curve" smooth="yes"/>
      <point x="383" y="622"/>
      <point x="339" y="575"/>
      <point x="339" y="493" type="curve" smooth="yes"/>
      <point x="339" y="481"/>
      <point x="340" y="466"/>
      <point x="341" y="458" type="curve"/>
      <point x="463" y="466" type="line"/>
      <point x="463" y="469"/>
      <point x="463" y="473"/>
      <point x="463" y="476" type="curve" smooth="yes"/>
      <point x="463" y="498"/>
      <point x="472" y="508"/>
      <point x="486" y="508" type="curve" smooth="yes"/>
      <point x="504" y="508"/>
      <point x="510" y="494"/>
      <point x="513" y="455" type="curve"/>
      <point x="508" y="455" type="line" smooth="yes"/>
      <point x="404" y="455"/>
      <point x="337" y="438"/>
      <point x="284" y="401" type="curve" smooth="yes"/>
      <point x="232" y="364"/>
      <point x="201" y="304"/>
      <point x="201" y="226" type="curve" smooth="yes"/>
      <point x="201" y="79"/>
      <point x="288" y="-11"/>
    </contour>
    <contour>
      <point x="577" y="-271" type="curve" smooth="yes"/>
      <point x="614" y="-271"/>
      <point x="643" y="-266"/>
      <point x="681" y="-252" type="curve"/>
      <point x="648" y="-140" type="line"/>
      <point x="632" y="-146"/>
      <point x="618" y="-148"/>
      <point x="604" y="-148" type="curve" smooth="yes"/>
      <point x="579" y="-148"/>
      <point x="559" y="-135"/>
      <point x="559" y="-98" type="curve" smooth="yes"/>
      <point x="559" y="-54"/>
      <point x="580" y="-19"/>
      <point x="643" y="36" type="curve"/>
      <point x="619" y="95" type="line"/>
      <point x="580" y="89" type="line"/>
      <point x="469" y="24"/>
      <point x="416" y="-43"/>
      <point x="416" y="-127" type="curve" smooth="yes"/>
      <point x="416" y="-218"/>
      <point x="474" y="-271"/>
    </contour>
    <contour>
      <point x="23" y="333" type="curve" smooth="yes"/>
      <point x="23" y="243"/>
      <point x="45" y="158"/>
      <point x="71" y="79" type="curve"/>
      <point x="195" y="118" type="line"/>
      <point x="171" y="182"/>
      <point x="155" y="253"/>
      <point x="155" y="325" type="curve" smooth="yes"/>
      <point x="155" y="433"/>
      <point x="210" y="509"/>
      <point x="330" y="509" type="curve" smooth="yes"/>
      <point x="356" y="509"/>
      <point x="378" y="505"/>
      <point x="399" y="502" type="curve"/>
      <point x="442" y="609" type="line"/>
      <point x="403" y="617"/>
      <point x="372" y="622"/>
      <point x="311" y="622" type="curve" smooth="yes"/>
      <point x="138" y="622"/>
      <point x="23" y="528"/>
    </contour>
  </outline>
</glyph>
<glyph name="pasinh" format="2">
  <advance width="660"/>
  <unicode hex="0DB4"/>
  <outline>
    <contour>
      <point x="330" y="-11" type="curve" smooth="yes"/>
      <point x="548" y="-11"/>
      <point x="637" y="92"/>
      <point x="637" y="243" type="curve" smooth="yes"/>
      <point x="637" y="388"/>
      <point x="550" y="455"/>
      <point x="430" y="455" type="curve" smooth="yes"/>
      <point x="394" y="455" type="line"/>
      <point x="463" y="447" type="line"/>
      <point x="466" y="494"/>
      <point x="473" y="508"/>
      <point x="488" y="508" type="curve" smooth="yes"/>
      <point x="498" y="508"/>
      <point x="506" y="498"/>
      <point x="506" y="476" type="curve" smooth="yes"/>
      <point x="506" y="470"/>
      <point x="506" y="464"/>
      <point x="505" y="458" type="curve"/>
      <point x="627" y="446" type="line"/>
      <point x="629" y="462"/>
      <point x="630" y="483"/>
      <point x="630" y="493" type="curve" smooth="yes"/>
      <point x="630" y="575"/>
      <point x="586" y="622"/>
      <point x="494" y="622" type="curve" smooth="yes"/>
      <point x="381" y="622"/>
      <point x="342" y="528"/>
      <point x="342" y="394" type="curve" smooth="yes"/>
      <point x="342" y="338" type="line"/>
      <point x="372" y="338" type="line" smooth="yes"/>
      <point x="421" y="338"/>
      <point x="454" y="334"/>
      <point x="475" y="320" type="curve" smooth="yes"/>
      <point x="492" y="309"/>
      <point x="502" y="291"/>
      <point x="502" y="263" type="curve" smooth="yes"/>
      <point x="502" y="200"/>
      <point x="459" y="164"/>
      <point x="329" y="164" type="curve" smooth="yes"/>
      <point x="201" y="164"/>
      <point x="158" y="200"/>
      <point x="158" y="263" type="curve" smooth="yes"/>
      <point x="158" y="290"/>
      <point x="168" y="309"/>
      <point x="185" y="320" type="curve" smooth="yes"/>
      <point x="206" y="334"/>
      <point x="239" y="338"/>
      <point x="288" y="338" type="curve" smooth="yes"/>
      <point x="318" y="338" type="line"/>
      <point x="318" y="395" type="line" smooth="yes"/>
      <point x="318" y="528"/>
      <point x="279" y="622"/>
      <point x="167" y="622" type="curve" smooth="yes"/>
      <point x="74" y="622"/>
      <point x="30" y="575"/>
      <point x="30" y="493" type="curve" smooth="yes"/>
      <point x="30" y="482"/>
      <point x="31" y="462"/>
      <point x="33" y="446" type="curve"/>
      <point x="155" y="458" type="line"/>
      <point x="154" y="464"/>
      <point x="154" y="470"/>
      <point x="154" y="476" type="curve" smooth="yes"/>
      <point x="154" y="498"/>
      <point x="162" y="508"/>
      <point x="174" y="508" type="curve" smooth="yes"/>
      <point x="187" y="508"/>
      <point x="194" y="494"/>
      <point x="197" y="447" type="curve"/>
      <point x="266" y="455" type="line"/>
      <point x="230" y="455" type="line" smooth="yes"/>
      <point x="110" y="455"/>
      <point x="23" y="388"/>
      <point x="23" y="244" type="curve" smooth="yes"/>
      <point x="23" y="92"/>
      <point x="112" y="-11"/>
    </contour>
  </outline>
</glyph>
<glyph name="basinh" format="2">
  <advance width="790"/>
  <unicode hex="0DB6"/>
  <outline>
    <contour>
      <point x="521" y="-11" type="curve" smooth="yes"/>
      <point x="637" y="-11"/>
      <point x="763" y="66"/>
      <point x="763" y="379" type="curve" smooth="yes"/>
      <point x="763" y="683"/>
      <point x="625" y="836"/>
      <point x="368" y="836" type="curve" smooth="yes"/>
      <point x="241" y="836"/>
      <point x="146" y="807"/>
      <point x="53" y="766" type="curve"/>
      <point x="102" y="649" type="line"/>
      <point x="175" y="683"/>
      <point x="259" y="706"/>
      <point x="364" y="706" type="curve" smooth="yes"/>
      <point x="559" y="706"/>
      <point x="624" y="577"/>
      <point x="624" y="385" type="curve" smooth="yes"/>
      <point x="624" y="207"/>
      <point x="581" y="149"/>
      <point x="545" y="149" type="curve" smooth="yes"/>
      <point x="527" y="149"/>
      <point x="513" y="159"/>
      <point x="513" y="187" type="curve" smooth="yes"/>
      <point x="513" y="209"/>
      <point x="518" y="232"/>
      <point x="524" y="255" type="curve" smooth="yes"/>
      <point x="535" y="299"/>
      <point x="543" y="333"/>
      <point x="543" y="382" type="curve" smooth="yes"/>
      <point x="543" y="508"/>
      <point x="449" y="586"/>
      <point x="312" y="586" type="curve" smooth="yes"/>
      <point x="116" y="586"/>
      <point x="25" y="426"/>
      <point x="25" y="251" type="curve" smooth="yes"/>
      <point x="25" y="68"/>
      <point x="102" y="-11"/>
      <point x="210" y="-11" type="curve" smooth="yes"/>
      <point x="319" y="-11"/>
      <point x="367" y="50"/>
      <point x="367" y="138" type="curve" smooth="yes"/>
      <point x="367" y="210"/>
      <point x="335" y="278"/>
      <point x="244" y="278" type="curve" smooth="yes"/>
      <point x="183" y="278"/>
      <point x="141" y="245"/>
      <point x="109" y="209" type="curve"/>
      <point x="143" y="130" type="line"/>
      <point x="164" y="155"/>
      <point x="191" y="170"/>
      <point x="216" y="170" type="curve" smooth="yes"/>
      <point x="239" y="170"/>
      <point x="251" y="158"/>
      <point x="251" y="136" type="curve" smooth="yes"/>
      <point x="251" y="112"/>
      <point x="238" y="102"/>
      <point x="215" y="102" type="curve" smooth="yes"/>
      <point x="197" y="102"/>
      <point x="172" y="117"/>
      <point x="166" y="168" type="curve"/>
      <point x="162" y="185"/>
      <point x="160" y="213"/>
      <point x="160" y="232" type="curve" smooth="yes"/>
      <point x="160" y="356"/>
      <point x="212" y="432"/>
      <point x="299" y="432" type="curve" smooth="yes"/>
      <point x="374" y="432"/>
      <point x="391" y="376"/>
      <point x="391" y="326" type="curve" smooth="yes"/>
      <point x="391" y="294"/>
      <point x="385" y="265"/>
      <point x="378" y="231" type="curve" smooth="yes"/>
      <point x="372" y="200"/>
      <point x="368" y="168"/>
      <point x="368" y="138" type="curve" smooth="yes"/>
      <point x="368" y="45"/>
      <point x="425" y="-11"/>
    </contour>
  </outline>
</glyph>
<glyph name="mbasinh" format="2">
  <advance width="762"/>
  <unicode hex="0DB9"/>
  <outline>
    <contour>
      <point x="268" y="-6" type="curve" smooth="yes"/>
      <point x="291" y="-6"/>
      <point x="317" y="-3"/>
      <point x="330" y="1" type="curve"/>
      <point x="310" y="144" type="line"/>
      <point x="297" y="142"/>
      <point x="285" y="141"/>
      <point x="270" y="141" type="curve" smooth="yes"/>
      <point x="205" y="141"/>
      <point x="154" y="200"/>
      <point x="154" y="329" type="curve" smooth="yes"/>
      <point x="154" y="406"/>
      <point x="173" y="459"/>
      <point x="195" y="459" type="curve" smooth="yes"/>
      <point x="203" y="459"/>
      <point x="206" y="454"/>
      <point x="206" y="442" type="curve" smooth="yes"/>
      <point x="206" y="414"/>
      <point x="198" y="396"/>
      <point x="198" y="360" type="curve" smooth="yes"/>
      <point x="198" y="278"/>
      <point x="238" y="206"/>
      <point x="370" y="206" type="curve" smooth="yes"/>
      <point x="477" y="206"/>
      <point x="553" y="265"/>
      <point x="553" y="412" type="curve" smooth="yes"/>
      <point x="553" y="516"/>
      <point x="502" y="584"/>
      <point x="418" y="584" type="curve" smooth="yes"/>
      <point x="351" y="584"/>
      <point x="296" y="542"/>
      <point x="296" y="454" type="curve" smooth="yes"/>
      <point x="296" y="373"/>
      <point x="333" y="330"/>
      <point x="402" y="330" type="curve" smooth="yes"/>
      <point x="419" y="330"/>
      <point x="447" y="336"/>
      <point x="472" y="362" type="curve"/>
      <point x="444" y="434" type="line"/>
      <point x="428" y="424"/>
      <point x="421" y="422"/>
      <point x="407" y="422" type="curve" smooth="yes"/>
      <point x="393" y="422"/>
      <point x="383" y="432"/>
      <point x="383" y="454" type="curve" smooth="yes"/>
      <point x="383" y="474"/>
      <point x="395" y="486"/>
      <point x="409" y="486" type="curve" smooth="yes"/>
      <point x="427" y="486"/>
      <point x="436" y="472"/>
      <point x="436" y="419" type="curve" smooth="yes"/>
      <point x="436" y="330"/>
      <point x="418" y="299"/>
      <point x="368" y="299" type="curve" smooth="yes"/>
      <point x="333" y="299"/>
      <point x="311" y="317"/>
      <point x="311" y="363" type="curve" smooth="yes"/>
      <point x="311" y="397"/>
      <point x="319" y="435"/>
      <point x="319" y="473" type="curve" smooth="yes"/>
      <point x="319" y="517"/>
      <point x="304" y="584"/>
      <point x="209" y="584" type="curve" smooth="yes"/>
      <point x="101" y="584"/>
      <point x="22" y="486"/>
      <point x="22" y="304" type="curve" smooth="yes"/>
      <point x="22" y="105"/>
      <point x="130" y="-6"/>
    </contour>
    <contour>
      <point x="439" y="-6" type="curve" smooth="yes"/>
      <point x="648" y="-6"/>
      <point x="740" y="178"/>
      <point x="740" y="391" type="curve" smooth="yes"/>
      <point x="740" y="673"/>
      <point x="608" y="836"/>
      <point x="344" y="836" type="curve" smooth="yes"/>
      <point x="229" y="836"/>
      <point x="133" y="806"/>
      <point x="49" y="768" type="curve"/>
      <point x="99" y="651" type="line"/>
      <point x="169" y="684"/>
      <point x="247" y="706"/>
      <point x="344" y="706" type="curve" smooth="yes"/>
      <point x="511" y="706"/>
      <point x="600" y="603"/>
      <point x="600" y="401" type="curve" smooth="yes"/>
      <point x="600" y="235"/>
      <point x="529" y="145"/>
      <point x="451" y="145" type="curve" smooth="yes"/>
      <point x="428" y="145"/>
      <point x="414" y="145"/>
      <point x="405" y="147" type="curve"/>
      <point x="392" y="-1" type="line"/>
      <point x="405" y="-4"/>
      <point x="425" y="-6"/>
    </contour>
    <contour>
      <point x="362" y="168" type="curve" smooth="yes"/>
      <point x="390" y="168"/>
      <point x="401" y="160"/>
      <point x="401" y="144" type="curve" smooth="yes"/>
      <point x="401" y="130"/>
      <point x="394" y="124"/>
      <point x="382" y="120" type="curve"/>
      <point x="392" y="-1" type="line"/>
      <point x="455" y="90" type="line"/>
      <point x="487" y="107"/>
      <point x="508" y="138"/>
      <point x="508" y="170" type="curve" smooth="yes"/>
      <point x="508" y="236"/>
      <point x="432" y="255"/>
      <point x="374" y="255" type="curve" smooth="yes"/>
      <point x="348" y="255" type="line" smooth="yes"/>
      <point x="287" y="255"/>
      <point x="217" y="238"/>
      <point x="217" y="173" type="curve" smooth="yes"/>
      <point x="217" y="139"/>
      <point x="237" y="110"/>
      <point x="265" y="89" type="curve"/>
      <point x="330" y="1" type="line"/>
      <point x="342" y="120" type="line"/>
      <point x="330" y="124"/>
      <point x="323" y="130"/>
      <point x="323" y="144" type="curve" smooth="yes"/>
      <point x="323" y="159"/>
      <point x="334" y="168"/>
    </contour>
  </outline>
</glyph>
<glyph name="yasinh" format="2">
  <advance width="684"/>
  <unicode hex="0DBA"/>
  <outline>
    <contour>
      <point x="481" y="-11" type="curve" smooth="yes"/>
      <point x="584" y="-11"/>
      <point x="662" y="57"/>
      <point x="662" y="217" type="curve" smooth="yes"/>
      <point x="662" y="391"/>
      <point x="552" y="455"/>
      <point x="440" y="455" type="curve" smooth="yes"/>
      <point x="399" y="455" type="line"/>
      <point x="468" y="447" type="line"/>
      <point x="471" y="494"/>
      <point x="478" y="508"/>
      <point x="493" y="508" type="curve" smooth="yes"/>
      <point x="503" y="508"/>
      <point x="511" y="498"/>
      <point x="511" y="476" type="curve" smooth="yes"/>
      <point x="511" y="470"/>
      <point x="511" y="464"/>
      <point x="510" y="458" type="curve"/>
      <point x="632" y="446" type="line"/>
      <point x="634" y="462"/>
      <point x="635" y="483"/>
      <point x="635" y="493" type="curve" smooth="yes"/>
      <point x="635" y="575"/>
      <point x="591" y="622"/>
      <point x="499" y="622" type="curve" smooth="yes"/>
      <point x="391" y="622"/>
      <point x="343" y="537"/>
      <point x="343" y="388" type="curve" smooth="yes"/>
      <point x="343" y="338" type="line"/>
      <point x="397" y="338" type="line" smooth="yes"/>
      <point x="448" y="338"/>
      <point x="476" y="331"/>
      <point x="497" y="313" type="curve" smooth="yes"/>
      <point x="516" y="297"/>
      <point x="527" y="272"/>
      <point x="527" y="237" type="curve" smooth="yes"/>
      <point x="527" y="184"/>
      <point x="507" y="159"/>
      <point x="468" y="159" type="curve" smooth="yes"/>
      <point x="426" y="159"/>
      <point x="405" y="188"/>
      <point x="405" y="244" type="curve" smooth="yes"/>
      <point x="405" y="257" type="line"/>
      <point x="275" y="257" type="line"/>
      <point x="275" y="248" type="line" smooth="yes"/>
      <point x="275" y="187"/>
      <point x="257" y="159"/>
      <point x="216" y="159" type="curve" smooth="yes"/>
      <point x="175" y="159"/>
      <point x="157" y="193"/>
      <point x="157" y="246" type="curve" smooth="yes"/>
      <point x="157" y="323"/>
      <point x="206" y="361"/>
      <point x="276" y="361" type="curve" smooth="yes"/>
      <point x="288" y="361"/>
      <point x="297" y="361"/>
      <point x="306" y="360" type="curve"/>
      <point x="315" y="488" type="line"/>
      <point x="305" y="490"/>
      <point x="294" y="491"/>
      <point x="280" y="491" type="curve" smooth="yes"/>
      <point x="104" y="491"/>
      <point x="22" y="376"/>
      <point x="22" y="222" type="curve" smooth="yes"/>
      <point x="22" y="81"/>
      <point x="83" y="-11"/>
      <point x="208" y="-11" type="curve" smooth="yes"/>
      <point x="269" y="-11"/>
      <point x="309" y="17"/>
      <point x="339" y="68" type="curve"/>
      <point x="369" y="23"/>
      <point x="402" y="-11"/>
    </contour>
  </outline>
</glyph>
<glyph name="rasinh" format="2">
  <advance width="572"/>
  <unicode hex="0DBB"/>
  <outline>
    <contour>
      <point x="282" y="-11" type="curve" smooth="yes"/>
      <point x="463" y="-11"/>
      <point x="550" y="99"/>
      <point x="550" y="302" type="curve" smooth="yes"/>
      <point x="550" y="466"/>
      <point x="475" y="576"/>
      <point x="334" y="576" type="curve" smooth="yes"/>
      <point x="292" y="576"/>
      <point x="261" y="568"/>
      <point x="240" y="560" type="curve"/>
      <point x="153" y="449" type="line"/>
      <point x="207" y="465"/>
      <point x="249" y="471"/>
      <point x="290" y="471" type="curve" smooth="yes"/>
      <point x="372" y="471"/>
      <point x="413" y="410"/>
      <point x="413" y="318" type="curve" smooth="yes"/>
      <point x="413" y="218"/>
      <point x="371" y="164"/>
      <point x="284" y="164" type="curve" smooth="yes"/>
      <point x="193" y="164"/>
      <point x="159" y="221"/>
      <point x="159" y="306" type="curve" smooth="yes"/>
      <point x="159" y="394"/>
      <point x="212" y="453"/>
      <point x="297" y="501" type="curve"/>
      <point x="327" y="531" type="line"/>
      <point x="417" y="561"/>
      <point x="512" y="642"/>
      <point x="571" y="719" type="curve"/>
      <point x="467" y="814" type="line"/>
      <point x="387" y="723"/>
      <point x="316" y="657"/>
      <point x="216" y="592" type="curve"/>
      <point x="70" y="504"/>
      <point x="22" y="415"/>
      <point x="22" y="278" type="curve" smooth="yes"/>
      <point x="22" y="87"/>
      <point x="131" y="-11"/>
    </contour>
  </outline>
</glyph>
<glyph name="lasinh" format="2">
  <advance width="749"/>
  <unicode hex="0DBD"/>
  <outline>
    <contour>
      <point x="398" y="-246" type="curve" smooth="yes"/>
      <point x="604" y="-246"/>
      <point x="730" y="-130"/>
      <point x="730" y="111" type="curve" smooth="yes"/>
      <point x="730" y="116"/>
      <point x="729" y="127"/>
      <point x="728" y="134" type="curve"/>
      <point x="593" y="129" type="line"/>
      <point x="593" y="125"/>
      <point x="593" y="120"/>
      <point x="593" y="114" type="curve" smooth="yes"/>
      <point x="593" y="-23"/>
      <point x="526" y="-107"/>
      <point x="392" y="-107" type="curve" smooth="yes"/>
      <point x="235" y="-107"/>
      <point x="185" y="2"/>
      <point x="185" y="178" type="curve" smooth="yes"/>
      <point x="185" y="373"/>
      <point x="259" y="493"/>
      <point x="433" y="493" type="curve" smooth="yes"/>
      <point x="540" y="493"/>
      <point x="593" y="446"/>
      <point x="593" y="351" type="curve" smooth="yes"/>
      <point x="593" y="293"/>
      <point x="571" y="264"/>
      <point x="530" y="264" type="curve" smooth="yes"/>
      <point x="501" y="264"/>
      <point x="483" y="275"/>
      <point x="483" y="307" type="curve" smooth="yes"/>
      <point x="483" y="319"/>
      <point x="485" y="332"/>
      <point x="490" y="347" type="curve"/>
      <point x="447" y="306" type="line"/>
      <point x="559" y="306" type="line"/>
      <point x="559" y="434" type="line"/>
      <point x="281" y="434" type="line"/>
      <point x="281" y="306" type="line"/>
      <point x="368" y="306" type="line"/>
      <point x="399" y="310" type="line"/>
      <point x="382" y="397" type="line"/>
      <point x="362" y="374"/>
      <point x="348" y="336"/>
      <point x="348" y="292" type="curve" smooth="yes"/>
      <point x="348" y="187"/>
      <point x="409" y="137"/>
      <point x="526" y="137" type="curve" smooth="yes"/>
      <point x="669" y="137"/>
      <point x="725" y="235"/>
      <point x="725" y="359" type="curve" smooth="yes"/>
      <point x="725" y="506"/>
      <point x="632" y="622"/>
      <point x="428" y="622" type="curve" smooth="yes"/>
      <point x="159" y="622"/>
      <point x="23" y="417"/>
      <point x="23" y="173" type="curve" smooth="yes"/>
      <point x="23" y="-74"/>
      <point x="122" y="-246"/>
    </contour>
  </outline>
</glyph>
<glyph name="shasinh" format="2">
  <advance width="769"/>
  <unicode hex="0DC1"/>
  <outline>
    <contour>
      <point x="260" y="-11" type="curve" smooth="yes"/>
      <point x="411" y="-11"/>
      <point x="482" y="100"/>
      <point x="482" y="235" type="curve" smooth="yes"/>
      <point x="482" y="346"/>
      <point x="429" y="385"/>
      <point x="374" y="385" type="curve" smooth="yes"/>
      <point x="354" y="385"/>
      <point x="334" y="379"/>
      <point x="326" y="376" type="curve"/>
      <point x="380" y="362" type="line"/>
      <point x="408" y="426"/>
      <point x="445" y="469"/>
      <point x="511" y="469" type="curve" smooth="yes"/>
      <point x="574" y="469"/>
      <point x="620" y="410"/>
      <point x="620" y="292" type="curve" smooth="yes"/>
      <point x="620" y="179"/>
      <point x="588" y="143"/>
      <point x="542" y="94" type="curve"/>
      <point x="501" y="67" type="line"/>
      <point x="621" y="-11" type="line"/>
      <point x="687" y="70"/>
      <point x="745" y="164"/>
      <point x="745" y="315" type="curve" smooth="yes"/>
      <point x="745" y="503"/>
      <point x="657" y="622"/>
      <point x="519" y="622" type="curve" smooth="yes"/>
      <point x="403" y="622"/>
      <point x="297" y="569"/>
      <point x="229" y="289" type="curve"/>
      <point x="326" y="257" type="line"/>
      <point x="329" y="264"/>
      <point x="333" y="269"/>
      <point x="340" y="269" type="curve" smooth="yes"/>
      <point x="349" y="269"/>
      <point x="352" y="263"/>
      <point x="352" y="246" type="curve" smooth="yes"/>
      <point x="352" y="198"/>
      <point x="317" y="164"/>
      <point x="266" y="164" type="curve" smooth="yes"/>
      <point x="199" y="164"/>
      <point x="163" y="204"/>
      <point x="163" y="318" type="curve" smooth="yes"/>
      <point x="163" y="428"/>
      <point x="205" y="492"/>
      <point x="273" y="492" type="curve" smooth="yes"/>
      <point x="279" y="492"/>
      <point x="290" y="492"/>
      <point x="297" y="491" type="curve"/>
      <point x="303" y="620" type="line"/>
      <point x="291" y="622"/>
      <point x="279" y="622"/>
      <point x="270" y="622" type="curve" smooth="yes"/>
      <point x="111" y="622"/>
      <point x="26" y="508"/>
      <point x="26" y="293" type="curve" smooth="yes"/>
      <point x="26" y="120"/>
      <point x="94" y="-11"/>
    </contour>
    <contour>
      <point x="501" y="67" type="curve"/>
      <point x="562" y="47" type="line"/>
      <point x="590" y="68"/>
      <point x="602" y="98"/>
      <point x="602" y="126" type="curve" smooth="yes"/>
      <point x="602" y="167"/>
      <point x="583" y="189"/>
      <point x="583" y="231" type="curve" smooth="yes"/>
      <point x="583" y="249"/>
      <point x="594" y="261"/>
      <point x="613" y="261" type="curve" smooth="yes"/>
      <point x="637" y="261"/>
      <point x="653" y="249"/>
      <point x="675" y="229" type="curve"/>
      <point x="716" y="326" type="line"/>
      <point x="670" y="356"/>
      <point x="629" y="370"/>
      <point x="589" y="370" type="curve" smooth="yes"/>
      <point x="512" y="370"/>
      <point x="470" y="326"/>
      <point x="470" y="259" type="curve" smooth="yes"/>
      <point x="470" y="182"/>
      <point x="506" y="154"/>
      <point x="506" y="103" type="curve" smooth="yes"/>
      <point x="506" y="91"/>
      <point x="505" y="77"/>
    </contour>
  </outline>
</glyph>
<glyph name="ssasinh" format="2">
  <advance width="668"/>
  <unicode hex="0DC2"/>
  <outline>
    <contour>
      <point x="334" y="-11" type="curve" smooth="yes"/>
      <point x="556" y="-11"/>
      <point x="645" y="92"/>
      <point x="645" y="243" type="curve" smooth="yes"/>
      <point x="645" y="384"/>
      <point x="558" y="455"/>
      <point x="438" y="455" type="curve" smooth="yes"/>
      <point x="398" y="455" type="line"/>
      <point x="467" y="447" type="line"/>
      <point x="470" y="493"/>
      <point x="480" y="508"/>
      <point x="497" y="508" type="curve" smooth="yes"/>
      <point x="511" y="508"/>
      <point x="516" y="495"/>
      <point x="516" y="480" type="curve" smooth="yes"/>
      <point x="516" y="457"/>
      <point x="506" y="433"/>
      <point x="491" y="412" type="curve"/>
      <point x="485" y="380" type="line"/>
      <point x="456" y="348"/>
      <point x="441" y="337"/>
      <point x="391" y="337" type="curve" smooth="yes"/>
      <point x="329" y="337" type="line" smooth="yes"/>
      <point x="270" y="337"/>
      <point x="239" y="327"/>
      <point x="219" y="308" type="curve" smooth="yes"/>
      <point x="203" y="292"/>
      <point x="194" y="273"/>
      <point x="194" y="243" type="curve" smooth="yes"/>
      <point x="194" y="184"/>
      <point x="238" y="136"/>
      <point x="333" y="136" type="curve" smooth="yes"/>
      <point x="435" y="136"/>
      <point x="471" y="180"/>
      <point x="471" y="240" type="curve" smooth="yes"/>
      <point x="471" y="271"/>
      <point x="460" y="295"/>
      <point x="441" y="317" type="curve"/>
      <point x="350" y="286" type="line"/>
      <point x="362" y="272"/>
      <point x="369" y="254"/>
      <point x="369" y="244" type="curve" smooth="yes"/>
      <point x="369" y="227"/>
      <point x="357" y="222"/>
      <point x="331" y="222" type="curve" smooth="yes"/>
      <point x="309" y="222"/>
      <point x="296" y="227"/>
      <point x="296" y="239" type="curve" smooth="yes"/>
      <point x="296" y="248"/>
      <point x="300" y="254"/>
      <point x="318" y="254" type="curve" smooth="yes"/>
      <point x="398" y="254" type="line" smooth="yes"/>
      <point x="468" y="254"/>
      <point x="511" y="274"/>
      <point x="563" y="327" type="curve"/>
      <point x="604" y="367"/>
      <point x="636" y="417"/>
      <point x="636" y="482" type="curve" smooth="yes"/>
      <point x="636" y="573"/>
      <point x="585" y="622"/>
      <point x="506" y="622" type="curve" smooth="yes"/>
      <point x="383" y="622"/>
      <point x="346" y="524"/>
      <point x="346" y="394" type="curve" smooth="yes"/>
      <point x="346" y="359" type="line"/>
      <point x="378" y="359" type="line" smooth="yes"/>
      <point x="430" y="359"/>
      <point x="460" y="346"/>
      <point x="479" y="327" type="curve" smooth="yes"/>
      <point x="500" y="306"/>
      <point x="506" y="278"/>
      <point x="506" y="250" type="curve" smooth="yes"/>
      <point x="506" y="182"/>
      <point x="466" y="113"/>
      <point x="334" y="113" type="curve" smooth="yes"/>
      <point x="202" y="113"/>
      <point x="162" y="182"/>
      <point x="162" y="250" type="curve" smooth="yes"/>
      <point x="162" y="286"/>
      <point x="173" y="312"/>
      <point x="193" y="330" type="curve" smooth="yes"/>
      <point x="215" y="349"/>
      <point x="241" y="357"/>
      <point x="298" y="357" type="curve" smooth="yes"/>
      <point x="322" y="357" type="line"/>
      <point x="322" y="395" type="line" smooth="yes"/>
      <point x="322" y="528"/>
      <point x="283" y="622"/>
      <point x="171" y="622" type="curve" smooth="yes"/>
      <point x="78" y="622"/>
      <point x="34" y="575"/>
      <point x="34" y="493" type="curve" smooth="yes"/>
      <point x="34" y="482"/>
      <point x="35" y="462"/>
      <point x="37" y="446" type="curve"/>
      <point x="159" y="458" type="line"/>
      <point x="158" y="464"/>
      <point x="158" y="470"/>
      <point x="158" y="476" type="curve" smooth="yes"/>
      <point x="158" y="498"/>
      <point x="166" y="508"/>
      <point x="178" y="508" type="curve" smooth="yes"/>
      <point x="191" y="508"/>
      <point x="198" y="494"/>
      <point x="201" y="447" type="curve"/>
      <point x="270" y="455" type="line"/>
      <point x="230" y="455" type="line" smooth="yes"/>
      <point x="110" y="455"/>
      <point x="23" y="388"/>
      <point x="23" y="244" type="curve" smooth="yes"/>
      <point x="23" y="92"/>
      <point x="113" y="-11"/>
    </contour>
  </outline>
</glyph>
<glyph name="sasinh" format="2">
  <advance width="711"/>
  <unicode hex="0DC3"/>
  <outline>
    <contour>
      <point x="508" y="-11" type="curve" smooth="yes"/>
      <point x="611" y="-11"/>
      <point x="689" y="57"/>
      <point x="689" y="217" type="curve" smooth="yes"/>
      <point x="689" y="391"/>
      <point x="579" y="455"/>
      <point x="467" y="455" type="curve" smooth="yes"/>
      <point x="426" y="455" type="line"/>
      <point x="501" y="447" type="line"/>
      <point x="504" y="494"/>
      <point x="511" y="508"/>
      <point x="526" y="508" type="curve" smooth="yes"/>
      <point x="536" y="508"/>
      <point x="544" y="498"/>
      <point x="544" y="476" type="curve" smooth="yes"/>
      <point x="544" y="470"/>
      <point x="544" y="464"/>
      <point x="543" y="458" type="curve"/>
      <point x="665" y="446" type="line"/>
      <point x="667" y="462"/>
      <point x="668" y="483"/>
      <point x="668" y="493" type="curve" smooth="yes"/>
      <point x="668" y="575"/>
      <point x="624" y="622"/>
      <point x="532" y="622" type="curve" smooth="yes"/>
      <point x="420" y="622"/>
      <point x="380" y="529"/>
      <point x="380" y="394" type="curve" smooth="yes"/>
      <point x="380" y="338" type="line"/>
      <point x="424" y="338" type="line" smooth="yes"/>
      <point x="475" y="338"/>
      <point x="503" y="331"/>
      <point x="524" y="313" type="curve" smooth="yes"/>
      <point x="543" y="297"/>
      <point x="554" y="272"/>
      <point x="554" y="237" type="curve" smooth="yes"/>
      <point x="554" y="184"/>
      <point x="534" y="159"/>
      <point x="495" y="159" type="curve" smooth="yes"/>
      <point x="453" y="159"/>
      <point x="432" y="188"/>
      <point x="432" y="244" type="curve" smooth="yes"/>
      <point x="432" y="257" type="line"/>
      <point x="302" y="257" type="line"/>
      <point x="302" y="245" type="line" smooth="yes"/>
      <point x="302" y="176"/>
      <point x="269" y="159"/>
      <point x="239" y="159" type="curve" smooth="yes"/>
      <point x="199" y="159"/>
      <point x="180" y="183"/>
      <point x="180" y="234" type="curve" smooth="yes"/>
      <point x="180" y="271"/>
      <point x="192" y="298"/>
      <point x="211" y="314" type="curve" smooth="yes"/>
      <point x="231" y="331"/>
      <point x="256" y="338"/>
      <point x="303" y="338" type="curve" smooth="yes"/>
      <point x="356" y="338" type="line"/>
      <point x="356" y="395" type="line" smooth="yes"/>
      <point x="356" y="528"/>
      <point x="317" y="622"/>
      <point x="205" y="622" type="curve" smooth="yes"/>
      <point x="112" y="622"/>
      <point x="68" y="575"/>
      <point x="68" y="493" type="curve" smooth="yes"/>
      <point x="68" y="488"/>
      <point x="68" y="479"/>
      <point x="69" y="469" type="curve"/>
      <point x="192" y="473" type="line"/>
      <point x="192" y="474"/>
      <point x="192" y="475"/>
      <point x="192" y="476" type="curve"/>
      <point x="192" y="498"/>
      <point x="200" y="508"/>
      <point x="212" y="508" type="curve" smooth="yes"/>
      <point x="225" y="508"/>
      <point x="232" y="494"/>
      <point x="234" y="455" type="curve"/>
      <point x="20" y="455" type="line"/>
      <point x="20" y="338" type="line"/>
      <point x="46" y="338" type="line" smooth="yes"/>
      <point x="83" y="338"/>
      <point x="122" y="342"/>
      <point x="155" y="349" type="curve"/>
      <point x="123" y="364" type="line"/>
      <point x="73" y="325"/>
      <point x="41" y="276"/>
      <point x="41" y="186" type="curve" smooth="yes"/>
      <point x="41" y="78"/>
      <point x="98" y="-11"/>
      <point x="220" y="-11" type="curve" smooth="yes"/>
      <point x="297" y="-11"/>
      <point x="338" y="20"/>
      <point x="366" y="68" type="curve"/>
      <point x="396" y="23"/>
      <point x="429" y="-11"/>
    </contour>
  </outline>
</glyph>
<glyph name="hasinh" format="2">
  <advance width="799"/>
  <unicode hex="0DC4"/>
  <outline>
    <contour>
      <point x="288" y="-11" type="curve" smooth="yes"/>
      <point x="469" y="-11"/>
      <point x="545" y="97"/>
      <point x="545" y="235" type="curve" smooth="yes"/>
      <point x="545" y="346"/>
      <point x="490" y="385"/>
      <point x="435" y="385" type="curve" smooth="yes"/>
      <point x="415" y="385"/>
      <point x="395" y="379"/>
      <point x="387" y="376" type="curve"/>
      <point x="440" y="362" type="line"/>
      <point x="464" y="418"/>
      <point x="494" y="464"/>
      <point x="546" y="464" type="curve" smooth="yes"/>
      <point x="598" y="464"/>
      <point x="636" y="414"/>
      <point x="636" y="288" type="curve" smooth="yes"/>
      <point x="636" y="169"/>
      <point x="603" y="127"/>
      <point x="537" y="127" type="curve" smooth="yes"/>
      <point x="530" y="127"/>
      <point x="523" y="127"/>
      <point x="520" y="128" type="curve"/>
      <point x="515" y="0" type="line"/>
      <point x="530" y="-2"/>
      <point x="550" y="-3"/>
      <point x="565" y="-3" type="curve" smooth="yes"/>
      <point x="695" y="-3"/>
      <point x="773" y="85"/>
      <point x="773" y="299" type="curve" smooth="yes"/>
      <point x="773" y="495"/>
      <point x="695" y="622"/>
      <point x="551" y="622" type="curve" smooth="yes"/>
      <point x="414" y="622"/>
      <point x="337" y="488"/>
      <point x="290" y="289" type="curve"/>
      <point x="387" y="257" type="line"/>
      <point x="390" y="264"/>
      <point x="394" y="269"/>
      <point x="401" y="269" type="curve" smooth="yes"/>
      <point x="410" y="269"/>
      <point x="413" y="263"/>
      <point x="413" y="250" type="curve" smooth="yes"/>
      <point x="413" y="194"/>
      <point x="368" y="164"/>
      <point x="289" y="164" type="curve" smooth="yes"/>
      <point x="195" y="164"/>
      <point x="158" y="203"/>
      <point x="158" y="263" type="curve" smooth="yes"/>
      <point x="158" y="290"/>
      <point x="168" y="309"/>
      <point x="185" y="320" type="curve" smooth="yes"/>
      <point x="206" y="334"/>
      <point x="239" y="338"/>
      <point x="288" y="338" type="curve" smooth="yes"/>
      <point x="318" y="338" type="line"/>
      <point x="318" y="391" type="line" smooth="yes"/>
      <point x="318" y="528"/>
      <point x="280" y="622"/>
      <point x="167" y="622" type="curve" smooth="yes"/>
      <point x="74" y="622"/>
      <point x="30" y="575"/>
      <point x="30" y="493" type="curve" smooth="yes"/>
      <point x="30" y="482"/>
      <point x="31" y="462"/>
      <point x="33" y="446" type="curve"/>
      <point x="155" y="458" type="line"/>
      <point x="154" y="464"/>
      <point x="154" y="470"/>
      <point x="154" y="476" type="curve" smooth="yes"/>
      <point x="154" y="498"/>
      <point x="162" y="508"/>
      <point x="174" y="508" type="curve" smooth="yes"/>
      <point x="187" y="508"/>
      <point x="194" y="494"/>
      <point x="197" y="447" type="curve"/>
      <point x="267" y="455" type="line"/>
      <point x="230" y="455" type="line"/>
      <point x="110" y="455"/>
      <point x="23" y="388"/>
      <point x="23" y="244" type="curve" smooth="yes"/>
      <point x="23" y="93"/>
      <point x="115" y="-11"/>
    </contour>
  </outline>
</glyph>
<glyph name="llasinh" format="2">
  <advance width="650"/>
  <unicode hex="0DC5"/>
  <outline>
    <contour>
      <point x="343" y="-243" type="curve" smooth="yes"/>
      <point x="540" y="-243"/>
      <point x="641" y="-147"/>
      <point x="641" y="46" type="curve" smooth="yes"/>
      <point x="641" y="55"/>
      <point x="640" y="67"/>
      <point x="638" y="80" type="curve"/>
      <point x="503" y="75" type="line"/>
      <point x="504" y="67"/>
      <point x="504" y="61"/>
      <point x="504" y="56" type="curve" smooth="yes"/>
      <point x="504" y="-67"/>
      <point x="438" y="-104"/>
      <point x="342" y="-104" type="curve" smooth="yes"/>
      <point x="224" y="-104"/>
      <point x="173" y="-36"/>
      <point x="173" y="94" type="curve" smooth="yes"/>
      <point x="173" y="152"/>
      <point x="185" y="208"/>
      <point x="215" y="248" type="curve"/>
      <point x="243" y="274" type="line"/>
      <point x="300" y="317"/>
      <point x="373" y="338"/>
      <point x="492" y="338" type="curve" smooth="yes"/>
      <point x="622" y="338" type="line"/>
      <point x="622" y="382" type="line" smooth="yes"/>
      <point x="622" y="516"/>
      <point x="591" y="622"/>
      <point x="479" y="622" type="curve" smooth="yes"/>
      <point x="432" y="622"/>
      <point x="404" y="603"/>
      <point x="383" y="571" type="curve"/>
      <point x="363" y="600"/>
      <point x="340" y="622"/>
      <point x="291" y="622" type="curve" smooth="yes"/>
      <point x="198" y="622"/>
      <point x="137" y="535"/>
      <point x="137" y="402" type="curve" smooth="yes"/>
      <point x="137" y="370"/>
      <point x="143" y="338"/>
      <point x="150" y="309" type="curve"/>
      <point x="165" y="168"/>
      <point x="233" y="62"/>
      <point x="383" y="62" type="curve" smooth="yes"/>
      <point x="546" y="62"/>
      <point x="608" y="143"/>
      <point x="616" y="296" type="curve"/>
      <point x="483" y="309" type="line"/>
      <point x="476" y="217"/>
      <point x="439" y="196"/>
      <point x="382" y="196" type="curve" smooth="yes"/>
      <point x="309" y="196"/>
      <point x="270" y="247"/>
      <point x="270" y="379" type="curve" smooth="yes"/>
      <point x="270" y="486"/>
      <point x="283" y="508"/>
      <point x="309" y="508" type="curve" smooth="yes"/>
      <point x="325" y="508"/>
      <point x="331" y="494"/>
      <point x="333" y="465" type="curve"/>
      <point x="433" y="465" type="line"/>
      <point x="434" y="496"/>
      <point x="445" y="508"/>
      <point x="460" y="508" type="curve" smooth="yes"/>
      <point x="477" y="508"/>
      <point x="487" y="491"/>
      <point x="488" y="455" type="curve"/>
      <point x="451" y="455" type="line" smooth="yes"/>
      <point x="357" y="455"/>
      <point x="276" y="440"/>
      <point x="210" y="404" type="curve"/>
      <point x="172" y="390" type="line"/>
      <point x="80" y="334"/>
      <point x="17" y="232"/>
      <point x="17" y="85" type="curve" smooth="yes"/>
      <point x="17" y="-129"/>
      <point x="135" y="-243"/>
    </contour>
  </outline>
</glyph>
<glyph name="fasinh" format="2">
  <advance width="699"/>
  <unicode hex="0DC6"/>
  <outline>
    <contour>
      <point x="464" y="-11" type="curve" smooth="yes"/>
      <point x="595" y="-11"/>
      <point x="673" y="77"/>
      <point x="673" y="310" type="curve" smooth="yes"/>
      <point x="673" y="520"/>
      <point x="595" y="622"/>
      <point x="487" y="622" type="curve" smooth="yes"/>
      <point x="414" y="622"/>
      <point x="372" y="585"/>
      <point x="349" y="532" type="curve"/>
      <point x="327" y="584"/>
      <point x="291" y="622"/>
      <point x="216" y="622" type="curve" smooth="yes"/>
      <point x="104" y="622"/>
      <point x="26" y="516"/>
      <point x="26" y="310" type="curve" smooth="yes"/>
      <point x="26" y="77"/>
      <point x="104" y="-11"/>
      <point x="235" y="-11" type="curve" smooth="yes"/>
      <point x="248" y="-11"/>
      <point x="277" y="-10"/>
      <point x="292" y="-8" type="curve"/>
      <point x="286" y="122" type="line"/>
      <point x="279" y="121"/>
      <point x="273" y="121"/>
      <point x="265" y="121" type="curve" smooth="yes"/>
      <point x="182" y="121"/>
      <point x="163" y="186"/>
      <point x="163" y="286" type="curve" smooth="yes"/>
      <point x="163" y="399"/>
      <point x="187" y="447"/>
      <point x="232" y="447" type="curve" smooth="yes"/>
      <point x="248" y="447"/>
      <point x="258" y="442"/>
      <point x="267" y="432" type="curve" smooth="yes"/>
      <point x="281" y="416"/>
      <point x="285" y="388"/>
      <point x="285" y="339" type="curve" smooth="yes"/>
      <point x="285" y="316" type="line"/>
      <point x="414" y="316" type="line"/>
      <point x="414" y="339" type="line" smooth="yes"/>
      <point x="414" y="390"/>
      <point x="419" y="416"/>
      <point x="433" y="432" type="curve" smooth="yes"/>
      <point x="442" y="442"/>
      <point x="453" y="447"/>
      <point x="469" y="447" type="curve" smooth="yes"/>
      <point x="514" y="447"/>
      <point x="536" y="399"/>
      <point x="536" y="286" type="curve" smooth="yes"/>
      <point x="536" y="185"/>
      <point x="517" y="121"/>
      <point x="434" y="121" type="curve" smooth="yes"/>
      <point x="426" y="121"/>
      <point x="420" y="121"/>
      <point x="413" y="122" type="curve"/>
      <point x="407" y="-8" type="line"/>
      <point x="422" y="-10"/>
      <point x="451" y="-11"/>
    </contour>
  </outline>
</glyph>
<glyph name="viramasinh" format="2">
  <unicode hex="0DCA"/>
  <outline>
    <contour>
      <point x="-229" y="518" type="line"/>
      <point x="-121" y="518" type="line"/>
      <point x="-121" y="840" type="line"/>
      <point x="-159" y="886" type="line"/>
      <point x="-159" y="939"/>
      <point x="-186" y="967"/>
      <point x="-230" y="978" type="curve"/>
      <point x="-277" y="879" type="line"/>
      <point x="-259" y="871"/>
      <point x="-246" y="863"/>
      <point x="-239" y="853" type="curve" smooth="yes"/>
      <point x="-229" y="840"/>
      <point x="-229" y="824"/>
      <point x="-229" y="793" type="curve" smooth="yes"/>
    </contour>
    <contour>
      <point x="-103" y="757" type="curve" smooth="yes"/>
      <point x="-46" y="757"/>
      <point x="0" y="787"/>
      <point x="0" y="869" type="curve" smooth="yes"/>
      <point x="0" y="935"/>
      <point x="-30" y="979"/>
      <point x="-90" y="979" type="curve" smooth="yes"/>
      <point x="-140" y="979"/>
      <point x="-172" y="944"/>
      <point x="-182" y="880" type="curve"/>
      <point x="-121" y="825" type="line"/>
      <point x="-121" y="862" type="line" smooth="yes"/>
      <point x="-121" y="885"/>
      <point x="-111" y="890"/>
      <point x="-102" y="890" type="curve" smooth="yes"/>
      <point x="-90" y="890"/>
      <point x="-85" y="882"/>
      <point x="-85" y="868" type="curve" smooth="yes"/>
      <point x="-85" y="853"/>
      <point x="-93" y="844"/>
      <point x="-110" y="844" type="curve" smooth="yes"/>
      <point x="-126" y="844"/>
      <point x="-141" y="848"/>
      <point x="-159" y="856" type="curve"/>
      <point x="-180" y="773" type="line"/>
      <point x="-154" y="764"/>
      <point x="-131" y="757"/>
    </contour>
  </outline>
</glyph>
<glyph name="aavowelsignsinh" format="2">
  <advance width="337"/>
  <unicode hex="0DCF"/>
  <outline>
    <contour>
      <point x="107" y="-11" type="curve" smooth="yes"/>
      <point x="264" y="-11"/>
      <point x="308" y="100"/>
      <point x="308" y="276" type="curve" smooth="yes"/>
      <point x="308" y="453"/>
      <point x="264" y="565"/>
      <point x="107" y="565" type="curve" smooth="yes"/>
      <point x="75" y="565"/>
      <point x="40" y="561"/>
      <point x="7" y="550" type="curve"/>
      <point x="29" y="431" type="line"/>
      <point x="43" y="436"/>
      <point x="58" y="438"/>
      <point x="71" y="438" type="curve" smooth="yes"/>
      <point x="129" y="438"/>
      <point x="149" y="402"/>
      <point x="149" y="277" type="curve" smooth="yes"/>
      <point x="149" y="152"/>
      <point x="130" y="116"/>
      <point x="71" y="116" type="curve" smooth="yes"/>
      <point x="58" y="116"/>
      <point x="43" y="118"/>
      <point x="29" y="123" type="curve"/>
      <point x="7" y="4" type="line"/>
      <point x="40" y="-7"/>
      <point x="75" y="-11"/>
    </contour>
  </outline>
</glyph>
<glyph name="aevowelsignsinh" format="2">
  <advance width="295"/>
  <unicode hex="0DD0"/>
  <outline>
    <contour>
      <point x="197" y="-177" type="curve" smooth="yes"/>
      <point x="237" y="-177"/>
      <point x="278" y="-170"/>
      <point x="310" y="-156" type="curve"/>
      <point x="278" y="-43" type="line"/>
      <point x="263" y="-49"/>
      <point x="247" y="-52"/>
      <point x="228" y="-52" type="curve" smooth="yes"/>
      <point x="192" y="-52"/>
      <point x="169" y="-30"/>
      <point x="169" y="21" type="curve" smooth="yes"/>
      <point x="169" y="86"/>
      <point x="188" y="164"/>
      <point x="287" y="310" type="curve"/>
      <point x="243" y="407" type="line"/>
      <point x="9" y="407" type="line"/>
      <point x="9" y="282" type="line"/>
      <point x="55" y="282" type="line" smooth="yes"/>
      <point x="91" y="282"/>
      <point x="154" y="284"/>
      <point x="172" y="287" type="curve"/>
      <point x="152" y="330" type="line"/>
      <point x="33" y="180"/>
      <point x="12" y="94"/>
      <point x="12" y="8" type="curve" smooth="yes"/>
      <point x="12" y="-125"/>
      <point x="91" y="-177"/>
    </contour>
  </outline>
</glyph>
<glyph name="aaevowelsignsinh" format="2">
  <advance width="295"/>
  <unicode hex="0DD1"/>
  <outline>
    <contour>
      <point x="196" y="-177" type="curve" smooth="yes"/>
      <point x="237" y="-177"/>
      <point x="278" y="-170"/>
      <point x="310" y="-156" type="curve"/>
      <point x="278" y="-43" type="line"/>
      <point x="263" y="-49"/>
      <point x="247" y="-52"/>
      <point x="228" y="-52" type="curve" smooth="yes"/>
      <point x="192" y="-52"/>
      <point x="169" y="-31"/>
      <point x="169" y="11" type="curve" smooth="yes"/>
      <point x="169" y="67"/>
      <point x="209" y="103"/>
      <point x="276" y="155" type="curve"/>
      <point x="249" y="247" type="line"/>
      <point x="221" y="245" type="line" smooth="yes"/>
      <point x="179" y="242"/>
      <point x="106" y="232"/>
      <point x="58" y="220" type="curve"/>
      <point x="59" y="197" type="line"/>
      <point x="121" y="219"/>
      <point x="218" y="268"/>
      <point x="283" y="309" type="curve"/>
      <point x="247" y="407" type="line"/>
      <point x="9" y="407" type="line"/>
      <point x="9" y="285" type="line"/>
      <point x="42" y="285" type="line" smooth="yes"/>
      <point x="74" y="285"/>
      <point x="120" y="288"/>
      <point x="169" y="299" type="curve"/>
      <point x="206" y="356" type="line"/>
      <point x="162" y="319"/>
      <point x="74" y="276"/>
      <point x="12" y="232" type="curve"/>
      <point x="46" y="151" type="line"/>
      <point x="64" y="152" type="line" smooth="yes"/>
      <point x="98" y="154"/>
      <point x="154" y="163"/>
      <point x="198" y="173" type="curve"/>
      <point x="181" y="201" type="line"/>
      <point x="92" y="161"/>
      <point x="12" y="92"/>
      <point x="12" y="-11" type="curve" smooth="yes"/>
      <point x="12" y="-122"/>
      <point x="85" y="-177"/>
    </contour>
  </outline>
</glyph>
<glyph name="ivowelsignsinh" format="2">
  <unicode hex="0DD2"/>
  <outline>
    <contour>
      <point x="-311" y="894" type="curve" smooth="yes"/>
      <point x="-515" y="894"/>
      <point x="-558" y="789"/>
      <point x="-558" y="706" type="curve" smooth="yes"/>
      <point x="-558" y="678"/>
      <point x="-554" y="653"/>
      <point x="-549" y="631" type="curve"/>
      <point x="-419" y="642" type="line"/>
      <point x="-421" y="651"/>
      <point x="-423" y="665"/>
      <point x="-423" y="677" type="curve" smooth="yes"/>
      <point x="-423" y="722"/>
      <point x="-407" y="755"/>
      <point x="-311" y="755" type="curve" smooth="yes"/>
      <point x="-214" y="755"/>
      <point x="-198" y="722"/>
      <point x="-198" y="677" type="curve" smooth="yes"/>
      <point x="-198" y="665"/>
      <point x="-200" y="651"/>
      <point x="-202" y="642" type="curve"/>
      <point x="-72" y="631" type="line"/>
      <point x="-67" y="653"/>
      <point x="-63" y="677"/>
      <point x="-63" y="706" type="curve" smooth="yes"/>
      <point x="-63" y="789"/>
      <point x="-106" y="894"/>
    </contour>
  </outline>
</glyph>
<glyph name="iivowelsignsinh" format="2">
  <unicode hex="0DD3"/>
  <outline>
    <contour>
      <point x="-311" y="894" type="curve" smooth="yes"/>
      <point x="-515" y="894"/>
      <point x="-558" y="789"/>
      <point x="-558" y="706" type="curve" smooth="yes"/>
      <point x="-558" y="678"/>
      <point x="-554" y="653"/>
      <point x="-549" y="631" type="curve"/>
      <point x="-419" y="642" type="line"/>
      <point x="-421" y="651"/>
      <point x="-423" y="665"/>
      <point x="-423" y="677" type="curve" smooth="yes"/>
      <point x="-423" y="722"/>
      <point x="-407" y="756"/>
      <point x="-311" y="756" type="curve" smooth="yes"/>
      <point x="-278" y="756"/>
      <point x="-240" y="754"/>
      <point x="-215" y="744" type="curve"/>
      <point x="-178" y="732"/>
      <point x="-161" y="711"/>
      <point x="-161" y="684" type="curve" smooth="yes"/>
      <point x="-161" y="662"/>
      <point x="-172" y="654"/>
      <point x="-186" y="654" type="curve" smooth="yes"/>
      <point x="-206" y="654"/>
      <point x="-215" y="667"/>
      <point x="-215" y="688" type="curve" smooth="yes"/>
      <point x="-215" y="732"/>
      <point x="-188" y="754"/>
      <point x="-133" y="794" type="curve"/>
      <point x="-253" y="813" type="line"/>
      <point x="-295" y="777"/>
      <point x="-323" y="743"/>
      <point x="-323" y="686" type="curve" smooth="yes"/>
      <point x="-323" y="591"/>
      <point x="-248" y="563"/>
      <point x="-186" y="563" type="curve" smooth="yes"/>
      <point x="-103" y="563"/>
      <point x="-47" y="602"/>
      <point x="-47" y="706" type="curve" smooth="yes"/>
      <point x="-47" y="785"/>
      <point x="-93" y="894"/>
    </contour>
  </outline>
</glyph>
<glyph name="uvowelsignsinh" format="2">
  <unicode hex="0DD4"/>
  <outline>
    <contour>
      <point x="-592" y="-133" type="curve" smooth="yes"/>
      <point x="-592" y="-167"/>
      <point x="-584" y="-193"/>
      <point x="-568" y="-214" type="curve" smooth="yes"/>
      <point x="-538" y="-253"/>
      <point x="-492" y="-270"/>
      <point x="-396" y="-270" type="curve" smooth="yes"/>
      <point x="-25" y="-270" type="line"/>
      <point x="-25" y="55" type="line"/>
      <point x="-158" y="55" type="line"/>
      <point x="-158" y="-141" type="line"/>
      <point x="-391" y="-141" type="line" smooth="yes"/>
      <point x="-417" y="-141"/>
      <point x="-430" y="-139"/>
      <point x="-438" y="-132" type="curve" smooth="yes"/>
      <point x="-444" y="-127"/>
      <point x="-447" y="-120"/>
      <point x="-447" y="-109" type="curve" smooth="yes"/>
      <point x="-447" y="-98"/>
      <point x="-441" y="-85"/>
      <point x="-429" y="-71" type="curve"/>
      <point x="-535" y="-4" type="line"/>
      <point x="-575" y="-51"/>
      <point x="-592" y="-91"/>
    </contour>
  </outline>
</glyph>
<glyph name="uuvowelsignsinh" format="2">
  <unicode hex="0DD6"/>
  <outline>
    <contour>
      <point x="-592" y="-136" type="curve" smooth="yes"/>
      <point x="-592" y="-227"/>
      <point x="-528" y="-270"/>
      <point x="-455" y="-270" type="curve" smooth="yes"/>
      <point x="-395" y="-270"/>
      <point x="-358" y="-258"/>
      <point x="-302" y="-226" type="curve" smooth="yes"/>
      <point x="-266" y="-205"/>
      <point x="-250" y="-198"/>
      <point x="-228" y="-198" type="curve" smooth="yes"/>
      <point x="-193" y="-198"/>
      <point x="-173" y="-220"/>
      <point x="-139" y="-270" type="curve"/>
      <point x="-25" y="-270" type="line"/>
      <point x="-25" y="55" type="line"/>
      <point x="-158" y="55" type="line"/>
      <point x="-158" y="-61" type="line" smooth="yes"/>
      <point x="-158" y="-82"/>
      <point x="-156" y="-121"/>
      <point x="-153" y="-140" type="curve"/>
      <point x="-129" y="-141" type="line"/>
      <point x="-171" y="-88"/>
      <point x="-206" y="-68"/>
      <point x="-248" y="-68" type="curve" smooth="yes"/>
      <point x="-289" y="-68"/>
      <point x="-311" y="-78"/>
      <point x="-359" y="-110" type="curve" smooth="yes"/>
      <point x="-392" y="-132"/>
      <point x="-405" y="-140"/>
      <point x="-421" y="-140" type="curve" smooth="yes"/>
      <point x="-439" y="-140"/>
      <point x="-447" y="-130"/>
      <point x="-447" y="-111" type="curve" smooth="yes"/>
      <point x="-447" y="-98"/>
      <point x="-441" y="-85"/>
      <point x="-429" y="-71" type="curve"/>
      <point x="-535" y="-4" type="line"/>
      <point x="-575" y="-51"/>
      <point x="-592" y="-91"/>
    </contour>
  </outline>
</glyph>
<glyph name="rvocalicvowelsignsinh" format="2">
  <advance width="414"/>
  <unicode hex="0DD8"/>
  <outline>
    <contour>
      <point x="141" y="-11" type="curve" smooth="yes"/>
      <point x="176" y="-11"/>
      <point x="199" y="-2"/>
      <point x="220" y="16" type="curve"/>
      <point x="236" y="0" type="line"/>
      <point x="274" y="51" type="line"/>
      <point x="216" y="116" type="line"/>
      <point x="192" y="116" type="line"/>
      <point x="187" y="112"/>
      <point x="183" y="109"/>
      <point x="173" y="109" type="curve" smooth="yes"/>
      <point x="155" y="109"/>
      <point x="146" y="124"/>
      <point x="146" y="161" type="curve" smooth="yes"/>
      <point x="146" y="186"/>
      <point x="153" y="205"/>
      <point x="166" y="218" type="curve" smooth="yes"/>
      <point x="181" y="233"/>
      <point x="206" y="240"/>
      <point x="237" y="240" type="curve" smooth="yes"/>
      <point x="281" y="240" type="line"/>
      <point x="272" y="354" type="line"/>
      <point x="242" y="354" type="line" smooth="yes"/>
      <point x="171" y="354"/>
      <point x="123" y="342"/>
      <point x="86" y="320" type="curve" smooth="yes"/>
      <point x="39" y="292"/>
      <point x="9" y="240"/>
      <point x="9" y="161" type="curve" smooth="yes"/>
      <point x="9" y="45"/>
      <point x="60" y="-11"/>
    </contour>
    <contour>
      <point x="236" y="0" type="line"/>
      <point x="378" y="0" type="line"/>
      <point x="378" y="318" type="line" smooth="yes"/>
      <point x="378" y="409"/>
      <point x="365" y="481"/>
      <point x="303" y="527" type="curve" smooth="yes"/>
      <point x="268" y="554"/>
      <point x="221" y="565"/>
      <point x="170" y="565" type="curve" smooth="yes"/>
      <point x="115" y="565"/>
      <point x="67" y="557"/>
      <point x="23" y="543" type="curve"/>
      <point x="53" y="424" type="line"/>
      <point x="80" y="433"/>
      <point x="111" y="438"/>
      <point x="140" y="438" type="curve" smooth="yes"/>
      <point x="170" y="438"/>
      <point x="189" y="431"/>
      <point x="201" y="418" type="curve" smooth="yes"/>
      <point x="219" y="400"/>
      <point x="225" y="370"/>
      <point x="225" y="337" type="curve" smooth="yes"/>
      <point x="225" y="21" type="line"/>
    </contour>
  </outline>
</glyph>
<glyph name="evowelsignsinh" format="2">
  <advance width="582"/>
  <unicode hex="0DD9"/>
  <outline>
    <contour>
      <point x="299" y="-11" type="curve" smooth="yes"/>
      <point x="486" y="-11"/>
      <point x="566" y="89"/>
      <point x="566" y="215" type="curve" smooth="yes"/>
      <point x="566" y="318"/>
      <point x="509" y="421"/>
      <point x="343" y="421" type="curve" smooth="yes"/>
      <point x="240" y="421"/>
      <point x="182" y="365"/>
      <point x="182" y="284" type="curve" smooth="yes"/>
      <point x="182" y="198"/>
      <point x="236" y="158"/>
      <point x="307" y="158" type="curve" smooth="yes"/>
      <point x="383" y="158"/>
      <point x="419" y="195"/>
      <point x="419" y="263" type="curve" smooth="yes"/>
      <point x="419" y="294"/>
      <point x="407" y="317"/>
      <point x="394" y="335" type="curve"/>
      <point x="305" y="336" type="line"/>
      <point x="322" y="323"/>
      <point x="331" y="306"/>
      <point x="331" y="286" type="curve" smooth="yes"/>
      <point x="331" y="261"/>
      <point x="319" y="255"/>
      <point x="307" y="255" type="curve" smooth="yes"/>
      <point x="293" y="255"/>
      <point x="283" y="265"/>
      <point x="283" y="285" type="curve" smooth="yes"/>
      <point x="283" y="308"/>
      <point x="297" y="321"/>
      <point x="322" y="321" type="curve" smooth="yes"/>
      <point x="327" y="321"/>
      <point x="351" y="320"/>
      <point x="360" y="319" type="curve"/>
      <point x="414" y="314"/>
      <point x="445" y="287"/>
      <point x="445" y="235" type="curve" smooth="yes"/>
      <point x="445" y="171"/>
      <point x="400" y="123"/>
      <point x="299" y="123" type="curve" smooth="yes"/>
      <point x="214" y="123"/>
      <point x="146" y="173"/>
      <point x="146" y="283" type="curve" smooth="yes"/>
      <point x="146" y="386"/>
      <point x="211" y="454"/>
      <point x="343" y="454" type="curve" smooth="yes"/>
      <point x="410" y="454"/>
      <point x="457" y="443"/>
      <point x="512" y="423" type="curve"/>
      <point x="545" y="538" type="line"/>
      <point x="487" y="558"/>
      <point x="430" y="572"/>
      <point x="344" y="572" type="curve" smooth="yes"/>
      <point x="143" y="572"/>
      <point x="22" y="456"/>
      <point x="22" y="275" type="curve" smooth="yes"/>
      <point x="22" y="129"/>
      <point x="99" y="-11"/>
    </contour>
  </outline>
</glyph>
<glyph name="lvocalicvowelsignsinh" format="2">
  <advance width="549"/>
  <unicode hex="0DDF"/>
  <outline>
    <contour>
      <point x="326" y="-11" type="curve" smooth="yes"/>
      <point x="478" y="-11"/>
      <point x="520" y="97"/>
      <point x="520" y="284" type="curve" smooth="yes"/>
      <point x="520" y="467"/>
      <point x="458" y="565"/>
      <point x="331" y="565" type="curve" smooth="yes"/>
      <point x="268" y="565"/>
      <point x="203" y="539"/>
      <point x="157" y="459" type="curve"/>
      <point x="215" y="413" type="line"/>
      <point x="244" y="443" type="line"/>
      <point x="254" y="448"/>
      <point x="282" y="452"/>
      <point x="300" y="452" type="curve" smooth="yes"/>
      <point x="355" y="452"/>
      <point x="367" y="394"/>
      <point x="367" y="286" type="curve" smooth="yes"/>
      <point x="367" y="160"/>
      <point x="349" y="116"/>
      <point x="284" y="116" type="curve" smooth="yes"/>
      <point x="266" y="116"/>
      <point x="244" y="119"/>
      <point x="225" y="125" type="curve"/>
      <point x="203" y="6" type="line"/>
      <point x="235" y="-4"/>
      <point x="272" y="-11"/>
    </contour>
    <contour>
      <point x="189" y="245" type="curve" smooth="yes"/>
      <point x="313" y="245"/>
      <point x="341" y="317"/>
      <point x="341" y="377" type="curve" smooth="yes"/>
      <point x="341" y="445"/>
      <point x="303" y="478"/>
      <point x="249" y="478" type="curve" smooth="yes"/>
      <point x="251" y="478"/>
      <point x="245" y="477"/>
      <point x="246" y="475" type="curve"/>
      <point x="215" y="413" type="line"/>
      <point x="218" y="414"/>
      <point x="221" y="415"/>
      <point x="224" y="415" type="curve" smooth="yes"/>
      <point x="232" y="415"/>
      <point x="237" y="407"/>
      <point x="237" y="395" type="curve" smooth="yes"/>
      <point x="237" y="370"/>
      <point x="221" y="359"/>
      <point x="195" y="359" type="curve" smooth="yes"/>
      <point x="165" y="359"/>
      <point x="143" y="381"/>
      <point x="143" y="430" type="curve" smooth="yes"/>
      <point x="143" y="456"/>
      <point x="151" y="496"/>
      <point x="167" y="525" type="curve"/>
      <point x="40" y="565" type="line"/>
      <point x="21" y="528"/>
      <point x="8" y="483"/>
      <point x="8" y="431" type="curve" smooth="yes"/>
      <point x="8" y="339"/>
      <point x="49" y="245"/>
    </contour>
  </outline>
</glyph>
<glyph name="uni0DE6" format="2">
  <advance width="405"/>
  <unicode hex="0DE6"/>
  <outline>
    <contour>
      <point x="84" y="0" type="line"/>
      <point x="224" y="0" type="line"/>
      <point x="224" y="456" type="line"/>
      <point x="174" y="523" type="line"/>
      <point x="166" y="580"/>
      <point x="136" y="610"/>
      <point x="71" y="624" type="curve"/>
      <point x="20" y="507" type="line"/>
      <point x="42" y="498"/>
      <point x="58" y="489"/>
      <point x="70" y="473" type="curve" smooth="yes"/>
      <point x="79" y="461"/>
      <point x="84" y="444"/>
      <point x="84" y="412" type="curve" smooth="yes"/>
    </contour>
    <contour>
      <point x="244" y="354" type="curve" smooth="yes"/>
      <point x="334" y="354"/>
      <point x="387" y="390"/>
      <point x="387" y="491" type="curve" smooth="yes"/>
      <point x="387" y="565"/>
      <point x="349" y="622"/>
      <point x="272" y="622" type="curve" smooth="yes"/>
      <point x="200" y="622"/>
      <point x="159" y="579"/>
      <point x="144" y="499" type="curve"/>
      <point x="224" y="438" type="line"/>
      <point x="224" y="466" type="line" smooth="yes"/>
      <point x="224" y="498"/>
      <point x="235" y="515"/>
      <point x="255" y="515" type="curve" smooth="yes"/>
      <point x="272" y="515"/>
      <point x="278" y="504"/>
      <point x="278" y="489" type="curve" smooth="yes"/>
      <point x="278" y="469"/>
      <point x="266" y="461"/>
      <point x="241" y="461" type="curve" smooth="yes"/>
      <point x="214" y="461"/>
      <point x="188" y="468"/>
      <point x="156" y="483" type="curve"/>
      <point x="129" y="383" type="line"/>
      <point x="165" y="365"/>
      <point x="210" y="354"/>
    </contour>
  </outline>
</glyph>
<glyph name="uni0DE8" format="2">
  <advance width="1103"/>
  <unicode hex="0DE8"/>
  <outline>
    <contour>
      <point x="641" y="337" type="curve"/>
      <point x="751" y="281" type="line"/>
      <point x="775" y="414"/>
      <point x="809" y="464"/>
      <point x="854" y="464" type="curve" smooth="yes"/>
      <point x="899" y="464"/>
      <point x="934" y="420"/>
      <point x="934" y="288" type="curve" smooth="yes"/>
      <point x="934" y="176"/>
      <point x="912" y="127"/>
      <point x="846" y="127" type="curve" smooth="yes"/>
      <point x="839" y="127"/>
      <point x="832" y="127"/>
      <point x="829" y="128" type="curve"/>
      <point x="824" y="0" type="line"/>
      <point x="839" y="-2"/>
      <point x="859" y="-3"/>
      <point x="874" y="-3" type="curve" smooth="yes"/>
      <point x="1006" y="-3"/>
      <point x="1071" y="101"/>
      <point x="1071" y="299" type="curve" smooth="yes"/>
      <point x="1071" y="495"/>
      <point x="1001" y="622"/>
      <point x="860" y="622" type="curve" smooth="yes"/>
      <point x="754" y="622"/>
      <point x="671" y="533"/>
    </contour>
    <contour>
      <point x="320" y="-11" type="curve" smooth="yes"/>
      <point x="508" y="-11"/>
      <point x="585" y="97"/>
      <point x="585" y="228" type="curve" smooth="yes"/>
      <point x="585" y="349"/>
      <point x="516" y="446"/>
      <point x="362" y="446" type="curve" smooth="yes"/>
      <point x="256" y="446"/>
      <point x="198" y="390"/>
      <point x="198" y="309" type="curve" smooth="yes"/>
      <point x="198" y="224"/>
      <point x="252" y="183"/>
      <point x="323" y="183" type="curve" smooth="yes"/>
      <point x="399" y="183"/>
      <point x="435" y="220"/>
      <point x="435" y="288" type="curve" smooth="yes"/>
      <point x="435" y="319"/>
      <point x="423" y="342"/>
      <point x="410" y="360" type="curve"/>
      <point x="321" y="361" type="line"/>
      <point x="338" y="348"/>
      <point x="347" y="331"/>
      <point x="347" y="311" type="curve" smooth="yes"/>
      <point x="347" y="286"/>
      <point x="335" y="280"/>
      <point x="323" y="280" type="curve" smooth="yes"/>
      <point x="309" y="280"/>
      <point x="299" y="290"/>
      <point x="299" y="310" type="curve" smooth="yes"/>
      <point x="299" y="333"/>
      <point x="313" y="346"/>
      <point x="338" y="346" type="curve" smooth="yes"/>
      <point x="343" y="346"/>
      <point x="367" y="345"/>
      <point x="376" y="344" type="curve" smooth="yes"/>
      <point x="443" y="338"/>
      <point x="463" y="297"/>
      <point x="463" y="252" type="curve" smooth="yes"/>
      <point x="463" y="179"/>
      <point x="407" y="144"/>
      <point x="320" y="144" type="curve" smooth="yes"/>
      <point x="242" y="144"/>
      <point x="162" y="181"/>
      <point x="162" y="307" type="curve" smooth="yes"/>
      <point x="162" y="413"/>
      <point x="229" y="492"/>
      <point x="367" y="492" type="curve" smooth="yes"/>
      <point x="553" y="492"/>
      <point x="645" y="361"/>
      <point x="651" y="-1" type="curve"/>
      <point x="792" y="1" type="line"/>
      <point x="791" y="431"/>
      <point x="643" y="622"/>
      <point x="367" y="622" type="curve" smooth="yes"/>
      <point x="172" y="622"/>
      <point x="27" y="504"/>
      <point x="27" y="298" type="curve" smooth="yes"/>
      <point x="27" y="144"/>
      <point x="104" y="-11"/>
    </contour>
  </outline>
</glyph>
<glyph name="uni0DEA" format="2">
  <advance width="670"/>
  <unicode hex="0DEA"/>
  <outline>
    <contour>
      <point x="335" y="-11" type="curve" smooth="yes"/>
      <point x="553" y="-11"/>
      <point x="642" y="85"/>
      <point x="642" y="227" type="curve" smooth="yes"/>
      <point x="642" y="334"/>
      <point x="585" y="395"/>
      <point x="505" y="415" type="curve" smooth="yes"/>
      <point x="483" y="420"/>
      <point x="452" y="424"/>
      <point x="425" y="424" type="curve" smooth="yes"/>
      <point x="410" y="424" type="line"/>
      <point x="439" y="404" type="line"/>
      <point x="439" y="408" type="line" smooth="yes"/>
      <point x="439" y="499"/>
      <point x="471" y="517"/>
      <point x="489" y="517" type="curve" smooth="yes"/>
      <point x="508" y="517"/>
      <point x="517" y="503"/>
      <point x="517" y="485" type="curve" smooth="yes"/>
      <point x="517" y="466"/>
      <point x="510" y="448"/>
      <point x="489" y="448" type="curve" smooth="yes"/>
      <point x="468" y="448"/>
      <point x="461" y="465"/>
      <point x="461" y="487" type="curve" smooth="yes"/>
      <point x="461" y="518"/>
      <point x="471" y="547"/>
      <point x="482" y="566" type="curve"/>
      <point x="493" y="591" type="line"/>
      <point x="522" y="639"/>
      <point x="579" y="677"/>
      <point x="642" y="707" type="curve"/>
      <point x="587" y="812" type="line"/>
      <point x="452" y="760"/>
      <point x="369" y="652"/>
      <point x="369" y="527" type="curve" smooth="yes"/>
      <point x="369" y="525" type="line" smooth="yes"/>
      <point x="369" y="414"/>
      <point x="431" y="371"/>
      <point x="497" y="371" type="curve" smooth="yes"/>
      <point x="594" y="371"/>
      <point x="636" y="418"/>
      <point x="636" y="497" type="curve" smooth="yes"/>
      <point x="636" y="578"/>
      <point x="584" y="621"/>
      <point x="513" y="621" type="curve" smooth="yes"/>
      <point x="476" y="621"/>
      <point x="451" y="610"/>
      <point x="427" y="595" type="curve"/>
      <point x="389" y="553" type="line"/>
      <point x="356" y="507"/>
      <point x="347" y="462"/>
      <point x="347" y="358" type="curve" smooth="yes"/>
      <point x="347" y="308" type="line"/>
      <point x="377" y="308" type="line" smooth="yes"/>
      <point x="426" y="308"/>
      <point x="459" y="305"/>
      <point x="480" y="293" type="curve"/>
      <point x="497" y="284"/>
      <point x="507" y="269"/>
      <point x="507" y="246" type="curve" smooth="yes"/>
      <point x="507" y="194"/>
      <point x="464" y="164"/>
      <point x="334" y="164" type="curve" smooth="yes"/>
      <point x="206" y="164"/>
      <point x="163" y="194"/>
      <point x="163" y="246" type="curve" smooth="yes"/>
      <point x="163" y="268"/>
      <point x="173" y="284"/>
      <point x="190" y="293" type="curve"/>
      <point x="211" y="305"/>
      <point x="244" y="308"/>
      <point x="292" y="308" type="curve" smooth="yes"/>
      <point x="323" y="308" type="line"/>
      <point x="323" y="371" type="line" smooth="yes"/>
      <point x="323" y="503"/>
      <point x="294" y="622"/>
      <point x="166" y="622" type="curve" smooth="yes"/>
      <point x="81" y="622"/>
      <point x="32" y="572"/>
      <point x="32" y="498" type="curve" smooth="yes"/>
      <point x="32" y="436"/>
      <point x="68" y="388"/>
      <point x="132" y="388" type="curve" smooth="yes"/>
      <point x="164" y="388"/>
      <point x="196" y="396"/>
      <point x="221" y="427" type="curve"/>
      <point x="179" y="474" type="line"/>
      <point x="175" y="468"/>
      <point x="166" y="464"/>
      <point x="156" y="464" type="curve" smooth="yes"/>
      <point x="145" y="464"/>
      <point x="136" y="472"/>
      <point x="136" y="489" type="curve" smooth="yes"/>
      <point x="136" y="505"/>
      <point x="146" y="517"/>
      <point x="164" y="517" type="curve" smooth="yes"/>
      <point x="196" y="517"/>
      <point x="210" y="480"/>
      <point x="206" y="414" type="curve"/>
      <point x="270" y="425" type="line"/>
      <point x="235" y="425" type="line" smooth="yes"/>
      <point x="115" y="425"/>
      <point x="28" y="362"/>
      <point x="28" y="228" type="curve" smooth="yes"/>
      <point x="28" y="85"/>
      <point x="117" y="-11"/>
    </contour>
  </outline>
</glyph>
<glyph name="uni0DEB" format="2">
  <advance width="514"/>
  <unicode hex="0DEB"/>
  <outline>
    <contour>
      <point x="419" y="-271" type="curve" smooth="yes"/>
      <point x="456" y="-271"/>
      <point x="485" y="-266"/>
      <point x="523" y="-252" type="curve"/>
      <point x="490" y="-140" type="line"/>
      <point x="474" y="-146"/>
      <point x="460" y="-148"/>
      <point x="446" y="-148" type="curve" smooth="yes"/>
      <point x="421" y="-148"/>
      <point x="401" y="-135"/>
      <point x="401" y="-98" type="curve" smooth="yes"/>
      <point x="401" y="-54"/>
      <point x="422" y="-19"/>
      <point x="485" y="36" type="curve"/>
      <point x="461" y="95" type="line"/>
      <point x="422" y="89" type="line"/>
      <point x="311" y="24"/>
      <point x="258" y="-43"/>
      <point x="258" y="-127" type="curve" smooth="yes"/>
      <point x="258" y="-218"/>
      <point x="316" y="-271"/>
    </contour>
    <contour>
      <point x="299" y="-11" type="curve" smooth="yes"/>
      <point x="393" y="-11"/>
      <point x="445" y="1"/>
      <point x="508" y="31" type="curve"/>
      <point x="468" y="148" type="line"/>
      <point x="429" y="132"/>
      <point x="381" y="119"/>
      <point x="323" y="119" type="curve" smooth="yes"/>
      <point x="252" y="119"/>
      <point x="196" y="145"/>
      <point x="196" y="215" type="curve" smooth="yes"/>
      <point x="196" y="248"/>
      <point x="213" y="272"/>
      <point x="237" y="286" type="curve" smooth="yes"/>
      <point x="266" y="303"/>
      <point x="305" y="308"/>
      <point x="378" y="308" type="curve" smooth="yes"/>
      <point x="488" y="308" type="line"/>
      <point x="488" y="379" type="line" smooth="yes"/>
      <point x="488" y="513"/>
      <point x="449" y="622"/>
      <point x="302" y="622" type="curve" smooth="yes"/>
      <point x="206" y="622"/>
      <point x="155" y="569"/>
      <point x="155" y="500" type="curve" smooth="yes"/>
      <point x="155" y="422"/>
      <point x="209" y="391"/>
      <point x="273" y="391" type="curve" smooth="yes"/>
      <point x="314" y="391"/>
      <point x="354" y="406"/>
      <point x="372" y="445" type="curve"/>
      <point x="322" y="479" type="line"/>
      <point x="318" y="471"/>
      <point x="312" y="464"/>
      <point x="298" y="464" type="curve" smooth="yes"/>
      <point x="285" y="464"/>
      <point x="277" y="472"/>
      <point x="277" y="489" type="curve" smooth="yes"/>
      <point x="277" y="505"/>
      <point x="288" y="518"/>
      <point x="309" y="518" type="curve" smooth="yes"/>
      <point x="347" y="518"/>
      <point x="358" y="475"/>
      <point x="359" y="425" type="curve"/>
      <point x="339" y="425" type="line" smooth="yes"/>
      <point x="232" y="425"/>
      <point x="164" y="409"/>
      <point x="111" y="374" type="curve" smooth="yes"/>
      <point x="58" y="340"/>
      <point x="26" y="284"/>
      <point x="26" y="211" type="curve" smooth="yes"/>
      <point x="26" y="73"/>
      <point x="116" y="-11"/>
    </contour>
  </outline>
</glyph>
<glyph name="uni0DEC" format="2">
  <advance width="764"/>
  <unicode hex="0DEC"/>
  <outline>
    <contour>
      <point x="552" y="-11" type="curve" smooth="yes"/>
      <point x="670" y="-11"/>
      <point x="734" y="67"/>
      <point x="734" y="222" type="curve" smooth="yes"/>
      <point x="734" y="434"/>
      <point x="629" y="614"/>
      <point x="392" y="614" type="curve" smooth="yes"/>
      <point x="167" y="614"/>
      <point x="30" y="454"/>
      <point x="30" y="241" type="curve" smooth="yes"/>
      <point x="30" y="66"/>
      <point x="108" y="-11"/>
      <point x="224" y="-11" type="curve" smooth="yes"/>
      <point x="281" y="-11"/>
      <point x="323" y="3"/>
      <point x="357" y="22" type="curve"/>
      <point x="304" y="138" type="line"/>
      <point x="278" y="123"/>
      <point x="263" y="119"/>
      <point x="238" y="119" type="curve" smooth="yes"/>
      <point x="190" y="119"/>
      <point x="169" y="159"/>
      <point x="169" y="227" type="curve" smooth="yes"/>
      <point x="169" y="354"/>
      <point x="251" y="446"/>
      <point x="385" y="446" type="curve" smooth="yes"/>
      <point x="466" y="446"/>
      <point x="520" y="415"/>
      <point x="563" y="353" type="curve"/>
      <point x="570" y="330" type="line"/>
      <point x="586" y="301"/>
      <point x="599" y="252"/>
      <point x="599" y="200" type="curve" smooth="yes"/>
      <point x="599" y="136"/>
      <point x="584" y="113"/>
      <point x="552" y="113" type="curve" smooth="yes"/>
      <point x="526" y="113"/>
      <point x="510" y="135"/>
      <point x="510" y="185" type="curve" smooth="yes"/>
      <point x="510" y="229"/>
      <point x="524" y="259"/>
      <point x="562" y="259" type="curve" smooth="yes"/>
      <point x="588" y="259"/>
      <point x="608" y="252"/>
      <point x="629" y="241" type="curve"/>
      <point x="646" y="354" type="line"/>
      <point x="616" y="372"/>
      <point x="584" y="383"/>
      <point x="551" y="383" type="curve" smooth="yes"/>
      <point x="438" y="383"/>
      <point x="375" y="304"/>
      <point x="375" y="183" type="curve" smooth="yes"/>
      <point x="375" y="72"/>
      <point x="424" y="-11"/>
    </contour>
  </outline>
</glyph>
<glyph name="uni0DED" format="2">
  <advance width="357"/>
  <unicode hex="0DED"/>
  <outline>
    <contour>
      <point x="243" y="-11" type="curve" smooth="yes"/>
      <point x="286" y="-11"/>
      <point x="329" y="-1"/>
      <point x="366" y="14" type="curve"/>
      <point x="331" y="133" type="line"/>
      <point x="313" y="125"/>
      <point x="292" y="120"/>
      <point x="269" y="120" type="curve" smooth="yes"/>
      <point x="229" y="120"/>
      <point x="202" y="141"/>
      <point x="202" y="200" type="curve" smooth="yes"/>
      <point x="202" y="270"/>
      <point x="224" y="354"/>
      <point x="338" y="511" type="curve"/>
      <point x="291" y="612" type="line"/>
      <point x="23" y="612" type="line"/>
      <point x="23" y="481" type="line"/>
      <point x="86" y="481" type="line" smooth="yes"/>
      <point x="128" y="481"/>
      <point x="200" y="483"/>
      <point x="221" y="486" type="curve"/>
      <point x="198" y="530" type="line"/>
      <point x="61" y="370"/>
      <point x="37" y="279"/>
      <point x="37" y="190" type="curve" smooth="yes"/>
      <point x="37" y="44"/>
      <point x="124" y="-11"/>
    </contour>
  </outline>
</glyph>
<glyph name="uni0DEE" format="2">
  <advance width="582"/>
  <unicode hex="0DEE"/>
  <outline>
    <contour>
      <point x="287" y="-11" type="curve" smooth="yes"/>
      <point x="468" y="-11"/>
      <point x="555" y="101"/>
      <point x="555" y="290" type="curve" smooth="yes"/>
      <point x="555" y="418"/>
      <point x="486" y="538"/>
      <point x="325" y="538" type="curve" smooth="yes"/>
      <point x="281" y="538"/>
      <point x="239" y="529"/>
      <point x="206" y="517" type="curve"/>
      <point x="234" y="406" type="line"/>
      <point x="257" y="412"/>
      <point x="282" y="415"/>
      <point x="303" y="415" type="curve" smooth="yes"/>
      <point x="393" y="415"/>
      <point x="418" y="351"/>
      <point x="418" y="294" type="curve" smooth="yes"/>
      <point x="418" y="223"/>
      <point x="380" y="164"/>
      <point x="288" y="164" type="curve" smooth="yes"/>
      <point x="198" y="164"/>
      <point x="164" y="221"/>
      <point x="164" y="306" type="curve" smooth="yes"/>
      <point x="164" y="395"/>
      <point x="212" y="452"/>
      <point x="297" y="500" type="curve"/>
      <point x="322" y="517" type="line"/>
      <point x="407" y="555"/>
      <point x="511" y="631"/>
      <point x="576" y="719" type="curve"/>
      <point x="472" y="814" type="line"/>
      <point x="392" y="723"/>
      <point x="321" y="657"/>
      <point x="221" y="592" type="curve"/>
      <point x="75" y="504"/>
      <point x="27" y="415"/>
      <point x="27" y="278" type="curve" smooth="yes"/>
      <point x="27" y="87"/>
      <point x="136" y="-11"/>
    </contour>
  </outline>
</glyph>
